SplineFontDB: 3.2
FontName: Untitled1
FullName: Untitled1
FamilyName: Untitled1
Weight: Regular
Copyright: Copyright (c) 2019, Sean Petykowski
UComments: "2019-12-18: Created with FontForge (http://fontforge.org)"
Version: 001.000
ItalicAngle: 0
UnderlinePosition: -100
UnderlineWidth: 50
Ascent: 800
Descent: 200
InvalidEm: 0
LayerCount: 2
Layer: 0 0 "Back" 1
Layer: 1 0 "Fore" 0
XUID: [1021 293 -277398037 6718184]
StyleMap: 0x0000
FSType: 0
OS2Version: 0
OS2_WeightWidthSlopeOnly: 0
OS2_UseTypoMetrics: 1
CreationTime: 1576711909
ModificationTime: 1577110962
OS2TypoAscent: 0
OS2TypoAOffset: 1
OS2TypoDescent: 0
OS2TypoDOffset: 1
OS2TypoLinegap: 90
OS2WinAscent: 0
OS2WinAOffset: 1
OS2WinDescent: 0
OS2WinDOffset: 1
HheadAscent: 0
HheadAOffset: 1
HheadDescent: 0
HheadDOffset: 1
DEI: 91125
Encoding: ISO8859-1
UnicodeInterp: none
NameList: AGL For New Fonts
DisplaySize: -48
AntiAlias: 1
FitToEm: 0
WinInfo: 0 23 8
BeginChars: 256 57

StartChar: E
Encoding: 69 69 0
Width: 777
VWidth: 0
Flags: HW
LayerCount: 2
Fore
SplineSet
111.111328125 744.444335938 m 0
 111.111328125 775.126953125 135.984375 800 166.666992188 800 c 0
 197.349609375 800 222.22265625 775.126953125 222.22265625 744.444335938 c 0
 222.22265625 713.76171875 197.349609375 688.888671875 166.666992188 688.888671875 c 0
 135.984375 688.888671875 111.111328125 713.76171875 111.111328125 744.444335938 c 0
0 744.444335938 m 0
 0 775.126953125 24.873046875 800 55.5556640625 800 c 0
 86.23828125 800 111.111328125 775.126953125 111.111328125 744.444335938 c 0
 111.111328125 713.76171875 86.23828125 688.888671875 55.5556640625 688.888671875 c 0
 24.873046875 688.888671875 0 713.76171875 0 744.444335938 c 0
0 633.333007812 m 0
 0 664.015625 24.873046875 688.888671875 55.5556640625 688.888671875 c 0
 86.23828125 688.888671875 111.111328125 664.015625 111.111328125 633.333007812 c 0
 111.111328125 602.650390625 86.23828125 577.77734375 55.5556640625 577.77734375 c 0
 24.873046875 577.77734375 0 602.650390625 0 633.333007812 c 0
0 522.22265625 m 0
 0 552.904296875 24.873046875 577.77734375 55.5556640625 577.77734375 c 0
 86.23828125 577.77734375 111.111328125 552.904296875 111.111328125 522.22265625 c 0
 111.111328125 491.540039062 86.23828125 466.666992188 55.5556640625 466.666992188 c 0
 24.873046875 466.666992188 0 491.540039062 0 522.22265625 c 0
0 411.111328125 m 0
 0 441.793945312 24.873046875 466.666992188 55.5556640625 466.666992188 c 0
 86.23828125 466.666992188 111.111328125 441.793945312 111.111328125 411.111328125 c 0
 111.111328125 380.428710938 86.23828125 355.555664062 55.5556640625 355.555664062 c 0
 24.873046875 355.555664062 0 380.428710938 0 411.111328125 c 0
0 188.888671875 m 0
 0 219.571289062 24.873046875 244.444335938 55.5556640625 244.444335938 c 0
 86.23828125 244.444335938 111.111328125 219.571289062 111.111328125 188.888671875 c 0
 111.111328125 158.206054688 86.23828125 133.333007812 55.5556640625 133.333007812 c 0
 24.873046875 133.333007812 0 158.206054688 0 188.888671875 c 0
0 77.77734375 m 0
 0 108.459960938 24.873046875 133.333007812 55.5556640625 133.333007812 c 0
 86.23828125 133.333007812 111.111328125 108.459960938 111.111328125 77.77734375 c 0
 111.111328125 47.095703125 86.23828125 22.22265625 55.5556640625 22.22265625 c 0
 24.873046875 22.22265625 0 47.095703125 0 77.77734375 c 0
0 -33.3330078125 m 0
 0 -2.650390625 24.873046875 22.22265625 55.5556640625 22.22265625 c 0
 86.23828125 22.22265625 111.111328125 -2.650390625 111.111328125 -33.3330078125 c 0
 111.111328125 -64.015625 86.23828125 -88.888671875 55.5556640625 -88.888671875 c 0
 24.873046875 -88.888671875 0 -64.015625 0 -33.3330078125 c 0
222.22265625 744.444335938 m 0
 222.22265625 775.126953125 247.095703125 800 277.77734375 800 c 0
 308.459960938 800 333.333007812 775.126953125 333.333007812 744.444335938 c 0
 333.333007812 713.76171875 308.459960938 688.888671875 277.77734375 688.888671875 c 0
 247.095703125 688.888671875 222.22265625 713.76171875 222.22265625 744.444335938 c 0
333.333007812 744.444335938 m 0
 333.333007812 775.126953125 358.206054688 800 388.888671875 800 c 0
 419.571289062 800 444.444335938 775.126953125 444.444335938 744.444335938 c 0
 444.444335938 713.76171875 419.571289062 688.888671875 388.888671875 688.888671875 c 0
 358.206054688 688.888671875 333.333007812 713.76171875 333.333007812 744.444335938 c 0
444.444335938 744.444335938 m 0
 444.444335938 775.126953125 469.317382812 800 500 800 c 0
 530.682617188 800 555.555664062 775.126953125 555.555664062 744.444335938 c 0
 555.555664062 713.76171875 530.682617188 688.888671875 500 688.888671875 c 0
 469.317382812 688.888671875 444.444335938 713.76171875 444.444335938 744.444335938 c 0
555.555664062 744.444335938 m 0
 555.555664062 775.126953125 580.428710938 800 611.111328125 800 c 0
 641.793945312 800 666.666992188 775.126953125 666.666992188 744.444335938 c 0
 666.666992188 713.76171875 641.793945312 688.888671875 611.111328125 688.888671875 c 0
 580.428710938 688.888671875 555.555664062 713.76171875 555.555664062 744.444335938 c 0
111.111328125 300 m 0
 111.111328125 330.682617188 135.984375 355.555664062 166.666992188 355.555664062 c 0
 197.349609375 355.555664062 222.22265625 330.682617188 222.22265625 300 c 0
 222.22265625 269.317382812 197.349609375 244.444335938 166.666992188 244.444335938 c 0
 135.984375 244.444335938 111.111328125 269.317382812 111.111328125 300 c 0
0 300 m 0
 0 330.682617188 24.873046875 355.555664062 55.5556640625 355.555664062 c 0
 86.23828125 355.555664062 111.111328125 330.682617188 111.111328125 300 c 0
 111.111328125 269.317382812 86.23828125 244.444335938 55.5556640625 244.444335938 c 0
 24.873046875 244.444335938 0 269.317382812 0 300 c 0
222.22265625 300 m 0
 222.22265625 330.682617188 247.095703125 355.555664062 277.77734375 355.555664062 c 0
 308.459960938 355.555664062 333.333007812 330.682617188 333.333007812 300 c 0
 333.333007812 269.317382812 308.459960938 244.444335938 277.77734375 244.444335938 c 0
 247.095703125 244.444335938 222.22265625 269.317382812 222.22265625 300 c 0
333.333007812 300 m 0
 333.333007812 330.682617188 358.206054688 355.555664062 388.888671875 355.555664062 c 0
 419.571289062 355.555664062 444.444335938 330.682617188 444.444335938 300 c 0
 444.444335938 269.317382812 419.571289062 244.444335938 388.888671875 244.444335938 c 0
 358.206054688 244.444335938 333.333007812 269.317382812 333.333007812 300 c 0
444.444335938 300 m 0
 444.444335938 330.682617188 469.317382812 355.555664062 500 355.555664062 c 0
 530.682617188 355.555664062 555.555664062 330.682617188 555.555664062 300 c 0
 555.555664062 269.317382812 530.682617188 244.444335938 500 244.444335938 c 0
 469.317382812 244.444335938 444.444335938 269.317382812 444.444335938 300 c 0
555.555664062 300 m 0
 555.555664062 330.682617188 580.428710938 355.555664062 611.111328125 355.555664062 c 0
 641.793945312 355.555664062 666.666992188 330.682617188 666.666992188 300 c 0
 666.666992188 269.317382812 641.793945312 244.444335938 611.111328125 244.444335938 c 0
 580.428710938 244.444335938 555.555664062 269.317382812 555.555664062 300 c 0
111.111328125 -144.444335938 m 0
 111.111328125 -113.76171875 135.984375 -88.888671875 166.666992188 -88.888671875 c 0
 197.349609375 -88.888671875 222.22265625 -113.76171875 222.22265625 -144.444335938 c 0
 222.22265625 -175.126953125 197.349609375 -200 166.666992188 -200 c 0
 135.984375 -200 111.111328125 -175.126953125 111.111328125 -144.444335938 c 0
0 -144.444335938 m 0
 0 -113.76171875 24.873046875 -88.888671875 55.5556640625 -88.888671875 c 0
 86.23828125 -88.888671875 111.111328125 -113.76171875 111.111328125 -144.444335938 c 0
 111.111328125 -175.126953125 86.23828125 -200 55.5556640625 -200 c 0
 24.873046875 -200 0 -175.126953125 0 -144.444335938 c 0
222.22265625 -144.444335938 m 0
 222.22265625 -113.76171875 247.095703125 -88.888671875 277.77734375 -88.888671875 c 0
 308.459960938 -88.888671875 333.333007812 -113.76171875 333.333007812 -144.444335938 c 0
 333.333007812 -175.126953125 308.459960938 -200 277.77734375 -200 c 0
 247.095703125 -200 222.22265625 -175.126953125 222.22265625 -144.444335938 c 0
333.333007812 -144.444335938 m 0
 333.333007812 -113.76171875 358.206054688 -88.888671875 388.888671875 -88.888671875 c 0
 419.571289062 -88.888671875 444.444335938 -113.76171875 444.444335938 -144.444335938 c 0
 444.444335938 -175.126953125 419.571289062 -200 388.888671875 -200 c 0
 358.206054688 -200 333.333007812 -175.126953125 333.333007812 -144.444335938 c 0
444.444335938 -144.444335938 m 0
 444.444335938 -113.76171875 469.317382812 -88.888671875 500 -88.888671875 c 0
 530.682617188 -88.888671875 555.555664062 -113.76171875 555.555664062 -144.444335938 c 0
 555.555664062 -175.126953125 530.682617188 -200 500 -200 c 0
 469.317382812 -200 444.444335938 -175.126953125 444.444335938 -144.444335938 c 0
555.555664062 -144.444335938 m 0
 555.555664062 -113.76171875 580.428710938 -88.888671875 611.111328125 -88.888671875 c 0
 641.793945312 -88.888671875 666.666992188 -113.76171875 666.666992188 -144.444335938 c 0
 666.666992188 -175.126953125 641.793945312 -200 611.111328125 -200 c 0
 580.428710938 -200 555.555664062 -175.126953125 555.555664062 -144.444335938 c 0
EndSplineSet
Validated: 524293
EndChar

StartChar: B
Encoding: 66 66 1
Width: 777
VWidth: 0
Flags: HW
LayerCount: 2
Fore
SplineSet
0 744.444335938 m 0
 0 775.126953125 24.873046875 800 55.5556640625 800 c 0
 86.23828125 800 111.111328125 775.126953125 111.111328125 744.444335938 c 0
 111.111328125 713.76171875 86.23828125 688.888671875 55.5556640625 688.888671875 c 0
 24.873046875 688.888671875 0 713.76171875 0 744.444335938 c 0
0 633.333007812 m 0
 0 664.015625 24.873046875 688.888671875 55.5556640625 688.888671875 c 0
 86.23828125 688.888671875 111.111328125 664.015625 111.111328125 633.333007812 c 0
 111.111328125 602.650390625 86.23828125 577.77734375 55.5556640625 577.77734375 c 0
 24.873046875 577.77734375 0 602.650390625 0 633.333007812 c 0
0 411.111328125 m 0
 0 441.793945312 24.873046875 466.666992188 55.5556640625 466.666992188 c 0
 86.23828125 466.666992188 111.111328125 441.793945312 111.111328125 411.111328125 c 0
 111.111328125 380.428710938 86.23828125 355.555664062 55.5556640625 355.555664062 c 0
 24.873046875 355.555664062 0 380.428710938 0 411.111328125 c 0
0 300 m 0
 0 330.682617188 24.873046875 355.555664062 55.5556640625 355.555664062 c 0
 86.23828125 355.555664062 111.111328125 330.682617188 111.111328125 300 c 0
 111.111328125 269.317382812 86.23828125 244.444335938 55.5556640625 244.444335938 c 0
 24.873046875 244.444335938 0 269.317382812 0 300 c 0
0 188.888671875 m 0
 0 219.571289062 24.873046875 244.444335938 55.5556640625 244.444335938 c 0
 86.23828125 244.444335938 111.111328125 219.571289062 111.111328125 188.888671875 c 0
 111.111328125 158.206054688 86.23828125 133.333007812 55.5556640625 133.333007812 c 0
 24.873046875 133.333007812 0 158.206054688 0 188.888671875 c 0
0 77.77734375 m 0
 0 108.459960938 24.873046875 133.333007812 55.5556640625 133.333007812 c 0
 86.23828125 133.333007812 111.111328125 108.459960938 111.111328125 77.77734375 c 0
 111.111328125 47.095703125 86.23828125 22.22265625 55.5556640625 22.22265625 c 0
 24.873046875 22.22265625 0 47.095703125 0 77.77734375 c 0
0 -33.3330078125 m 0
 0 -2.650390625 24.873046875 22.22265625 55.5556640625 22.22265625 c 0
 86.23828125 22.22265625 111.111328125 -2.650390625 111.111328125 -33.3330078125 c 0
 111.111328125 -64.015625 86.23828125 -88.888671875 55.5556640625 -88.888671875 c 0
 24.873046875 -88.888671875 0 -64.015625 0 -33.3330078125 c 0
0 -144.444335938 m 0
 0 -113.76171875 24.873046875 -88.888671875 55.5556640625 -88.888671875 c 0
 86.23828125 -88.888671875 111.111328125 -113.76171875 111.111328125 -144.444335938 c 0
 111.111328125 -175.126953125 86.23828125 -200 55.5556640625 -200 c 0
 24.873046875 -200 0 -175.126953125 0 -144.444335938 c 0
111.111328125 -144.444335938 m 0
 111.111328125 -113.76171875 135.984375 -88.888671875 166.666992188 -88.888671875 c 0
 197.349609375 -88.888671875 222.22265625 -113.76171875 222.22265625 -144.444335938 c 0
 222.22265625 -175.126953125 197.349609375 -200 166.666992188 -200 c 0
 135.984375 -200 111.111328125 -175.126953125 111.111328125 -144.444335938 c 0
222.22265625 -144.444335938 m 0
 222.22265625 -113.76171875 247.095703125 -88.888671875 277.77734375 -88.888671875 c 0
 308.459960938 -88.888671875 333.333007812 -113.76171875 333.333007812 -144.444335938 c 0
 333.333007812 -175.126953125 308.459960938 -200 277.77734375 -200 c 0
 247.095703125 -200 222.22265625 -175.126953125 222.22265625 -144.444335938 c 0
333.333007812 -144.444335938 m 0
 333.333007812 -113.76171875 358.206054688 -88.888671875 388.888671875 -88.888671875 c 0
 419.571289062 -88.888671875 444.444335938 -113.76171875 444.444335938 -144.444335938 c 0
 444.444335938 -175.126953125 419.571289062 -200 388.888671875 -200 c 0
 358.206054688 -200 333.333007812 -175.126953125 333.333007812 -144.444335938 c 0
444.444335938 -144.444335938 m 0
 444.444335938 -113.76171875 469.317382812 -88.888671875 500 -88.888671875 c 0
 530.682617188 -88.888671875 555.555664062 -113.76171875 555.555664062 -144.444335938 c 0
 555.555664062 -175.126953125 530.682617188 -200 500 -200 c 0
 469.317382812 -200 444.444335938 -175.126953125 444.444335938 -144.444335938 c 0
555.555664062 -33.3330078125 m 0
 555.555664062 -2.650390625 580.428710938 22.22265625 611.111328125 22.22265625 c 0
 641.793945312 22.22265625 666.666992188 -2.650390625 666.666992188 -33.3330078125 c 0
 666.666992188 -64.015625 641.793945312 -88.888671875 611.111328125 -88.888671875 c 0
 580.428710938 -88.888671875 555.555664062 -64.015625 555.555664062 -33.3330078125 c 0
555.555664062 77.77734375 m 0
 555.555664062 108.459960938 580.428710938 133.333007812 611.111328125 133.333007812 c 0
 641.793945312 133.333007812 666.666992188 108.459960938 666.666992188 77.77734375 c 0
 666.666992188 47.095703125 641.793945312 22.22265625 611.111328125 22.22265625 c 0
 580.428710938 22.22265625 555.555664062 47.095703125 555.555664062 77.77734375 c 0
555.555664062 188.888671875 m 0
 555.555664062 219.571289062 580.428710938 244.444335938 611.111328125 244.444335938 c 0
 641.793945312 244.444335938 666.666992188 219.571289062 666.666992188 188.888671875 c 0
 666.666992188 158.206054688 641.793945312 133.333007812 611.111328125 133.333007812 c 0
 580.428710938 133.333007812 555.555664062 158.206054688 555.555664062 188.888671875 c 0
555.555664062 411.111328125 m 0
 555.555664062 441.793945312 580.428710938 466.666992188 611.111328125 466.666992188 c 0
 641.793945312 466.666992188 666.666992188 441.793945312 666.666992188 411.111328125 c 0
 666.666992188 380.428710938 641.793945312 355.555664062 611.111328125 355.555664062 c 0
 580.428710938 355.555664062 555.555664062 380.428710938 555.555664062 411.111328125 c 0
555.555664062 522.22265625 m 0
 555.555664062 552.904296875 580.428710938 577.77734375 611.111328125 577.77734375 c 0
 641.793945312 577.77734375 666.666992188 552.904296875 666.666992188 522.22265625 c 0
 666.666992188 491.540039062 641.793945312 466.666992188 611.111328125 466.666992188 c 0
 580.428710938 466.666992188 555.555664062 491.540039062 555.555664062 522.22265625 c 0
555.555664062 633.333007812 m 0
 555.555664062 664.015625 580.428710938 688.888671875 611.111328125 688.888671875 c 0
 641.793945312 688.888671875 666.666992188 664.015625 666.666992188 633.333007812 c 0
 666.666992188 602.650390625 641.793945312 577.77734375 611.111328125 577.77734375 c 0
 580.428710938 577.77734375 555.555664062 602.650390625 555.555664062 633.333007812 c 0
444.444335938 744.444335938 m 0
 444.444335938 775.126953125 469.317382812 800 500 800 c 0
 530.682617188 800 555.555664062 775.126953125 555.555664062 744.444335938 c 0
 555.555664062 713.76171875 530.682617188 688.888671875 500 688.888671875 c 0
 469.317382812 688.888671875 444.444335938 713.76171875 444.444335938 744.444335938 c 0
333.333007812 744.444335938 m 0
 333.333007812 775.126953125 358.206054688 800 388.888671875 800 c 0
 419.571289062 800 444.444335938 775.126953125 444.444335938 744.444335938 c 0
 444.444335938 713.76171875 419.571289062 688.888671875 388.888671875 688.888671875 c 0
 358.206054688 688.888671875 333.333007812 713.76171875 333.333007812 744.444335938 c 0
222.22265625 744.444335938 m 0
 222.22265625 775.126953125 247.095703125 800 277.77734375 800 c 0
 308.459960938 800 333.333007812 775.126953125 333.333007812 744.444335938 c 0
 333.333007812 713.76171875 308.459960938 688.888671875 277.77734375 688.888671875 c 0
 247.095703125 688.888671875 222.22265625 713.76171875 222.22265625 744.444335938 c 0
111.111328125 744.444335938 m 0
 111.111328125 775.126953125 135.984375 800 166.666992188 800 c 0
 197.349609375 800 222.22265625 775.126953125 222.22265625 744.444335938 c 0
 222.22265625 713.76171875 197.349609375 688.888671875 166.666992188 688.888671875 c 0
 135.984375 688.888671875 111.111328125 713.76171875 111.111328125 744.444335938 c 0
111.111328125 300 m 0
 111.111328125 330.682617188 135.984375 355.555664062 166.666992188 355.555664062 c 0
 197.349609375 355.555664062 222.22265625 330.682617188 222.22265625 300 c 0
 222.22265625 269.317382812 197.349609375 244.444335938 166.666992188 244.444335938 c 0
 135.984375 244.444335938 111.111328125 269.317382812 111.111328125 300 c 0
222.22265625 300 m 0
 222.22265625 330.682617188 247.095703125 355.555664062 277.77734375 355.555664062 c 0
 308.459960938 355.555664062 333.333007812 330.682617188 333.333007812 300 c 0
 333.333007812 269.317382812 308.459960938 244.444335938 277.77734375 244.444335938 c 0
 247.095703125 244.444335938 222.22265625 269.317382812 222.22265625 300 c 0
333.333007812 300 m 0
 333.333007812 330.682617188 358.206054688 355.555664062 388.888671875 355.555664062 c 0
 419.571289062 355.555664062 444.444335938 330.682617188 444.444335938 300 c 0
 444.444335938 269.317382812 419.571289062 244.444335938 388.888671875 244.444335938 c 0
 358.206054688 244.444335938 333.333007812 269.317382812 333.333007812 300 c 0
444.444335938 300 m 0
 444.444335938 330.682617188 469.317382812 355.555664062 500 355.555664062 c 0
 530.682617188 355.555664062 555.555664062 330.682617188 555.555664062 300 c 0
 555.555664062 269.317382812 530.682617188 244.444335938 500 244.444335938 c 0
 469.317382812 244.444335938 444.444335938 269.317382812 444.444335938 300 c 0
0 522.22265625 m 0
 0 552.904296875 24.873046875 577.77734375 55.5556640625 577.77734375 c 0
 86.23828125 577.77734375 111.111328125 552.904296875 111.111328125 522.22265625 c 0
 111.111328125 491.540039062 86.23828125 466.666992188 55.5556640625 466.666992188 c 0
 24.873046875 466.666992188 0 491.540039062 0 522.22265625 c 0
EndSplineSet
Validated: 524293
EndChar

StartChar: R
Encoding: 82 82 2
Width: 777
VWidth: 0
Flags: HW
LayerCount: 2
Fore
SplineSet
0 744.444335938 m 0
 0 775.126953125 24.873046875 800 55.5556640625 800 c 0
 86.23828125 800 111.111328125 775.126953125 111.111328125 744.444335938 c 0
 111.111328125 713.76171875 86.23828125 688.888671875 55.5556640625 688.888671875 c 0
 24.873046875 688.888671875 0 713.76171875 0 744.444335938 c 0
111.111328125 744.444335938 m 0
 111.111328125 775.126953125 135.984375 800 166.666992188 800 c 0
 197.349609375 800 222.22265625 775.126953125 222.22265625 744.444335938 c 0
 222.22265625 713.76171875 197.349609375 688.888671875 166.666992188 688.888671875 c 0
 135.984375 688.888671875 111.111328125 713.76171875 111.111328125 744.444335938 c 0
222.22265625 744.444335938 m 0
 222.22265625 775.126953125 247.095703125 800 277.77734375 800 c 0
 308.459960938 800 333.333007812 775.126953125 333.333007812 744.444335938 c 0
 333.333007812 713.76171875 308.459960938 688.888671875 277.77734375 688.888671875 c 0
 247.095703125 688.888671875 222.22265625 713.76171875 222.22265625 744.444335938 c 0
333.333007812 744.444335938 m 0
 333.333007812 775.126953125 358.206054688 800 388.888671875 800 c 0
 419.571289062 800 444.444335938 775.126953125 444.444335938 744.444335938 c 0
 444.444335938 713.76171875 419.571289062 688.888671875 388.888671875 688.888671875 c 0
 358.206054688 688.888671875 333.333007812 713.76171875 333.333007812 744.444335938 c 0
444.444335938 744.444335938 m 0
 444.444335938 775.126953125 469.317382812 800 500 800 c 0
 530.682617188 800 555.555664062 775.126953125 555.555664062 744.444335938 c 0
 555.555664062 713.76171875 530.682617188 688.888671875 500 688.888671875 c 0
 469.317382812 688.888671875 444.444335938 713.76171875 444.444335938 744.444335938 c 0
555.555664062 633.333007812 m 0
 555.555664062 664.015625 580.428710938 688.888671875 611.111328125 688.888671875 c 0
 641.793945312 688.888671875 666.666992188 664.015625 666.666992188 633.333007812 c 0
 666.666992188 602.650390625 641.793945312 577.77734375 611.111328125 577.77734375 c 0
 580.428710938 577.77734375 555.555664062 602.650390625 555.555664062 633.333007812 c 0
555.555664062 522.22265625 m 0
 555.555664062 552.904296875 580.428710938 577.77734375 611.111328125 577.77734375 c 0
 641.793945312 577.77734375 666.666992188 552.904296875 666.666992188 522.22265625 c 0
 666.666992188 491.540039062 641.793945312 466.666992188 611.111328125 466.666992188 c 0
 580.428710938 466.666992188 555.555664062 491.540039062 555.555664062 522.22265625 c 0
555.555664062 411.111328125 m 0
 555.555664062 441.793945312 580.428710938 466.666992188 611.111328125 466.666992188 c 0
 641.793945312 466.666992188 666.666992188 441.793945312 666.666992188 411.111328125 c 0
 666.666992188 380.428710938 641.793945312 355.555664062 611.111328125 355.555664062 c 0
 580.428710938 355.555664062 555.555664062 380.428710938 555.555664062 411.111328125 c 0
0 411.111328125 m 0
 0 441.793945312 24.873046875 466.666992188 55.5556640625 466.666992188 c 0
 86.23828125 466.666992188 111.111328125 441.793945312 111.111328125 411.111328125 c 0
 111.111328125 380.428710938 86.23828125 355.555664062 55.5556640625 355.555664062 c 0
 24.873046875 355.555664062 0 380.428710938 0 411.111328125 c 0
0 522.22265625 m 0
 0 552.904296875 24.873046875 577.77734375 55.5556640625 577.77734375 c 0
 86.23828125 577.77734375 111.111328125 552.904296875 111.111328125 522.22265625 c 0
 111.111328125 491.540039062 86.23828125 466.666992188 55.5556640625 466.666992188 c 0
 24.873046875 466.666992188 0 491.540039062 0 522.22265625 c 0
0 633.333007812 m 0
 0 664.015625 24.873046875 688.888671875 55.5556640625 688.888671875 c 0
 86.23828125 688.888671875 111.111328125 664.015625 111.111328125 633.333007812 c 0
 111.111328125 602.650390625 86.23828125 577.77734375 55.5556640625 577.77734375 c 0
 24.873046875 577.77734375 0 602.650390625 0 633.333007812 c 0
0 300 m 0
 0 330.682617188 24.873046875 355.555664062 55.5556640625 355.555664062 c 0
 86.23828125 355.555664062 111.111328125 330.682617188 111.111328125 300 c 0
 111.111328125 269.317382812 86.23828125 244.444335938 55.5556640625 244.444335938 c 0
 24.873046875 244.444335938 0 269.317382812 0 300 c 0
0 188.888671875 m 0
 0 219.571289062 24.873046875 244.444335938 55.5556640625 244.444335938 c 0
 86.23828125 244.444335938 111.111328125 219.571289062 111.111328125 188.888671875 c 0
 111.111328125 158.206054688 86.23828125 133.333007812 55.5556640625 133.333007812 c 0
 24.873046875 133.333007812 0 158.206054688 0 188.888671875 c 0
0 77.77734375 m 0
 0 108.459960938 24.873046875 133.333007812 55.5556640625 133.333007812 c 0
 86.23828125 133.333007812 111.111328125 108.459960938 111.111328125 77.77734375 c 0
 111.111328125 47.095703125 86.23828125 22.22265625 55.5556640625 22.22265625 c 0
 24.873046875 22.22265625 0 47.095703125 0 77.77734375 c 0
0 -33.3330078125 m 0
 0 -2.650390625 24.873046875 22.22265625 55.5556640625 22.22265625 c 0
 86.23828125 22.22265625 111.111328125 -2.650390625 111.111328125 -33.3330078125 c 0
 111.111328125 -64.015625 86.23828125 -88.888671875 55.5556640625 -88.888671875 c 0
 24.873046875 -88.888671875 0 -64.015625 0 -33.3330078125 c 0
0 -144.444335938 m 0
 0 -113.76171875 24.873046875 -88.888671875 55.5556640625 -88.888671875 c 0
 86.23828125 -88.888671875 111.111328125 -113.76171875 111.111328125 -144.444335938 c 0
 111.111328125 -175.126953125 86.23828125 -200 55.5556640625 -200 c 0
 24.873046875 -200 0 -175.126953125 0 -144.444335938 c 0
555.555664062 -144.444335938 m 0
 555.555664062 -113.76171875 580.428710938 -88.888671875 611.111328125 -88.888671875 c 0
 641.793945312 -88.888671875 666.666992188 -113.76171875 666.666992188 -144.444335938 c 0
 666.666992188 -175.126953125 641.793945312 -200 611.111328125 -200 c 0
 580.428710938 -200 555.555664062 -175.126953125 555.555664062 -144.444335938 c 0
444.444335938 -33.3330078125 m 0
 444.444335938 -2.650390625 469.317382812 22.22265625 500 22.22265625 c 0
 530.682617188 22.22265625 555.555664062 -2.650390625 555.555664062 -33.3330078125 c 0
 555.555664062 -64.015625 530.682617188 -88.888671875 500 -88.888671875 c 0
 469.317382812 -88.888671875 444.444335938 -64.015625 444.444335938 -33.3330078125 c 0
333.333007812 77.77734375 m 0
 333.333007812 108.459960938 358.206054688 133.333007812 388.888671875 133.333007812 c 0
 419.571289062 133.333007812 444.444335938 108.459960938 444.444335938 77.77734375 c 0
 444.444335938 47.095703125 419.571289062 22.22265625 388.888671875 22.22265625 c 0
 358.206054688 22.22265625 333.333007812 47.095703125 333.333007812 77.77734375 c 0
222.22265625 188.888671875 m 0
 222.22265625 219.571289062 247.095703125 244.444335938 277.77734375 244.444335938 c 0
 308.459960938 244.444335938 333.333007812 219.571289062 333.333007812 188.888671875 c 0
 333.333007812 158.206054688 308.459960938 133.333007812 277.77734375 133.333007812 c 0
 247.095703125 133.333007812 222.22265625 158.206054688 222.22265625 188.888671875 c 0
111.111328125 300 m 0
 111.111328125 330.682617188 135.984375 355.555664062 166.666992188 355.555664062 c 0
 197.349609375 355.555664062 222.22265625 330.682617188 222.22265625 300 c 0
 222.22265625 269.317382812 197.349609375 244.444335938 166.666992188 244.444335938 c 0
 135.984375 244.444335938 111.111328125 269.317382812 111.111328125 300 c 0
222.22265625 300 m 0
 222.22265625 330.682617188 247.095703125 355.555664062 277.77734375 355.555664062 c 0
 308.459960938 355.555664062 333.333007812 330.682617188 333.333007812 300 c 0
 333.333007812 269.317382812 308.459960938 244.444335938 277.77734375 244.444335938 c 0
 247.095703125 244.444335938 222.22265625 269.317382812 222.22265625 300 c 0
333.333007812 300 m 0
 333.333007812 330.682617188 358.206054688 355.555664062 388.888671875 355.555664062 c 0
 419.571289062 355.555664062 444.444335938 330.682617188 444.444335938 300 c 0
 444.444335938 269.317382812 419.571289062 244.444335938 388.888671875 244.444335938 c 0
 358.206054688 244.444335938 333.333007812 269.317382812 333.333007812 300 c 0
444.444335938 300 m 0
 444.444335938 330.682617188 469.317382812 355.555664062 500 355.555664062 c 0
 530.682617188 355.555664062 555.555664062 330.682617188 555.555664062 300 c 0
 555.555664062 269.317382812 530.682617188 244.444335938 500 244.444335938 c 0
 469.317382812 244.444335938 444.444335938 269.317382812 444.444335938 300 c 0
EndSplineSet
Validated: 524293
EndChar

StartChar: r
Encoding: 114 114 3
Width: 555
VWidth: 0
Flags: HW
LayerCount: 2
Fore
SplineSet
0 -33.3330078125 m 0
 0 -2.650390625 24.873046875 22.22265625 55.5556640625 22.22265625 c 0
 86.23828125 22.22265625 111.111328125 -2.650390625 111.111328125 -33.3330078125 c 0
 111.111328125 -64.015625 86.23828125 -88.888671875 55.5556640625 -88.888671875 c 0
 24.873046875 -88.888671875 0 -64.015625 0 -33.3330078125 c 0
0 77.77734375 m 0
 0 108.459960938 24.873046875 133.333007812 55.5556640625 133.333007812 c 0
 86.23828125 133.333007812 111.111328125 108.459960938 111.111328125 77.77734375 c 0
 111.111328125 47.095703125 86.23828125 22.22265625 55.5556640625 22.22265625 c 0
 24.873046875 22.22265625 0 47.095703125 0 77.77734375 c 0
0 188.888671875 m 0
 0 219.571289062 24.873046875 244.444335938 55.5556640625 244.444335938 c 0
 86.23828125 244.444335938 111.111328125 219.571289062 111.111328125 188.888671875 c 0
 111.111328125 158.206054688 86.23828125 133.333007812 55.5556640625 133.333007812 c 0
 24.873046875 133.333007812 0 158.206054688 0 188.888671875 c 0
0 300 m 0
 0 330.682617188 24.873046875 355.555664062 55.5556640625 355.555664062 c 0
 86.23828125 355.555664062 111.111328125 330.682617188 111.111328125 300 c 0
 111.111328125 269.317382812 86.23828125 244.444335938 55.5556640625 244.444335938 c 0
 24.873046875 244.444335938 0 269.317382812 0 300 c 0
0 411.111328125 m 0
 0 441.793945312 24.873046875 466.666992188 55.5556640625 466.666992188 c 0
 86.23828125 466.666992188 111.111328125 441.793945312 111.111328125 411.111328125 c 0
 111.111328125 380.428710938 86.23828125 355.555664062 55.5556640625 355.555664062 c 0
 24.873046875 355.555664062 0 380.428710938 0 411.111328125 c 0
111.111328125 411.111328125 m 0
 111.111328125 441.793945312 135.984375 466.666992188 166.666992188 466.666992188 c 0
 197.349609375 466.666992188 222.22265625 441.793945312 222.22265625 411.111328125 c 0
 222.22265625 380.428710938 197.349609375 355.555664062 166.666992188 355.555664062 c 0
 135.984375 355.555664062 111.111328125 380.428710938 111.111328125 411.111328125 c 0
222.22265625 522.22265625 m 0
 222.22265625 552.904296875 247.095703125 577.77734375 277.77734375 577.77734375 c 0
 308.459960938 577.77734375 333.333007812 552.904296875 333.333007812 522.22265625 c 0
 333.333007812 491.540039062 308.459960938 466.666992188 277.77734375 466.666992188 c 0
 247.095703125 466.666992188 222.22265625 491.540039062 222.22265625 522.22265625 c 0
333.333007812 522.22265625 m 0
 333.333007812 552.904296875 358.206054688 577.77734375 388.888671875 577.77734375 c 0
 419.571289062 577.77734375 444.444335938 552.904296875 444.444335938 522.22265625 c 0
 444.444335938 491.540039062 419.571289062 466.666992188 388.888671875 466.666992188 c 0
 358.206054688 466.666992188 333.333007812 491.540039062 333.333007812 522.22265625 c 0
0 522.22265625 m 0
 0 552.904296875 24.873046875 577.77734375 55.5556640625 577.77734375 c 0
 86.23828125 577.77734375 111.111328125 552.904296875 111.111328125 522.22265625 c 0
 111.111328125 491.540039062 86.23828125 466.666992188 55.5556640625 466.666992188 c 0
 24.873046875 466.666992188 0 491.540039062 0 522.22265625 c 0
EndSplineSet
Validated: 524293
EndChar

StartChar: o
Encoding: 111 111 4
Width: 666
VWidth: 0
Flags: HW
LayerCount: 2
Fore
SplineSet
111.111328125 -33.3330078125 m 0
 111.111328125 -2.650390625 135.984375 22.22265625 166.666992188 22.22265625 c 0
 197.349609375 22.22265625 222.22265625 -2.650390625 222.22265625 -33.3330078125 c 0
 222.22265625 -64.015625 197.349609375 -88.888671875 166.666992188 -88.888671875 c 0
 135.984375 -88.888671875 111.111328125 -64.015625 111.111328125 -33.3330078125 c 0
222.22265625 -33.3330078125 m 0
 222.22265625 -2.650390625 247.095703125 22.22265625 277.77734375 22.22265625 c 0
 308.459960938 22.22265625 333.333007812 -2.650390625 333.333007812 -33.3330078125 c 0
 333.333007812 -64.015625 308.459960938 -88.888671875 277.77734375 -88.888671875 c 0
 247.095703125 -88.888671875 222.22265625 -64.015625 222.22265625 -33.3330078125 c 0
333.333007812 -33.3330078125 m 0
 333.333007812 -2.650390625 358.206054688 22.22265625 388.888671875 22.22265625 c 0
 419.571289062 22.22265625 444.444335938 -2.650390625 444.444335938 -33.3330078125 c 0
 444.444335938 -64.015625 419.571289062 -88.888671875 388.888671875 -88.888671875 c 0
 358.206054688 -88.888671875 333.333007812 -64.015625 333.333007812 -33.3330078125 c 0
0 77.77734375 m 0
 0 108.459960938 24.873046875 133.333007812 55.5556640625 133.333007812 c 0
 86.23828125 133.333007812 111.111328125 108.459960938 111.111328125 77.77734375 c 0
 111.111328125 47.095703125 86.23828125 22.22265625 55.5556640625 22.22265625 c 0
 24.873046875 22.22265625 0 47.095703125 0 77.77734375 c 0
0 188.888671875 m 0
 0 219.571289062 24.873046875 244.444335938 55.5556640625 244.444335938 c 0
 86.23828125 244.444335938 111.111328125 219.571289062 111.111328125 188.888671875 c 0
 111.111328125 158.206054688 86.23828125 133.333007812 55.5556640625 133.333007812 c 0
 24.873046875 133.333007812 0 158.206054688 0 188.888671875 c 0
0 300 m 0
 0 330.682617188 24.873046875 355.555664062 55.5556640625 355.555664062 c 0
 86.23828125 355.555664062 111.111328125 330.682617188 111.111328125 300 c 0
 111.111328125 269.317382812 86.23828125 244.444335938 55.5556640625 244.444335938 c 0
 24.873046875 244.444335938 0 269.317382812 0 300 c 0
0 411.111328125 m 0
 0 441.793945312 24.873046875 466.666992188 55.5556640625 466.666992188 c 0
 86.23828125 466.666992188 111.111328125 441.793945312 111.111328125 411.111328125 c 4
 111.111328125 380.428710938 86.23828125 355.555664062 55.5556640625 355.555664062 c 0
 24.873046875 355.555664062 0 380.428710938 0 411.111328125 c 0
111.111328125 522.22265625 m 0
 111.111328125 552.904296875 135.984375 577.77734375 166.666992188 577.77734375 c 0
 197.349609375 577.77734375 222.22265625 552.904296875 222.22265625 522.22265625 c 0
 222.22265625 491.540039062 197.349609375 466.666992188 166.666992188 466.666992188 c 0
 135.984375 466.666992188 111.111328125 491.540039062 111.111328125 522.22265625 c 0
222.22265625 522.22265625 m 0
 222.22265625 552.904296875 247.095703125 577.77734375 277.77734375 577.77734375 c 0
 308.459960938 577.77734375 333.333007812 552.904296875 333.333007812 522.22265625 c 0
 333.333007812 491.540039062 308.459960938 466.666992188 277.77734375 466.666992188 c 0
 247.095703125 466.666992188 222.22265625 491.540039062 222.22265625 522.22265625 c 0
333.333007812 522.22265625 m 0
 333.333007812 552.904296875 358.206054688 577.77734375 388.888671875 577.77734375 c 0
 419.571289062 577.77734375 444.444335938 552.904296875 444.444335938 522.22265625 c 0
 444.444335938 491.540039062 419.571289062 466.666992188 388.888671875 466.666992188 c 0
 358.206054688 466.666992188 333.333007812 491.540039062 333.333007812 522.22265625 c 0
444.444335938 411.111328125 m 0
 444.444335938 441.793945312 469.317382812 466.666992188 500 466.666992188 c 0
 530.682617188 466.666992188 555.555664062 441.793945312 555.555664062 411.111328125 c 0
 555.555664062 380.428710938 530.682617188 355.555664062 500 355.555664062 c 0
 469.317382812 355.555664062 444.444335938 380.428710938 444.444335938 411.111328125 c 0
444.444335938 300 m 0
 444.444335938 330.682617188 469.317382812 355.555664062 500 355.555664062 c 0
 530.682617188 355.555664062 555.555664062 330.682617188 555.555664062 300 c 0
 555.555664062 269.317382812 530.682617188 244.444335938 500 244.444335938 c 0
 469.317382812 244.444335938 444.444335938 269.317382812 444.444335938 300 c 0
444.444335938 188.888671875 m 0
 444.444335938 219.571289062 469.317382812 244.444335938 500 244.444335938 c 0
 530.682617188 244.444335938 555.555664062 219.571289062 555.555664062 188.888671875 c 0
 555.555664062 158.206054688 530.682617188 133.333007812 500 133.333007812 c 0
 469.317382812 133.333007812 444.444335938 158.206054688 444.444335938 188.888671875 c 0
444.444335938 77.77734375 m 0
 444.444335938 108.459960938 469.317382812 133.333007812 500 133.333007812 c 0
 530.682617188 133.333007812 555.555664062 108.459960938 555.555664062 77.77734375 c 0
 555.555664062 47.095703125 530.682617188 22.22265625 500 22.22265625 c 0
 469.317382812 22.22265625 444.444335938 47.095703125 444.444335938 77.77734375 c 0
EndSplineSet
Validated: 524293
EndChar

StartChar: a
Encoding: 97 97 5
Width: 666
VWidth: 0
Flags: HW
LayerCount: 2
Fore
SplineSet
0 77.77734375 m 0
 0 108.459960938 24.873046875 133.333007812 55.5556640625 133.333007812 c 0
 86.23828125 133.333007812 111.111328125 108.459960938 111.111328125 77.77734375 c 0
 111.111328125 47.095703125 86.23828125 22.22265625 55.5556640625 22.22265625 c 0
 24.873046875 22.22265625 0 47.095703125 0 77.77734375 c 0
0 188.888671875 m 0
 0 219.571289062 24.873046875 244.444335938 55.5556640625 244.444335938 c 0
 86.23828125 244.444335938 111.111328125 219.571289062 111.111328125 188.888671875 c 0
 111.111328125 158.206054688 86.23828125 133.333007812 55.5556640625 133.333007812 c 0
 24.873046875 133.333007812 0 158.206054688 0 188.888671875 c 0
111.111328125 -33.3330078125 m 0
 111.111328125 -2.650390625 135.984375 22.22265625 166.666992188 22.22265625 c 0
 197.349609375 22.22265625 222.22265625 -2.650390625 222.22265625 -33.3330078125 c 0
 222.22265625 -64.015625 197.349609375 -88.888671875 166.666992188 -88.888671875 c 0
 135.984375 -88.888671875 111.111328125 -64.015625 111.111328125 -33.3330078125 c 0
222.22265625 -33.3330078125 m 0
 222.22265625 -2.650390625 247.095703125 22.22265625 277.77734375 22.22265625 c 0
 308.459960938 22.22265625 333.333007812 -2.650390625 333.333007812 -33.3330078125 c 0
 333.333007812 -64.015625 308.459960938 -88.888671875 277.77734375 -88.888671875 c 0
 247.095703125 -88.888671875 222.22265625 -64.015625 222.22265625 -33.3330078125 c 0
333.333007812 -33.3330078125 m 0
 333.333007812 -2.650390625 358.206054688 22.22265625 388.888671875 22.22265625 c 0
 419.571289062 22.22265625 444.444335938 -2.650390625 444.444335938 -33.3330078125 c 0
 444.444335938 -64.015625 419.571289062 -88.888671875 388.888671875 -88.888671875 c 0
 358.206054688 -88.888671875 333.333007812 -64.015625 333.333007812 -33.3330078125 c 0
444.444335938 -33.3330078125 m 0
 444.444335938 -2.650390625 469.317382812 22.22265625 500 22.22265625 c 0
 530.682617188 22.22265625 555.555664062 -2.650390625 555.555664062 -33.3330078125 c 0
 555.555664062 -64.015625 530.682617188 -88.888671875 500 -88.888671875 c 0
 469.317382812 -88.888671875 444.444335938 -64.015625 444.444335938 -33.3330078125 c 0
444.444335938 77.77734375 m 0
 444.444335938 108.459960938 469.317382812 133.333007812 500 133.333007812 c 0
 530.682617188 133.333007812 555.555664062 108.459960938 555.555664062 77.77734375 c 0
 555.555664062 47.095703125 530.682617188 22.22265625 500 22.22265625 c 0
 469.317382812 22.22265625 444.444335938 47.095703125 444.444335938 77.77734375 c 0
444.444335938 188.888671875 m 0
 444.444335938 219.571289062 469.317382812 244.444335938 500 244.444335938 c 0
 530.682617188 244.444335938 555.555664062 219.571289062 555.555664062 188.888671875 c 0
 555.555664062 158.206054688 530.682617188 133.333007812 500 133.333007812 c 0
 469.317382812 133.333007812 444.444335938 158.206054688 444.444335938 188.888671875 c 0
444.444335938 300 m 0
 444.444335938 330.682617188 469.317382812 355.555664062 500 355.555664062 c 0
 530.682617188 355.555664062 555.555664062 330.682617188 555.555664062 300 c 0
 555.555664062 269.317382812 530.682617188 244.444335938 500 244.444335938 c 0
 469.317382812 244.444335938 444.444335938 269.317382812 444.444335938 300 c 0
333.333007812 300 m 0
 333.333007812 330.682617188 358.206054688 355.555664062 388.888671875 355.555664062 c 0
 419.571289062 355.555664062 444.444335938 330.682617188 444.444335938 300 c 0
 444.444335938 269.317382812 419.571289062 244.444335938 388.888671875 244.444335938 c 0
 358.206054688 244.444335938 333.333007812 269.317382812 333.333007812 300 c 0
222.22265625 300 m 0
 222.22265625 330.682617188 247.095703125 355.555664062 277.77734375 355.555664062 c 0
 308.459960938 355.555664062 333.333007812 330.682617188 333.333007812 300 c 0
 333.333007812 269.317382812 308.459960938 244.444335938 277.77734375 244.444335938 c 0
 247.095703125 244.444335938 222.22265625 269.317382812 222.22265625 300 c 0
111.111328125 300 m 0
 111.111328125 330.682617188 135.984375 355.555664062 166.666992188 355.555664062 c 0
 197.349609375 355.555664062 222.22265625 330.682617188 222.22265625 300 c 0
 222.22265625 269.317382812 197.349609375 244.444335938 166.666992188 244.444335938 c 0
 135.984375 244.444335938 111.111328125 269.317382812 111.111328125 300 c 0
444.444335938 411.111328125 m 0
 444.444335938 441.793945312 469.317382812 466.666992188 500 466.666992188 c 0
 530.682617188 466.666992188 555.555664062 441.793945312 555.555664062 411.111328125 c 0
 555.555664062 380.428710938 530.682617188 355.555664062 500 355.555664062 c 0
 469.317382812 355.555664062 444.444335938 380.428710938 444.444335938 411.111328125 c 0
333.333007812 522.22265625 m 0
 333.333007812 552.904296875 358.206054688 577.77734375 388.888671875 577.77734375 c 0
 419.571289062 577.77734375 444.444335938 552.904296875 444.444335938 522.22265625 c 0
 444.444335938 491.540039062 419.571289062 466.666992188 388.888671875 466.666992188 c 0
 358.206054688 466.666992188 333.333007812 491.540039062 333.333007812 522.22265625 c 0
222.22265625 522.22265625 m 0
 222.22265625 552.904296875 247.095703125 577.77734375 277.77734375 577.77734375 c 0
 308.459960938 577.77734375 333.333007812 552.904296875 333.333007812 522.22265625 c 0
 333.333007812 491.540039062 308.459960938 466.666992188 277.77734375 466.666992188 c 0
 247.095703125 466.666992188 222.22265625 491.540039062 222.22265625 522.22265625 c 0
111.111328125 522.22265625 m 0
 111.111328125 552.904296875 135.984375 577.77734375 166.666992188 577.77734375 c 0
 197.349609375 577.77734375 222.22265625 552.904296875 222.22265625 522.22265625 c 0
 222.22265625 491.540039062 197.349609375 466.666992188 166.666992188 466.666992188 c 0
 135.984375 466.666992188 111.111328125 491.540039062 111.111328125 522.22265625 c 0
EndSplineSet
Validated: 524293
EndChar

StartChar: d
Encoding: 100 100 6
Width: 666
VWidth: 0
Flags: HW
LayerCount: 2
Fore
SplineSet
111.111328125 -33.3330078125 m 0
 111.111328125 -2.650390625 135.984375 22.22265625 166.666992188 22.22265625 c 0
 197.349609375 22.22265625 222.22265625 -2.650390625 222.22265625 -33.3330078125 c 0
 222.22265625 -64.015625 197.349609375 -88.888671875 166.666992188 -88.888671875 c 0
 135.984375 -88.888671875 111.111328125 -64.015625 111.111328125 -33.3330078125 c 0
222.22265625 -33.3330078125 m 0
 222.22265625 -2.650390625 247.095703125 22.22265625 277.77734375 22.22265625 c 0
 308.459960938 22.22265625 333.333007812 -2.650390625 333.333007812 -33.3330078125 c 0
 333.333007812 -64.015625 308.459960938 -88.888671875 277.77734375 -88.888671875 c 0
 247.095703125 -88.888671875 222.22265625 -64.015625 222.22265625 -33.3330078125 c 0
333.333007812 -33.3330078125 m 0
 333.333007812 -2.650390625 358.206054688 22.22265625 388.888671875 22.22265625 c 0
 419.571289062 22.22265625 444.444335938 -2.650390625 444.444335938 -33.3330078125 c 0
 444.444335938 -64.015625 419.571289062 -88.888671875 388.888671875 -88.888671875 c 0
 358.206054688 -88.888671875 333.333007812 -64.015625 333.333007812 -33.3330078125 c 0
444.444335938 -33.3330078125 m 0
 444.444335938 -2.650390625 469.317382812 22.22265625 500 22.22265625 c 0
 530.682617188 22.22265625 555.555664062 -2.650390625 555.555664062 -33.3330078125 c 0
 555.555664062 -64.015625 530.682617188 -88.888671875 500 -88.888671875 c 0
 469.317382812 -88.888671875 444.444335938 -64.015625 444.444335938 -33.3330078125 c 0
444.444335938 77.77734375 m 0
 444.444335938 108.459960938 469.317382812 133.333007812 500 133.333007812 c 0
 530.682617188 133.333007812 555.555664062 108.459960938 555.555664062 77.77734375 c 0
 555.555664062 47.095703125 530.682617188 22.22265625 500 22.22265625 c 0
 469.317382812 22.22265625 444.444335938 47.095703125 444.444335938 77.77734375 c 0
444.444335938 188.888671875 m 0
 444.444335938 219.571289062 469.317382812 244.444335938 500 244.444335938 c 0
 530.682617188 244.444335938 555.555664062 219.571289062 555.555664062 188.888671875 c 0
 555.555664062 158.206054688 530.682617188 133.333007812 500 133.333007812 c 0
 469.317382812 133.333007812 444.444335938 158.206054688 444.444335938 188.888671875 c 0
444.444335938 300 m 0
 444.444335938 330.682617188 469.317382812 355.555664062 500 355.555664062 c 0
 530.682617188 355.555664062 555.555664062 330.682617188 555.555664062 300 c 0
 555.555664062 269.317382812 530.682617188 244.444335938 500 244.444335938 c 0
 469.317382812 244.444335938 444.444335938 269.317382812 444.444335938 300 c 0
444.444335938 411.111328125 m 0
 444.444335938 441.793945312 469.317382812 466.666992188 500 466.666992188 c 0
 530.682617188 466.666992188 555.555664062 441.793945312 555.555664062 411.111328125 c 0
 555.555664062 380.428710938 530.682617188 355.555664062 500 355.555664062 c 0
 469.317382812 355.555664062 444.444335938 380.428710938 444.444335938 411.111328125 c 0
444.444335938 522.22265625 m 0
 444.444335938 552.904296875 469.317382812 577.77734375 500 577.77734375 c 0
 530.682617188 577.77734375 555.555664062 552.904296875 555.555664062 522.22265625 c 0
 555.555664062 491.540039062 530.682617188 466.666992188 500 466.666992188 c 0
 469.317382812 466.666992188 444.444335938 491.540039062 444.444335938 522.22265625 c 0
444.444335938 633.333007812 m 0
 444.444335938 664.015625 469.317382812 688.888671875 500 688.888671875 c 0
 530.682617188 688.888671875 555.555664062 664.015625 555.555664062 633.333007812 c 0
 555.555664062 602.650390625 530.682617188 577.77734375 500 577.77734375 c 0
 469.317382812 577.77734375 444.444335938 602.650390625 444.444335938 633.333007812 c 0
444.444335938 744.444335938 m 0
 444.444335938 775.126953125 469.317382812 800 500 800 c 0
 530.682617188 800 555.555664062 775.126953125 555.555664062 744.444335938 c 0
 555.555664062 713.76171875 530.682617188 688.888671875 500 688.888671875 c 0
 469.317382812 688.888671875 444.444335938 713.76171875 444.444335938 744.444335938 c 0
333.333007812 522.22265625 m 0
 333.333007812 552.904296875 358.206054688 577.77734375 388.888671875 577.77734375 c 0
 419.571289062 577.77734375 444.444335938 552.904296875 444.444335938 522.22265625 c 0
 444.444335938 491.540039062 419.571289062 466.666992188 388.888671875 466.666992188 c 0
 358.206054688 466.666992188 333.333007812 491.540039062 333.333007812 522.22265625 c 0
222.22265625 522.22265625 m 0
 222.22265625 552.904296875 247.095703125 577.77734375 277.77734375 577.77734375 c 0
 308.459960938 577.77734375 333.333007812 552.904296875 333.333007812 522.22265625 c 0
 333.333007812 491.540039062 308.459960938 466.666992188 277.77734375 466.666992188 c 0
 247.095703125 466.666992188 222.22265625 491.540039062 222.22265625 522.22265625 c 0
111.111328125 522.22265625 m 0
 111.111328125 552.904296875 135.984375 577.77734375 166.666992188 577.77734375 c 0
 197.349609375 577.77734375 222.22265625 552.904296875 222.22265625 522.22265625 c 0
 222.22265625 491.540039062 197.349609375 466.666992188 166.666992188 466.666992188 c 0
 135.984375 466.666992188 111.111328125 491.540039062 111.111328125 522.22265625 c 0
0 411.111328125 m 0
 0 441.793945312 24.873046875 466.666992188 55.5556640625 466.666992188 c 0
 86.23828125 466.666992188 111.111328125 441.793945312 111.111328125 411.111328125 c 0
 111.111328125 380.428710938 86.23828125 355.555664062 55.5556640625 355.555664062 c 0
 24.873046875 355.555664062 0 380.428710938 0 411.111328125 c 0
0 300 m 0
 0 330.682617188 24.873046875 355.555664062 55.5556640625 355.555664062 c 0
 86.23828125 355.555664062 111.111328125 330.682617188 111.111328125 300 c 0
 111.111328125 269.317382812 86.23828125 244.444335938 55.5556640625 244.444335938 c 0
 24.873046875 244.444335938 0 269.317382812 0 300 c 0
0 188.888671875 m 0
 0 219.571289062 24.873046875 244.444335938 55.5556640625 244.444335938 c 0
 86.23828125 244.444335938 111.111328125 219.571289062 111.111328125 188.888671875 c 0
 111.111328125 158.206054688 86.23828125 133.333007812 55.5556640625 133.333007812 c 0
 24.873046875 133.333007812 0 158.206054688 0 188.888671875 c 0
0 77.77734375 m 0
 0 108.459960938 24.873046875 133.333007812 55.5556640625 133.333007812 c 0
 86.23828125 133.333007812 111.111328125 108.459960938 111.111328125 77.77734375 c 0
 111.111328125 47.095703125 86.23828125 22.22265625 55.5556640625 22.22265625 c 0
 24.873046875 22.22265625 0 47.095703125 0 77.77734375 c 0
EndSplineSet
Validated: 524293
EndChar

StartChar: w
Encoding: 119 119 7
Width: 888
VWidth: 0
Flags: HW
LayerCount: 2
Fore
SplineSet
0 522.22265625 m 0
 0 552.904296875 24.873046875 577.77734375 55.5556640625 577.77734375 c 0
 86.23828125 577.77734375 111.111328125 552.904296875 111.111328125 522.22265625 c 0
 111.111328125 491.540039062 86.23828125 466.666992188 55.5556640625 466.666992188 c 0
 24.873046875 466.666992188 0 491.540039062 0 522.22265625 c 0
0 411.111328125 m 0
 0 441.793945312 24.873046875 466.666992188 55.5556640625 466.666992188 c 0
 86.23828125 466.666992188 111.111328125 441.793945312 111.111328125 411.111328125 c 0
 111.111328125 380.428710938 86.23828125 355.555664062 55.5556640625 355.555664062 c 0
 24.873046875 355.555664062 0 380.428710938 0 411.111328125 c 0
0 300 m 0
 0 330.682617188 24.873046875 355.555664062 55.5556640625 355.555664062 c 0
 86.23828125 355.555664062 111.111328125 330.682617188 111.111328125 300 c 0
 111.111328125 269.317382812 86.23828125 244.444335938 55.5556640625 244.444335938 c 0
 24.873046875 244.444335938 0 269.317382812 0 300 c 0
0 188.888671875 m 0
 0 219.571289062 24.873046875 244.444335938 55.5556640625 244.444335938 c 0
 86.23828125 244.444335938 111.111328125 219.571289062 111.111328125 188.888671875 c 0
 111.111328125 158.206054688 86.23828125 133.333007812 55.5556640625 133.333007812 c 0
 24.873046875 133.333007812 0 158.206054688 0 188.888671875 c 0
0 77.77734375 m 0
 0 108.459960938 24.873046875 133.333007812 55.5556640625 133.333007812 c 0
 86.23828125 133.333007812 111.111328125 108.459960938 111.111328125 77.77734375 c 0
 111.111328125 47.095703125 86.23828125 22.22265625 55.5556640625 22.22265625 c 0
 24.873046875 22.22265625 0 47.095703125 0 77.77734375 c 0
111.111328125 -33.3330078125 m 0
 111.111328125 -2.650390625 135.984375 22.22265625 166.666992188 22.22265625 c 0
 197.349609375 22.22265625 222.22265625 -2.650390625 222.22265625 -33.3330078125 c 0
 222.22265625 -64.015625 197.349609375 -88.888671875 166.666992188 -88.888671875 c 0
 135.984375 -88.888671875 111.111328125 -64.015625 111.111328125 -33.3330078125 c 0
222.22265625 77.77734375 m 0
 222.22265625 108.459960938 247.095703125 133.333007812 277.77734375 133.333007812 c 0
 308.459960938 133.333007812 333.333007812 108.459960938 333.333007812 77.77734375 c 0
 333.333007812 47.095703125 308.459960938 22.22265625 277.77734375 22.22265625 c 0
 247.095703125 22.22265625 222.22265625 47.095703125 222.22265625 77.77734375 c 0
333.333007812 188.888671875 m 0
 333.333007812 219.571289062 358.206054688 244.444335938 388.888671875 244.444335938 c 0
 419.571289062 244.444335938 444.444335938 219.571289062 444.444335938 188.888671875 c 0
 444.444335938 158.206054688 419.571289062 133.333007812 388.888671875 133.333007812 c 0
 358.206054688 133.333007812 333.333007812 158.206054688 333.333007812 188.888671875 c 0
444.444335938 77.77734375 m 0
 444.444335938 108.459960938 469.317382812 133.333007812 500 133.333007812 c 0
 530.682617188 133.333007812 555.555664062 108.459960938 555.555664062 77.77734375 c 0
 555.555664062 47.095703125 530.682617188 22.22265625 500 22.22265625 c 0
 469.317382812 22.22265625 444.444335938 47.095703125 444.444335938 77.77734375 c 0
555.555664062 -33.3330078125 m 0
 555.555664062 -2.650390625 580.428710938 22.22265625 611.111328125 22.22265625 c 0
 641.793945312 22.22265625 666.666992188 -2.650390625 666.666992188 -33.3330078125 c 0
 666.666992188 -64.015625 641.793945312 -88.888671875 611.111328125 -88.888671875 c 0
 580.428710938 -88.888671875 555.555664062 -64.015625 555.555664062 -33.3330078125 c 0
666.666992188 77.77734375 m 0
 666.666992188 108.459960938 691.540039062 133.333007812 722.22265625 133.333007812 c 0
 752.904296875 133.333007812 777.77734375 108.459960938 777.77734375 77.77734375 c 0
 777.77734375 47.095703125 752.904296875 22.22265625 722.22265625 22.22265625 c 0
 691.540039062 22.22265625 666.666992188 47.095703125 666.666992188 77.77734375 c 0
666.666992188 188.888671875 m 0
 666.666992188 219.571289062 691.540039062 244.444335938 722.22265625 244.444335938 c 0
 752.904296875 244.444335938 777.77734375 219.571289062 777.77734375 188.888671875 c 0
 777.77734375 158.206054688 752.904296875 133.333007812 722.22265625 133.333007812 c 0
 691.540039062 133.333007812 666.666992188 158.206054688 666.666992188 188.888671875 c 0
666.666992188 300 m 0
 666.666992188 330.682617188 691.540039062 355.555664062 722.22265625 355.555664062 c 0
 752.904296875 355.555664062 777.77734375 330.682617188 777.77734375 300 c 0
 777.77734375 269.317382812 752.904296875 244.444335938 722.22265625 244.444335938 c 0
 691.540039062 244.444335938 666.666992188 269.317382812 666.666992188 300 c 0
666.666992188 411.111328125 m 0
 666.666992188 441.793945312 691.540039062 466.666992188 722.22265625 466.666992188 c 0
 752.904296875 466.666992188 777.77734375 441.793945312 777.77734375 411.111328125 c 0
 777.77734375 380.428710938 752.904296875 355.555664062 722.22265625 355.555664062 c 0
 691.540039062 355.555664062 666.666992188 380.428710938 666.666992188 411.111328125 c 0
666.666992188 522.22265625 m 0
 666.666992188 552.904296875 691.540039062 577.77734375 722.22265625 577.77734375 c 0
 752.904296875 577.77734375 777.77734375 552.904296875 777.77734375 522.22265625 c 0
 777.77734375 491.540039062 752.904296875 466.666992188 722.22265625 466.666992188 c 0
 691.540039062 466.666992188 666.666992188 491.540039062 666.666992188 522.22265625 c 0
EndSplineSet
Validated: 524293
EndChar

StartChar: y
Encoding: 121 121 8
Width: 666
VWidth: 0
Flags: HW
LayerCount: 2
Fore
SplineSet
0 550 m 0
 0 577.614257812 22.3857421875 600 50 600 c 0
 77.6142578125 600 100 577.614257812 100 550 c 0
 100 522.385742188 77.6142578125 500 50 500 c 0
 22.3857421875 500 0 522.385742188 0 550 c 0
0 450 m 0
 0 477.614257812 22.3857421875 500 50 500 c 0
 77.6142578125 500 100 477.614257812 100 450 c 0
 100 422.385742188 77.6142578125 400 50 400 c 0
 22.3857421875 400 0 422.385742188 0 450 c 0
0 350 m 0
 0 377.614257812 22.3857421875 400 50 400 c 0
 77.6142578125 400 100 377.614257812 100 350 c 0
 100 322.385742188 77.6142578125 300 50 300 c 0
 22.3857421875 300 0 322.385742188 0 350 c 0
0 250 m 0
 0 277.614257812 22.3857421875 300 50 300 c 0
 77.6142578125 300 100 277.614257812 100 250 c 0
 100 222.385742188 77.6142578125 200 50 200 c 0
 22.3857421875 200 0 222.385742188 0 250 c 0
0 150 m 0
 0 177.614257812 22.3857421875 200 50 200 c 0
 77.6142578125 200 100 177.614257812 100 150 c 0
 100 122.385742188 77.6142578125 100 50 100 c 0
 22.3857421875 100 0 122.385742188 0 150 c 0
400 550 m 0
 400 577.614257812 422.385742188 600 450 600 c 0
 477.614257812 600 500 577.614257812 500 550 c 0
 500 522.385742188 477.614257812 500 450 500 c 0
 422.385742188 500 400 522.385742188 400 550 c 0
400 450 m 0
 400 477.614257812 422.385742188 500 450 500 c 0
 477.614257812 500 500 477.614257812 500 450 c 0
 500 422.385742188 477.614257812 400 450 400 c 0
 422.385742188 400 400 422.385742188 400 450 c 0
400 350 m 0
 400 377.614257812 422.385742188 400 450 400 c 0
 477.614257812 400 500 377.614257812 500 350 c 0
 500 322.385742188 477.614257812 300 450 300 c 0
 422.385742188 300 400 322.385742188 400 350 c 0
400 250 m 0
 400 277.614257812 422.385742188 300 450 300 c 0
 477.614257812 300 500 277.614257812 500 250 c 0
 500 222.385742188 477.614257812 200 450 200 c 0
 422.385742188 200 400 222.385742188 400 250 c 0
400 150 m 0
 400 177.614257812 422.385742188 200 450 200 c 0
 477.614257812 200 500 177.614257812 500 150 c 0
 500 122.385742188 477.614257812 100 450 100 c 0
 422.385742188 100 400 122.385742188 400 150 c 0
100 50 m 0
 100 77.6142578125 122.385742188 100 150 100 c 0
 177.614257812 100 200 77.6142578125 200 50 c 0
 200 22.3857421875 177.614257812 0 150 0 c 0
 122.385742188 0 100 22.3857421875 100 50 c 0
200 50 m 0
 200 77.6142578125 222.385742188 100 250 100 c 0
 277.614257812 100 300 77.6142578125 300 50 c 0
 300 22.3857421875 277.614257812 0 250 0 c 0
 222.385742188 0 200 22.3857421875 200 50 c 0
300 50 m 0
 300 77.6142578125 322.385742188 100 350 100 c 0
 377.614257812 100 400 77.6142578125 400 50 c 0
 400 22.3857421875 377.614257812 0 350 0 c 0
 322.385742188 0 300 22.3857421875 300 50 c 0
400 50 m 0
 400 77.6142578125 422.385742188 100 450 100 c 0
 477.614257812 100 500 77.6142578125 500 50 c 0
 500 22.3857421875 477.614257812 0 450 0 c 0
 422.385742188 0 400 22.3857421875 400 50 c 0
400 -50 m 0
 400 -22.3857421875 422.385742188 0 450 0 c 0
 477.614257812 0 500 -22.3857421875 500 -50 c 0
 500 -77.6142578125 477.614257812 -100 450 -100 c 0
 422.385742188 -100 400 -77.6142578125 400 -50 c 0
300 -150 m 0
 300 -122.385742188 322.385742188 -100 350 -100 c 0
 377.614257812 -100 400 -122.385742188 400 -150 c 0
 400 -177.614257812 377.614257812 -200 350 -200 c 0
 322.385742188 -200 300 -177.614257812 300 -150 c 0
200 -150 m 0
 200 -122.385742188 222.385742188 -100 250 -100 c 0
 277.614257812 -100 300 -122.385742188 300 -150 c 0
 300 -177.614257812 277.614257812 -200 250 -200 c 0
 222.385742188 -200 200 -177.614257812 200 -150 c 0
100 -150 m 0
 100 -122.385742188 122.385742188 -100 150 -100 c 0
 177.614257812 -100 200 -122.385742188 200 -150 c 0
 200 -177.614257812 177.614257812 -200 150 -200 c 0
 122.385742188 -200 100 -177.614257812 100 -150 c 0
0 -150 m 0
 0 -122.385742188 22.3857421875 -100 50 -100 c 0
 77.6142578125 -100 100 -122.385742188 100 -150 c 0
 100 -177.614257812 77.6142578125 -200 50 -200 c 0
 22.3857421875 -200 0 -177.614257812 0 -150 c 0
EndSplineSet
Validated: 524293
EndChar

StartChar: i
Encoding: 105 105 9
Width: 222
VWidth: 0
Flags: HW
LayerCount: 2
Fore
SplineSet
0 -33.3330078125 m 0
 0 -2.650390625 24.873046875 22.22265625 55.5556640625 22.22265625 c 0
 86.23828125 22.22265625 111.111328125 -2.650390625 111.111328125 -33.3330078125 c 0
 111.111328125 -64.015625 86.23828125 -88.888671875 55.5556640625 -88.888671875 c 0
 24.873046875 -88.888671875 0 -64.015625 0 -33.3330078125 c 0
0 77.77734375 m 0
 0 108.459960938 24.873046875 133.333007812 55.5556640625 133.333007812 c 0
 86.23828125 133.333007812 111.111328125 108.459960938 111.111328125 77.77734375 c 0
 111.111328125 47.095703125 86.23828125 22.22265625 55.5556640625 22.22265625 c 0
 24.873046875 22.22265625 0 47.095703125 0 77.77734375 c 0
0 188.888671875 m 0
 0 219.571289062 24.873046875 244.444335938 55.5556640625 244.444335938 c 0
 86.23828125 244.444335938 111.111328125 219.571289062 111.111328125 188.888671875 c 0
 111.111328125 158.206054688 86.23828125 133.333007812 55.5556640625 133.333007812 c 0
 24.873046875 133.333007812 0 158.206054688 0 188.888671875 c 0
0 300 m 0
 0 330.682617188 24.873046875 355.555664062 55.5556640625 355.555664062 c 0
 86.23828125 355.555664062 111.111328125 330.682617188 111.111328125 300 c 0
 111.111328125 269.317382812 86.23828125 244.444335938 55.5556640625 244.444335938 c 0
 24.873046875 244.444335938 0 269.317382812 0 300 c 0
0 411.111328125 m 0
 0 441.793945312 24.873046875 466.666992188 55.5556640625 466.666992188 c 0
 86.23828125 466.666992188 111.111328125 441.793945312 111.111328125 411.111328125 c 0
 111.111328125 380.428710938 86.23828125 355.555664062 55.5556640625 355.555664062 c 0
 24.873046875 355.555664062 0 380.428710938 0 411.111328125 c 0
0 522.22265625 m 0
 0 552.904296875 24.873046875 577.77734375 55.5556640625 577.77734375 c 0
 86.23828125 577.77734375 111.111328125 552.904296875 111.111328125 522.22265625 c 0
 111.111328125 491.540039062 86.23828125 466.666992188 55.5556640625 466.666992188 c 0
 24.873046875 466.666992188 0 491.540039062 0 522.22265625 c 0
0 744.444335938 m 0
 0 775.126953125 24.873046875 800 55.5556640625 800 c 0
 86.23828125 800 111.111328125 775.126953125 111.111328125 744.444335938 c 0
 111.111328125 713.76171875 86.23828125 688.888671875 55.5556640625 688.888671875 c 0
 24.873046875 688.888671875 0 713.76171875 0 744.444335938 c 0
EndSplineSet
Validated: 524293
EndChar

StartChar: c
Encoding: 99 99 10
Width: 666
VWidth: 0
Flags: HW
LayerCount: 2
Fore
SplineSet
0 77.77734375 m 0
 0 108.459960938 24.873046875 133.333007812 55.5556640625 133.333007812 c 0
 86.23828125 133.333007812 111.111328125 108.459960938 111.111328125 77.77734375 c 0
 111.111328125 47.095703125 86.23828125 22.22265625 55.5556640625 22.22265625 c 0
 24.873046875 22.22265625 0 47.095703125 0 77.77734375 c 0
111.111328125 -33.3330078125 m 0
 111.111328125 -2.650390625 135.984375 22.22265625 166.666992188 22.22265625 c 0
 197.349609375 22.22265625 222.22265625 -2.650390625 222.22265625 -33.3330078125 c 0
 222.22265625 -64.015625 197.349609375 -88.888671875 166.666992188 -88.888671875 c 0
 135.984375 -88.888671875 111.111328125 -64.015625 111.111328125 -33.3330078125 c 0
222.22265625 -33.3330078125 m 0
 222.22265625 -2.650390625 247.095703125 22.22265625 277.77734375 22.22265625 c 0
 308.459960938 22.22265625 333.333007812 -2.650390625 333.333007812 -33.3330078125 c 0
 333.333007812 -64.015625 308.459960938 -88.888671875 277.77734375 -88.888671875 c 0
 247.095703125 -88.888671875 222.22265625 -64.015625 222.22265625 -33.3330078125 c 0
333.333007812 -33.3330078125 m 0
 333.333007812 -2.650390625 358.206054688 22.22265625 388.888671875 22.22265625 c 0
 419.571289062 22.22265625 444.444335938 -2.650390625 444.444335938 -33.3330078125 c 0
 444.444335938 -64.015625 419.571289062 -88.888671875 388.888671875 -88.888671875 c 0
 358.206054688 -88.888671875 333.333007812 -64.015625 333.333007812 -33.3330078125 c 0
444.444335938 77.77734375 m 0
 444.444335938 108.459960938 469.317382812 133.333007812 500 133.333007812 c 0
 530.682617188 133.333007812 555.555664062 108.459960938 555.555664062 77.77734375 c 0
 555.555664062 47.095703125 530.682617188 22.22265625 500 22.22265625 c 0
 469.317382812 22.22265625 444.444335938 47.095703125 444.444335938 77.77734375 c 0
0 188.888671875 m 0
 0 219.571289062 24.873046875 244.444335938 55.5556640625 244.444335938 c 0
 86.23828125 244.444335938 111.111328125 219.571289062 111.111328125 188.888671875 c 0
 111.111328125 158.206054688 86.23828125 133.333007812 55.5556640625 133.333007812 c 0
 24.873046875 133.333007812 0 158.206054688 0 188.888671875 c 0
222.22265625 522.22265625 m 0
 222.22265625 552.904296875 247.095703125 577.77734375 277.77734375 577.77734375 c 0
 308.459960938 577.77734375 333.333007812 552.904296875 333.333007812 522.22265625 c 0
 333.333007812 491.540039062 308.459960938 466.666992188 277.77734375 466.666992188 c 0
 247.095703125 466.666992188 222.22265625 491.540039062 222.22265625 522.22265625 c 0
333.333007812 522.22265625 m 0
 333.333007812 552.904296875 358.206054688 577.77734375 388.888671875 577.77734375 c 0
 419.571289062 577.77734375 444.444335938 552.904296875 444.444335938 522.22265625 c 0
 444.444335938 491.540039062 419.571289062 466.666992188 388.888671875 466.666992188 c 0
 358.206054688 466.666992188 333.333007812 491.540039062 333.333007812 522.22265625 c 0
444.444335938 411.111328125 m 0
 444.444335938 441.793945312 469.317382812 466.666992188 500 466.666992188 c 0
 530.682617188 466.666992188 555.555664062 441.793945312 555.555664062 411.111328125 c 0
 555.555664062 380.428710938 530.682617188 355.555664062 500 355.555664062 c 0
 469.317382812 355.555664062 444.444335938 380.428710938 444.444335938 411.111328125 c 0
0 300 m 0
 0 330.682617188 24.873046875 355.555664062 55.5556640625 355.555664062 c 0
 86.23828125 355.555664062 111.111328125 330.682617188 111.111328125 300 c 0
 111.111328125 269.317382812 86.23828125 244.444335938 55.5556640625 244.444335938 c 0
 24.873046875 244.444335938 0 269.317382812 0 300 c 0
0 411.111328125 m 0
 0 441.793945312 24.873046875 466.666992188 55.5556640625 466.666992188 c 0
 86.23828125 466.666992188 111.111328125 441.793945312 111.111328125 411.111328125 c 0
 111.111328125 380.428710938 86.23828125 355.555664062 55.5556640625 355.555664062 c 0
 24.873046875 355.555664062 0 380.428710938 0 411.111328125 c 0
111.111328125 522.22265625 m 0
 111.111328125 552.904296875 135.984375 577.77734375 166.666992188 577.77734375 c 0
 197.349609375 577.77734375 222.22265625 552.904296875 222.22265625 522.22265625 c 0
 222.22265625 491.540039062 197.349609375 466.666992188 166.666992188 466.666992188 c 0
 135.984375 466.666992188 111.111328125 491.540039062 111.111328125 522.22265625 c 0
EndSplineSet
Validated: 524293
EndChar

StartChar: h
Encoding: 104 104 11
Width: 666
VWidth: 0
Flags: HW
LayerCount: 2
Fore
SplineSet
0 744.444335938 m 0
 0 775.126953125 24.873046875 800 55.5556640625 800 c 0
 86.23828125 800 111.111328125 775.126953125 111.111328125 744.444335938 c 0
 111.111328125 713.76171875 86.23828125 688.888671875 55.5556640625 688.888671875 c 0
 24.873046875 688.888671875 0 713.76171875 0 744.444335938 c 0
0 633.333007812 m 0
 0 664.015625 24.873046875 688.888671875 55.5556640625 688.888671875 c 0
 86.23828125 688.888671875 111.111328125 664.015625 111.111328125 633.333007812 c 0
 111.111328125 602.650390625 86.23828125 577.77734375 55.5556640625 577.77734375 c 0
 24.873046875 577.77734375 0 602.650390625 0 633.333007812 c 0
0 522.22265625 m 0
 0 552.904296875 24.873046875 577.77734375 55.5556640625 577.77734375 c 0
 86.23828125 577.77734375 111.111328125 552.904296875 111.111328125 522.22265625 c 0
 111.111328125 491.540039062 86.23828125 466.666992188 55.5556640625 466.666992188 c 0
 24.873046875 466.666992188 0 491.540039062 0 522.22265625 c 0
0 411.111328125 m 0
 0 441.793945312 24.873046875 466.666992188 55.5556640625 466.666992188 c 0
 86.23828125 466.666992188 111.111328125 441.793945312 111.111328125 411.111328125 c 0
 111.111328125 380.428710938 86.23828125 355.555664062 55.5556640625 355.555664062 c 0
 24.873046875 355.555664062 0 380.428710938 0 411.111328125 c 0
0 300 m 0
 0 330.682617188 24.873046875 355.555664062 55.5556640625 355.555664062 c 0
 86.23828125 355.555664062 111.111328125 330.682617188 111.111328125 300 c 0
 111.111328125 269.317382812 86.23828125 244.444335938 55.5556640625 244.444335938 c 0
 24.873046875 244.444335938 0 269.317382812 0 300 c 0
0 188.888671875 m 0
 0 219.571289062 24.873046875 244.444335938 55.5556640625 244.444335938 c 0
 86.23828125 244.444335938 111.111328125 219.571289062 111.111328125 188.888671875 c 0
 111.111328125 158.206054688 86.23828125 133.333007812 55.5556640625 133.333007812 c 0
 24.873046875 133.333007812 0 158.206054688 0 188.888671875 c 0
0 77.77734375 m 0
 0 108.459960938 24.873046875 133.333007812 55.5556640625 133.333007812 c 0
 86.23828125 133.333007812 111.111328125 108.459960938 111.111328125 77.77734375 c 0
 111.111328125 47.095703125 86.23828125 22.22265625 55.5556640625 22.22265625 c 0
 24.873046875 22.22265625 0 47.095703125 0 77.77734375 c 0
0 -33.3330078125 m 0
 0 -2.650390625 24.873046875 22.22265625 55.5556640625 22.22265625 c 0
 86.23828125 22.22265625 111.111328125 -2.650390625 111.111328125 -33.3330078125 c 0
 111.111328125 -64.015625 86.23828125 -88.888671875 55.5556640625 -88.888671875 c 0
 24.873046875 -88.888671875 0 -64.015625 0 -33.3330078125 c 0
111.111328125 522.22265625 m 0
 111.111328125 552.904296875 135.984375 577.77734375 166.666992188 577.77734375 c 0
 197.349609375 577.77734375 222.22265625 552.904296875 222.22265625 522.22265625 c 0
 222.22265625 491.540039062 197.349609375 466.666992188 166.666992188 466.666992188 c 0
 135.984375 466.666992188 111.111328125 491.540039062 111.111328125 522.22265625 c 0
222.22265625 522.22265625 m 0
 222.22265625 552.904296875 247.095703125 577.77734375 277.77734375 577.77734375 c 0
 308.459960938 577.77734375 333.333007812 552.904296875 333.333007812 522.22265625 c 0
 333.333007812 491.540039062 308.459960938 466.666992188 277.77734375 466.666992188 c 0
 247.095703125 466.666992188 222.22265625 491.540039062 222.22265625 522.22265625 c 0
333.333007812 522.22265625 m 0
 333.333007812 552.904296875 358.206054688 577.77734375 388.888671875 577.77734375 c 0
 419.571289062 577.77734375 444.444335938 552.904296875 444.444335938 522.22265625 c 0
 444.444335938 491.540039062 419.571289062 466.666992188 388.888671875 466.666992188 c 0
 358.206054688 466.666992188 333.333007812 491.540039062 333.333007812 522.22265625 c 0
444.444335938 411.111328125 m 0
 444.444335938 441.793945312 469.317382812 466.666992188 500 466.666992188 c 0
 530.682617188 466.666992188 555.555664062 441.793945312 555.555664062 411.111328125 c 0
 555.555664062 380.428710938 530.682617188 355.555664062 500 355.555664062 c 0
 469.317382812 355.555664062 444.444335938 380.428710938 444.444335938 411.111328125 c 0
444.444335938 300 m 0
 444.444335938 330.682617188 469.317382812 355.555664062 500 355.555664062 c 0
 530.682617188 355.555664062 555.555664062 330.682617188 555.555664062 300 c 0
 555.555664062 269.317382812 530.682617188 244.444335938 500 244.444335938 c 0
 469.317382812 244.444335938 444.444335938 269.317382812 444.444335938 300 c 0
444.444335938 188.888671875 m 0
 444.444335938 219.571289062 469.317382812 244.444335938 500 244.444335938 c 0
 530.682617188 244.444335938 555.555664062 219.571289062 555.555664062 188.888671875 c 0
 555.555664062 158.206054688 530.682617188 133.333007812 500 133.333007812 c 0
 469.317382812 133.333007812 444.444335938 158.206054688 444.444335938 188.888671875 c 0
444.444335938 77.77734375 m 0
 444.444335938 108.459960938 469.317382812 133.333007812 500 133.333007812 c 0
 530.682617188 133.333007812 555.555664062 108.459960938 555.555664062 77.77734375 c 0
 555.555664062 47.095703125 530.682617188 22.22265625 500 22.22265625 c 0
 469.317382812 22.22265625 444.444335938 47.095703125 444.444335938 77.77734375 c 0
444.444335938 -33.3330078125 m 0
 444.444335938 -2.650390625 469.317382812 22.22265625 500 22.22265625 c 0
 530.682617188 22.22265625 555.555664062 -2.650390625 555.555664062 -33.3330078125 c 0
 555.555664062 -64.015625 530.682617188 -88.888671875 500 -88.888671875 c 0
 469.317382812 -88.888671875 444.444335938 -64.015625 444.444335938 -33.3330078125 c 0
EndSplineSet
Validated: 524293
EndChar

StartChar: m
Encoding: 109 109 12
Width: 888
VWidth: 0
Flags: HW
LayerCount: 2
Fore
SplineSet
0 -33.3330078125 m 0
 0 -2.650390625 24.873046875 22.22265625 55.5556640625 22.22265625 c 0
 86.23828125 22.22265625 111.111328125 -2.650390625 111.111328125 -33.3330078125 c 0
 111.111328125 -64.015625 86.23828125 -88.888671875 55.5556640625 -88.888671875 c 0
 24.873046875 -88.888671875 0 -64.015625 0 -33.3330078125 c 0
0 77.77734375 m 0
 0 108.459960938 24.873046875 133.333007812 55.5556640625 133.333007812 c 0
 86.23828125 133.333007812 111.111328125 108.459960938 111.111328125 77.77734375 c 0
 111.111328125 47.095703125 86.23828125 22.22265625 55.5556640625 22.22265625 c 0
 24.873046875 22.22265625 0 47.095703125 0 77.77734375 c 0
0 188.888671875 m 0
 0 219.571289062 24.873046875 244.444335938 55.5556640625 244.444335938 c 0
 86.23828125 244.444335938 111.111328125 219.571289062 111.111328125 188.888671875 c 0
 111.111328125 158.206054688 86.23828125 133.333007812 55.5556640625 133.333007812 c 0
 24.873046875 133.333007812 0 158.206054688 0 188.888671875 c 0
0 300 m 0
 0 330.682617188 24.873046875 355.555664062 55.5556640625 355.555664062 c 0
 86.23828125 355.555664062 111.111328125 330.682617188 111.111328125 300 c 0
 111.111328125 269.317382812 86.23828125 244.444335938 55.5556640625 244.444335938 c 0
 24.873046875 244.444335938 0 269.317382812 0 300 c 0
0 411.111328125 m 0
 0 441.793945312 24.873046875 466.666992188 55.5556640625 466.666992188 c 0
 86.23828125 466.666992188 111.111328125 441.793945312 111.111328125 411.111328125 c 0
 111.111328125 380.428710938 86.23828125 355.555664062 55.5556640625 355.555664062 c 0
 24.873046875 355.555664062 0 380.428710938 0 411.111328125 c 0
0 522.22265625 m 0
 0 552.904296875 24.873046875 577.77734375 55.5556640625 577.77734375 c 0
 86.23828125 577.77734375 111.111328125 552.904296875 111.111328125 522.22265625 c 0
 111.111328125 491.540039062 86.23828125 466.666992188 55.5556640625 466.666992188 c 0
 24.873046875 466.666992188 0 491.540039062 0 522.22265625 c 0
111.111328125 522.22265625 m 0
 111.111328125 552.904296875 135.984375 577.77734375 166.666992188 577.77734375 c 0
 197.349609375 577.77734375 222.22265625 552.904296875 222.22265625 522.22265625 c 0
 222.22265625 491.540039062 197.349609375 466.666992188 166.666992188 466.666992188 c 0
 135.984375 466.666992188 111.111328125 491.540039062 111.111328125 522.22265625 c 0
222.22265625 522.22265625 m 0
 222.22265625 552.904296875 247.095703125 577.77734375 277.77734375 577.77734375 c 0
 308.459960938 577.77734375 333.333007812 552.904296875 333.333007812 522.22265625 c 0
 333.333007812 491.540039062 308.459960938 466.666992188 277.77734375 466.666992188 c 0
 247.095703125 466.666992188 222.22265625 491.540039062 222.22265625 522.22265625 c 0
444.444335938 522.22265625 m 0
 444.444335938 552.904296875 469.317382812 577.77734375 500 577.77734375 c 0
 530.682617188 577.77734375 555.555664062 552.904296875 555.555664062 522.22265625 c 0
 555.555664062 491.540039062 530.682617188 466.666992188 500 466.666992188 c 0
 469.317382812 466.666992188 444.444335938 491.540039062 444.444335938 522.22265625 c 0
555.555664062 522.22265625 m 0
 555.555664062 552.904296875 580.428710938 577.77734375 611.111328125 577.77734375 c 0
 641.793945312 577.77734375 666.666992188 552.904296875 666.666992188 522.22265625 c 0
 666.666992188 491.540039062 641.793945312 466.666992188 611.111328125 466.666992188 c 0
 580.428710938 466.666992188 555.555664062 491.540039062 555.555664062 522.22265625 c 0
666.666992188 411.111328125 m 0
 666.666992188 441.793945312 691.540039062 466.666992188 722.22265625 466.666992188 c 0
 752.904296875 466.666992188 777.77734375 441.793945312 777.77734375 411.111328125 c 0
 777.77734375 380.428710938 752.904296875 355.555664062 722.22265625 355.555664062 c 0
 691.540039062 355.555664062 666.666992188 380.428710938 666.666992188 411.111328125 c 0
333.333007812 411.111328125 m 0
 333.333007812 441.793945312 358.206054688 466.666992188 388.888671875 466.666992188 c 0
 419.571289062 466.666992188 444.444335938 441.793945312 444.444335938 411.111328125 c 0
 444.444335938 380.428710938 419.571289062 355.555664062 388.888671875 355.555664062 c 0
 358.206054688 355.555664062 333.333007812 380.428710938 333.333007812 411.111328125 c 0
333.333007812 300 m 0
 333.333007812 330.682617188 358.206054688 355.555664062 388.888671875 355.555664062 c 0
 419.571289062 355.555664062 444.444335938 330.682617188 444.444335938 300 c 0
 444.444335938 269.317382812 419.571289062 244.444335938 388.888671875 244.444335938 c 0
 358.206054688 244.444335938 333.333007812 269.317382812 333.333007812 300 c 0
333.333007812 188.888671875 m 0
 333.333007812 219.571289062 358.206054688 244.444335938 388.888671875 244.444335938 c 0
 419.571289062 244.444335938 444.444335938 219.571289062 444.444335938 188.888671875 c 0
 444.444335938 158.206054688 419.571289062 133.333007812 388.888671875 133.333007812 c 0
 358.206054688 133.333007812 333.333007812 158.206054688 333.333007812 188.888671875 c 0
333.333007812 77.77734375 m 0
 333.333007812 108.459960938 358.206054688 133.333007812 388.888671875 133.333007812 c 0
 419.571289062 133.333007812 444.444335938 108.459960938 444.444335938 77.77734375 c 0
 444.444335938 47.095703125 419.571289062 22.22265625 388.888671875 22.22265625 c 0
 358.206054688 22.22265625 333.333007812 47.095703125 333.333007812 77.77734375 c 0
333.333007812 -33.3330078125 m 0
 333.333007812 -2.650390625 358.206054688 22.22265625 388.888671875 22.22265625 c 0
 419.571289062 22.22265625 444.444335938 -2.650390625 444.444335938 -33.3330078125 c 0
 444.444335938 -64.015625 419.571289062 -88.888671875 388.888671875 -88.888671875 c 0
 358.206054688 -88.888671875 333.333007812 -64.015625 333.333007812 -33.3330078125 c 0
666.666992188 -33.3330078125 m 0
 666.666992188 -2.650390625 691.540039062 22.22265625 722.22265625 22.22265625 c 0
 752.904296875 22.22265625 777.77734375 -2.650390625 777.77734375 -33.3330078125 c 0
 777.77734375 -64.015625 752.904296875 -88.888671875 722.22265625 -88.888671875 c 0
 691.540039062 -88.888671875 666.666992188 -64.015625 666.666992188 -33.3330078125 c 0
666.666992188 77.77734375 m 0
 666.666992188 108.459960938 691.540039062 133.333007812 722.22265625 133.333007812 c 0
 752.904296875 133.333007812 777.77734375 108.459960938 777.77734375 77.77734375 c 0
 777.77734375 47.095703125 752.904296875 22.22265625 722.22265625 22.22265625 c 0
 691.540039062 22.22265625 666.666992188 47.095703125 666.666992188 77.77734375 c 0
666.666992188 188.888671875 m 0
 666.666992188 219.571289062 691.540039062 244.444335938 722.22265625 244.444335938 c 0
 752.904296875 244.444335938 777.77734375 219.571289062 777.77734375 188.888671875 c 0
 777.77734375 158.206054688 752.904296875 133.333007812 722.22265625 133.333007812 c 0
 691.540039062 133.333007812 666.666992188 158.206054688 666.666992188 188.888671875 c 0
666.666992188 300 m 0
 666.666992188 330.682617188 691.540039062 355.555664062 722.22265625 355.555664062 c 0
 752.904296875 355.555664062 777.77734375 330.682617188 777.77734375 300 c 0
 777.77734375 269.317382812 752.904296875 244.444335938 722.22265625 244.444335938 c 0
 691.540039062 244.444335938 666.666992188 269.317382812 666.666992188 300 c 0
EndSplineSet
Validated: 524293
EndChar

StartChar: n
Encoding: 110 110 13
Width: 666
VWidth: 0
Flags: HW
LayerCount: 2
Fore
SplineSet
0 -33.3330078125 m 0
 0 -2.650390625 24.873046875 22.22265625 55.5556640625 22.22265625 c 0
 86.23828125 22.22265625 111.111328125 -2.650390625 111.111328125 -33.3330078125 c 0
 111.111328125 -64.015625 86.23828125 -88.888671875 55.5556640625 -88.888671875 c 0
 24.873046875 -88.888671875 0 -64.015625 0 -33.3330078125 c 0
0 77.77734375 m 0
 0 108.459960938 24.873046875 133.333007812 55.5556640625 133.333007812 c 0
 86.23828125 133.333007812 111.111328125 108.459960938 111.111328125 77.77734375 c 0
 111.111328125 47.095703125 86.23828125 22.22265625 55.5556640625 22.22265625 c 0
 24.873046875 22.22265625 0 47.095703125 0 77.77734375 c 0
0 188.888671875 m 0
 0 219.571289062 24.873046875 244.444335938 55.5556640625 244.444335938 c 0
 86.23828125 244.444335938 111.111328125 219.571289062 111.111328125 188.888671875 c 0
 111.111328125 158.206054688 86.23828125 133.333007812 55.5556640625 133.333007812 c 0
 24.873046875 133.333007812 0 158.206054688 0 188.888671875 c 0
0 300 m 0
 0 330.682617188 24.873046875 355.555664062 55.5556640625 355.555664062 c 0
 86.23828125 355.555664062 111.111328125 330.682617188 111.111328125 300 c 0
 111.111328125 269.317382812 86.23828125 244.444335938 55.5556640625 244.444335938 c 0
 24.873046875 244.444335938 0 269.317382812 0 300 c 0
0 411.111328125 m 0
 0 441.793945312 24.873046875 466.666992188 55.5556640625 466.666992188 c 0
 86.23828125 466.666992188 111.111328125 441.793945312 111.111328125 411.111328125 c 0
 111.111328125 380.428710938 86.23828125 355.555664062 55.5556640625 355.555664062 c 0
 24.873046875 355.555664062 0 380.428710938 0 411.111328125 c 0
0 522.22265625 m 0
 0 552.904296875 24.873046875 577.77734375 55.5556640625 577.77734375 c 0
 86.23828125 577.77734375 111.111328125 552.904296875 111.111328125 522.22265625 c 0
 111.111328125 491.540039062 86.23828125 466.666992188 55.5556640625 466.666992188 c 0
 24.873046875 466.666992188 0 491.540039062 0 522.22265625 c 0
111.111328125 522.22265625 m 0
 111.111328125 552.904296875 135.984375 577.77734375 166.666992188 577.77734375 c 0
 197.349609375 577.77734375 222.22265625 552.904296875 222.22265625 522.22265625 c 0
 222.22265625 491.540039062 197.349609375 466.666992188 166.666992188 466.666992188 c 0
 135.984375 466.666992188 111.111328125 491.540039062 111.111328125 522.22265625 c 0
222.22265625 522.22265625 m 0
 222.22265625 552.904296875 247.095703125 577.77734375 277.77734375 577.77734375 c 0
 308.459960938 577.77734375 333.333007812 552.904296875 333.333007812 522.22265625 c 0
 333.333007812 491.540039062 308.459960938 466.666992188 277.77734375 466.666992188 c 0
 247.095703125 466.666992188 222.22265625 491.540039062 222.22265625 522.22265625 c 0
333.333007812 522.22265625 m 0
 333.333007812 552.904296875 358.206054688 577.77734375 388.888671875 577.77734375 c 0
 419.571289062 577.77734375 444.444335938 552.904296875 444.444335938 522.22265625 c 0
 444.444335938 491.540039062 419.571289062 466.666992188 388.888671875 466.666992188 c 0
 358.206054688 466.666992188 333.333007812 491.540039062 333.333007812 522.22265625 c 0
444.444335938 411.111328125 m 0
 444.444335938 441.793945312 469.317382812 466.666992188 500 466.666992188 c 0
 530.682617188 466.666992188 555.555664062 441.793945312 555.555664062 411.111328125 c 0
 555.555664062 380.428710938 530.682617188 355.555664062 500 355.555664062 c 0
 469.317382812 355.555664062 444.444335938 380.428710938 444.444335938 411.111328125 c 0
444.444335938 300 m 0
 444.444335938 330.682617188 469.317382812 355.555664062 500 355.555664062 c 0
 530.682617188 355.555664062 555.555664062 330.682617188 555.555664062 300 c 0
 555.555664062 269.317382812 530.682617188 244.444335938 500 244.444335938 c 0
 469.317382812 244.444335938 444.444335938 269.317382812 444.444335938 300 c 0
444.444335938 188.888671875 m 0
 444.444335938 219.571289062 469.317382812 244.444335938 500 244.444335938 c 0
 530.682617188 244.444335938 555.555664062 219.571289062 555.555664062 188.888671875 c 0
 555.555664062 158.206054688 530.682617188 133.333007812 500 133.333007812 c 0
 469.317382812 133.333007812 444.444335938 158.206054688 444.444335938 188.888671875 c 0
444.444335938 77.77734375 m 0
 444.444335938 108.459960938 469.317382812 133.333007812 500 133.333007812 c 0
 530.682617188 133.333007812 555.555664062 108.459960938 555.555664062 77.77734375 c 0
 555.555664062 47.095703125 530.682617188 22.22265625 500 22.22265625 c 0
 469.317382812 22.22265625 444.444335938 47.095703125 444.444335938 77.77734375 c 0
444.444335938 -33.3330078125 m 0
 444.444335938 -2.650390625 469.317382812 22.22265625 500 22.22265625 c 0
 530.682617188 22.22265625 555.555664062 -2.650390625 555.555664062 -33.3330078125 c 0
 555.555664062 -64.015625 530.682617188 -88.888671875 500 -88.888671875 c 0
 469.317382812 -88.888671875 444.444335938 -64.015625 444.444335938 -33.3330078125 c 0
EndSplineSet
Validated: 524293
EndChar

StartChar: one
Encoding: 49 49 14
Width: 777
VWidth: 0
Flags: HW
LayerCount: 2
Fore
SplineSet
333.333007812 744.444335938 m 0
 333.333007812 775.126953125 358.206054688 800 388.888671875 800 c 0
 419.571289062 800 444.444335938 775.126953125 444.444335938 744.444335938 c 0
 444.444335938 713.76171875 419.571289062 688.888671875 388.888671875 688.888671875 c 0
 358.206054688 688.888671875 333.333007812 713.76171875 333.333007812 744.444335938 c 0
333.333007812 633.333007812 m 0
 333.333007812 664.015625 358.206054688 688.888671875 388.888671875 688.888671875 c 0
 419.571289062 688.888671875 444.444335938 664.015625 444.444335938 633.333007812 c 0
 444.444335938 602.650390625 419.571289062 577.77734375 388.888671875 577.77734375 c 0
 358.206054688 577.77734375 333.333007812 602.650390625 333.333007812 633.333007812 c 0
333.333007812 522.22265625 m 0
 333.333007812 552.904296875 358.206054688 577.77734375 388.888671875 577.77734375 c 0
 419.571289062 577.77734375 444.444335938 552.904296875 444.444335938 522.22265625 c 0
 444.444335938 491.540039062 419.571289062 466.666992188 388.888671875 466.666992188 c 0
 358.206054688 466.666992188 333.333007812 491.540039062 333.333007812 522.22265625 c 0
333.333007812 411.111328125 m 0
 333.333007812 441.793945312 358.206054688 466.666992188 388.888671875 466.666992188 c 0
 419.571289062 466.666992188 444.444335938 441.793945312 444.444335938 411.111328125 c 0
 444.444335938 380.428710938 419.571289062 355.555664062 388.888671875 355.555664062 c 0
 358.206054688 355.555664062 333.333007812 380.428710938 333.333007812 411.111328125 c 0
333.333007812 300 m 0
 333.333007812 330.682617188 358.206054688 355.555664062 388.888671875 355.555664062 c 0
 419.571289062 355.555664062 444.444335938 330.682617188 444.444335938 300 c 0
 444.444335938 269.317382812 419.571289062 244.444335938 388.888671875 244.444335938 c 0
 358.206054688 244.444335938 333.333007812 269.317382812 333.333007812 300 c 0
333.333007812 188.888671875 m 0
 333.333007812 219.571289062 358.206054688 244.444335938 388.888671875 244.444335938 c 0
 419.571289062 244.444335938 444.444335938 219.571289062 444.444335938 188.888671875 c 0
 444.444335938 158.206054688 419.571289062 133.333007812 388.888671875 133.333007812 c 0
 358.206054688 133.333007812 333.333007812 158.206054688 333.333007812 188.888671875 c 0
333.333007812 77.77734375 m 0
 333.333007812 108.459960938 358.206054688 133.333007812 388.888671875 133.333007812 c 0
 419.571289062 133.333007812 444.444335938 108.459960938 444.444335938 77.77734375 c 0
 444.444335938 47.095703125 419.571289062 22.22265625 388.888671875 22.22265625 c 0
 358.206054688 22.22265625 333.333007812 47.095703125 333.333007812 77.77734375 c 0
333.333007812 -33.3330078125 m 0
 333.333007812 -2.650390625 358.206054688 22.22265625 388.888671875 22.22265625 c 0
 419.571289062 22.22265625 444.444335938 -2.650390625 444.444335938 -33.3330078125 c 0
 444.444335938 -64.015625 419.571289062 -88.888671875 388.888671875 -88.888671875 c 0
 358.206054688 -88.888671875 333.333007812 -64.015625 333.333007812 -33.3330078125 c 0
333.333007812 -144.444335938 m 0
 333.333007812 -113.76171875 358.206054688 -88.888671875 388.888671875 -88.888671875 c 0
 419.571289062 -88.888671875 444.444335938 -113.76171875 444.444335938 -144.444335938 c 0
 444.444335938 -175.126953125 419.571289062 -200 388.888671875 -200 c 0
 358.206054688 -200 333.333007812 -175.126953125 333.333007812 -144.444335938 c 0
222.22265625 633.333007812 m 0
 222.22265625 664.015625 247.095703125 688.888671875 277.77734375 688.888671875 c 0
 308.459960938 688.888671875 333.333007812 664.015625 333.333007812 633.333007812 c 0
 333.333007812 602.650390625 308.459960938 577.77734375 277.77734375 577.77734375 c 0
 247.095703125 577.77734375 222.22265625 602.650390625 222.22265625 633.333007812 c 0
EndSplineSet
Validated: 524293
EndChar

StartChar: two
Encoding: 50 50 15
Width: 777
VWidth: 0
Flags: HW
LayerCount: 2
Fore
SplineSet
0 633.333007812 m 0
 0 664.015625 24.873046875 688.888671875 55.5556640625 688.888671875 c 0
 86.23828125 688.888671875 111.111328125 664.015625 111.111328125 633.333007812 c 0
 111.111328125 602.650390625 86.23828125 577.77734375 55.5556640625 577.77734375 c 0
 24.873046875 577.77734375 0 602.650390625 0 633.333007812 c 0
111.111328125 744.444335938 m 0
 111.111328125 775.126953125 135.984375 800 166.666992188 800 c 0
 197.349609375 800 222.22265625 775.126953125 222.22265625 744.444335938 c 0
 222.22265625 713.76171875 197.349609375 688.888671875 166.666992188 688.888671875 c 0
 135.984375 688.888671875 111.111328125 713.76171875 111.111328125 744.444335938 c 0
222.22265625 744.444335938 m 0
 222.22265625 775.126953125 247.095703125 800 277.77734375 800 c 0
 308.459960938 800 333.333007812 775.126953125 333.333007812 744.444335938 c 0
 333.333007812 713.76171875 308.459960938 688.888671875 277.77734375 688.888671875 c 0
 247.095703125 688.888671875 222.22265625 713.76171875 222.22265625 744.444335938 c 0
333.333007812 744.444335938 m 0
 333.333007812 775.126953125 358.206054688 800 388.888671875 800 c 0
 419.571289062 800 444.444335938 775.126953125 444.444335938 744.444335938 c 0
 444.444335938 713.76171875 419.571289062 688.888671875 388.888671875 688.888671875 c 0
 358.206054688 688.888671875 333.333007812 713.76171875 333.333007812 744.444335938 c 0
444.444335938 744.444335938 m 0
 444.444335938 775.126953125 469.317382812 800 500 800 c 0
 530.682617188 800 555.555664062 775.126953125 555.555664062 744.444335938 c 0
 555.555664062 713.76171875 530.682617188 688.888671875 500 688.888671875 c 0
 469.317382812 688.888671875 444.444335938 713.76171875 444.444335938 744.444335938 c 0
555.555664062 633.333007812 m 0
 555.555664062 664.015625 580.428710938 688.888671875 611.111328125 688.888671875 c 0
 641.793945312 688.888671875 666.666992188 664.015625 666.666992188 633.333007812 c 0
 666.666992188 602.650390625 641.793945312 577.77734375 611.111328125 577.77734375 c 0
 580.428710938 577.77734375 555.555664062 602.650390625 555.555664062 633.333007812 c 0
555.555664062 522.22265625 m 0
 555.555664062 552.904296875 580.428710938 577.77734375 611.111328125 577.77734375 c 0
 641.793945312 577.77734375 666.666992188 552.904296875 666.666992188 522.22265625 c 0
 666.666992188 491.540039062 641.793945312 466.666992188 611.111328125 466.666992188 c 0
 580.428710938 466.666992188 555.555664062 491.540039062 555.555664062 522.22265625 c 0
555.555664062 411.111328125 m 0
 555.555664062 441.793945312 580.428710938 466.666992188 611.111328125 466.666992188 c 0
 641.793945312 466.666992188 666.666992188 441.793945312 666.666992188 411.111328125 c 0
 666.666992188 380.428710938 641.793945312 355.555664062 611.111328125 355.555664062 c 0
 580.428710938 355.555664062 555.555664062 380.428710938 555.555664062 411.111328125 c 0
444.444335938 300 m 0
 444.444335938 330.682617188 469.317382812 355.555664062 500 355.555664062 c 0
 530.682617188 355.555664062 555.555664062 330.682617188 555.555664062 300 c 0
 555.555664062 269.317382812 530.682617188 244.444335938 500 244.444335938 c 0
 469.317382812 244.444335938 444.444335938 269.317382812 444.444335938 300 c 0
333.333007812 188.888671875 m 0
 333.333007812 219.571289062 358.206054688 244.444335938 388.888671875 244.444335938 c 0
 419.571289062 244.444335938 444.444335938 219.571289062 444.444335938 188.888671875 c 0
 444.444335938 158.206054688 419.571289062 133.333007812 388.888671875 133.333007812 c 0
 358.206054688 133.333007812 333.333007812 158.206054688 333.333007812 188.888671875 c 0
222.22265625 77.77734375 m 0
 222.22265625 108.459960938 247.095703125 133.333007812 277.77734375 133.333007812 c 0
 308.459960938 133.333007812 333.333007812 108.459960938 333.333007812 77.77734375 c 0
 333.333007812 47.095703125 308.459960938 22.22265625 277.77734375 22.22265625 c 0
 247.095703125 22.22265625 222.22265625 47.095703125 222.22265625 77.77734375 c 0
111.111328125 -33.3330078125 m 0
 111.111328125 -2.650390625 135.984375 22.22265625 166.666992188 22.22265625 c 0
 197.349609375 22.22265625 222.22265625 -2.650390625 222.22265625 -33.3330078125 c 0
 222.22265625 -64.015625 197.349609375 -88.888671875 166.666992188 -88.888671875 c 0
 135.984375 -88.888671875 111.111328125 -64.015625 111.111328125 -33.3330078125 c 0
0 -144.444335938 m 0
 0 -113.76171875 24.873046875 -88.888671875 55.5556640625 -88.888671875 c 0
 86.23828125 -88.888671875 111.111328125 -113.76171875 111.111328125 -144.444335938 c 0
 111.111328125 -175.126953125 86.23828125 -200 55.5556640625 -200 c 0
 24.873046875 -200 0 -175.126953125 0 -144.444335938 c 0
111.111328125 -144.444335938 m 0
 111.111328125 -113.76171875 135.984375 -88.888671875 166.666992188 -88.888671875 c 0
 197.349609375 -88.888671875 222.22265625 -113.76171875 222.22265625 -144.444335938 c 0
 222.22265625 -175.126953125 197.349609375 -200 166.666992188 -200 c 0
 135.984375 -200 111.111328125 -175.126953125 111.111328125 -144.444335938 c 0
222.22265625 -144.444335938 m 0
 222.22265625 -113.76171875 247.095703125 -88.888671875 277.77734375 -88.888671875 c 0
 308.459960938 -88.888671875 333.333007812 -113.76171875 333.333007812 -144.444335938 c 0
 333.333007812 -175.126953125 308.459960938 -200 277.77734375 -200 c 0
 247.095703125 -200 222.22265625 -175.126953125 222.22265625 -144.444335938 c 0
444.444335938 -144.444335938 m 0
 444.444335938 -113.76171875 469.317382812 -88.888671875 500 -88.888671875 c 0
 530.682617188 -88.888671875 555.555664062 -113.76171875 555.555664062 -144.444335938 c 0
 555.555664062 -175.126953125 530.682617188 -200 500 -200 c 0
 469.317382812 -200 444.444335938 -175.126953125 444.444335938 -144.444335938 c 0
333.333007812 -144.444335938 m 0
 333.333007812 -113.76171875 358.206054688 -88.888671875 388.888671875 -88.888671875 c 0
 419.571289062 -88.888671875 444.444335938 -113.76171875 444.444335938 -144.444335938 c 0
 444.444335938 -175.126953125 419.571289062 -200 388.888671875 -200 c 0
 358.206054688 -200 333.333007812 -175.126953125 333.333007812 -144.444335938 c 0
555.555664062 -144.444335938 m 0
 555.555664062 -113.76171875 580.428710938 -88.888671875 611.111328125 -88.888671875 c 0
 641.793945312 -88.888671875 666.666992188 -113.76171875 666.666992188 -144.444335938 c 0
 666.666992188 -175.126953125 641.793945312 -200 611.111328125 -200 c 0
 580.428710938 -200 555.555664062 -175.126953125 555.555664062 -144.444335938 c 0
EndSplineSet
Validated: 524293
EndChar

StartChar: three
Encoding: 51 51 16
Width: 777
VWidth: 0
Flags: HW
LayerCount: 2
Fore
SplineSet
0 633.333007812 m 0
 0 664.015625 24.873046875 688.888671875 55.5556640625 688.888671875 c 0
 86.23828125 688.888671875 111.111328125 664.015625 111.111328125 633.333007812 c 0
 111.111328125 602.650390625 86.23828125 577.77734375 55.5556640625 577.77734375 c 0
 24.873046875 577.77734375 0 602.650390625 0 633.333007812 c 0
111.111328125 744.444335938 m 0
 111.111328125 775.126953125 135.984375 800 166.666992188 800 c 0
 197.349609375 800 222.22265625 775.126953125 222.22265625 744.444335938 c 0
 222.22265625 713.76171875 197.349609375 688.888671875 166.666992188 688.888671875 c 0
 135.984375 688.888671875 111.111328125 713.76171875 111.111328125 744.444335938 c 0
222.22265625 744.444335938 m 0
 222.22265625 775.126953125 247.095703125 800 277.77734375 800 c 0
 308.459960938 800 333.333007812 775.126953125 333.333007812 744.444335938 c 0
 333.333007812 713.76171875 308.459960938 688.888671875 277.77734375 688.888671875 c 0
 247.095703125 688.888671875 222.22265625 713.76171875 222.22265625 744.444335938 c 0
333.333007812 744.444335938 m 0
 333.333007812 775.126953125 358.206054688 800 388.888671875 800 c 0
 419.571289062 800 444.444335938 775.126953125 444.444335938 744.444335938 c 0
 444.444335938 713.76171875 419.571289062 688.888671875 388.888671875 688.888671875 c 0
 358.206054688 688.888671875 333.333007812 713.76171875 333.333007812 744.444335938 c 0
444.444335938 744.444335938 m 0
 444.444335938 775.126953125 469.317382812 800 500 800 c 0
 530.682617188 800 555.555664062 775.126953125 555.555664062 744.444335938 c 0
 555.555664062 713.76171875 530.682617188 688.888671875 500 688.888671875 c 0
 469.317382812 688.888671875 444.444335938 713.76171875 444.444335938 744.444335938 c 0
555.555664062 633.333007812 m 0
 555.555664062 664.015625 580.428710938 688.888671875 611.111328125 688.888671875 c 0
 641.793945312 688.888671875 666.666992188 664.015625 666.666992188 633.333007812 c 0
 666.666992188 602.650390625 641.793945312 577.77734375 611.111328125 577.77734375 c 0
 580.428710938 577.77734375 555.555664062 602.650390625 555.555664062 633.333007812 c 0
555.555664062 522.22265625 m 0
 555.555664062 552.904296875 580.428710938 577.77734375 611.111328125 577.77734375 c 0
 641.793945312 577.77734375 666.666992188 552.904296875 666.666992188 522.22265625 c 0
 666.666992188 491.540039062 641.793945312 466.666992188 611.111328125 466.666992188 c 0
 580.428710938 466.666992188 555.555664062 491.540039062 555.555664062 522.22265625 c 0
22.22265625 -33.3330078125 m 0
 22.22265625 -2.650390625 47.095703125 22.22265625 77.77734375 22.22265625 c 0
 108.459960938 22.22265625 133.333007812 -2.650390625 133.333007812 -33.3330078125 c 0
 133.333007812 -64.015625 108.459960938 -88.888671875 77.77734375 -88.888671875 c 0
 47.095703125 -88.888671875 22.22265625 -64.015625 22.22265625 -33.3330078125 c 0
111.111328125 -144.444335938 m 0
 111.111328125 -113.76171875 135.984375 -88.888671875 166.666992188 -88.888671875 c 0
 197.349609375 -88.888671875 222.22265625 -113.76171875 222.22265625 -144.444335938 c 0
 222.22265625 -175.126953125 197.349609375 -200 166.666992188 -200 c 0
 135.984375 -200 111.111328125 -175.126953125 111.111328125 -144.444335938 c 0
222.22265625 -144.444335938 m 0
 222.22265625 -113.76171875 247.095703125 -88.888671875 277.77734375 -88.888671875 c 0
 308.459960938 -88.888671875 333.333007812 -113.76171875 333.333007812 -144.444335938 c 0
 333.333007812 -175.126953125 308.459960938 -200 277.77734375 -200 c 0
 247.095703125 -200 222.22265625 -175.126953125 222.22265625 -144.444335938 c 0
333.333007812 -144.444335938 m 0
 333.333007812 -113.76171875 358.206054688 -88.888671875 388.888671875 -88.888671875 c 0
 419.571289062 -88.888671875 444.444335938 -113.76171875 444.444335938 -144.444335938 c 0
 444.444335938 -175.126953125 419.571289062 -200 388.888671875 -200 c 0
 358.206054688 -200 333.333007812 -175.126953125 333.333007812 -144.444335938 c 0
444.444335938 -144.444335938 m 0
 444.444335938 -113.76171875 469.317382812 -88.888671875 500 -88.888671875 c 0
 530.682617188 -88.888671875 555.555664062 -113.76171875 555.555664062 -144.444335938 c 0
 555.555664062 -175.126953125 530.682617188 -200 500 -200 c 0
 469.317382812 -200 444.444335938 -175.126953125 444.444335938 -144.444335938 c 0
555.555664062 -33.3330078125 m 0
 555.555664062 -2.650390625 580.428710938 22.22265625 611.111328125 22.22265625 c 0
 641.793945312 22.22265625 666.666992188 -2.650390625 666.666992188 -33.3330078125 c 0
 666.666992188 -64.015625 641.793945312 -88.888671875 611.111328125 -88.888671875 c 0
 580.428710938 -88.888671875 555.555664062 -64.015625 555.555664062 -33.3330078125 c 0
555.555664062 77.77734375 m 0
 555.555664062 108.459960938 580.428710938 133.333007812 611.111328125 133.333007812 c 0
 641.793945312 133.333007812 666.666992188 108.459960938 666.666992188 77.77734375 c 0
 666.666992188 47.095703125 641.793945312 22.22265625 611.111328125 22.22265625 c 0
 580.428710938 22.22265625 555.555664062 47.095703125 555.555664062 77.77734375 c 0
555.555664062 188.888671875 m 0
 555.555664062 219.571289062 580.428710938 244.444335938 611.111328125 244.444335938 c 0
 641.793945312 244.444335938 666.666992188 219.571289062 666.666992188 188.888671875 c 0
 666.666992188 158.206054688 641.793945312 133.333007812 611.111328125 133.333007812 c 0
 580.428710938 133.333007812 555.555664062 158.206054688 555.555664062 188.888671875 c 0
555.555664062 411.111328125 m 0
 555.555664062 441.793945312 580.428710938 466.666992188 611.111328125 466.666992188 c 0
 641.793945312 466.666992188 666.666992188 441.793945312 666.666992188 411.111328125 c 0
 666.666992188 380.428710938 641.793945312 355.555664062 611.111328125 355.555664062 c 0
 580.428710938 355.555664062 555.555664062 380.428710938 555.555664062 411.111328125 c 0
333.333007812 300 m 0
 333.333007812 330.682617188 358.206054688 355.555664062 388.888671875 355.555664062 c 0
 419.571289062 355.555664062 444.444335938 330.682617188 444.444335938 300 c 0
 444.444335938 269.317382812 419.571289062 244.444335938 388.888671875 244.444335938 c 0
 358.206054688 244.444335938 333.333007812 269.317382812 333.333007812 300 c 0
444.444335938 300 m 0
 444.444335938 330.682617188 469.317382812 355.555664062 500 355.555664062 c 0
 530.682617188 355.555664062 555.555664062 330.682617188 555.555664062 300 c 0
 555.555664062 269.317382812 530.682617188 244.444335938 500 244.444335938 c 0
 469.317382812 244.444335938 444.444335938 269.317382812 444.444335938 300 c 0
222.22265625 300 m 0
 222.22265625 330.682617188 247.095703125 355.555664062 277.77734375 355.555664062 c 0
 308.459960938 355.555664062 333.333007812 330.682617188 333.333007812 300 c 0
 333.333007812 269.317382812 308.459960938 244.444335938 277.77734375 244.444335938 c 0
 247.095703125 244.444335938 222.22265625 269.317382812 222.22265625 300 c 0
EndSplineSet
Validated: 524293
EndChar

StartChar: five
Encoding: 53 53 17
Width: 777
VWidth: 0
Flags: HW
LayerCount: 2
Fore
SplineSet
555.555664062 744.444335938 m 0
 555.555664062 775.126953125 580.428710938 800 611.111328125 800 c 0
 641.793945312 800 666.666992188 775.126953125 666.666992188 744.444335938 c 0
 666.666992188 713.76171875 641.793945312 688.888671875 611.111328125 688.888671875 c 0
 580.428710938 688.888671875 555.555664062 713.76171875 555.555664062 744.444335938 c 0
444.444335938 744.444335938 m 0
 444.444335938 775.126953125 469.317382812 800 500 800 c 0
 530.682617188 800 555.555664062 775.126953125 555.555664062 744.444335938 c 0
 555.555664062 713.76171875 530.682617188 688.888671875 500 688.888671875 c 0
 469.317382812 688.888671875 444.444335938 713.76171875 444.444335938 744.444335938 c 0
333.333007812 744.444335938 m 0
 333.333007812 775.126953125 358.206054688 800 388.888671875 800 c 0
 419.571289062 800 444.444335938 775.126953125 444.444335938 744.444335938 c 0
 444.444335938 713.76171875 419.571289062 688.888671875 388.888671875 688.888671875 c 0
 358.206054688 688.888671875 333.333007812 713.76171875 333.333007812 744.444335938 c 0
222.22265625 744.444335938 m 0
 222.22265625 775.126953125 247.095703125 800 277.77734375 800 c 0
 308.459960938 800 333.333007812 775.126953125 333.333007812 744.444335938 c 0
 333.333007812 713.76171875 308.459960938 688.888671875 277.77734375 688.888671875 c 0
 247.095703125 688.888671875 222.22265625 713.76171875 222.22265625 744.444335938 c 0
111.111328125 744.444335938 m 0
 111.111328125 775.126953125 135.984375 800 166.666992188 800 c 0
 197.349609375 800 222.22265625 775.126953125 222.22265625 744.444335938 c 0
 222.22265625 713.76171875 197.349609375 688.888671875 166.666992188 688.888671875 c 0
 135.984375 688.888671875 111.111328125 713.76171875 111.111328125 744.444335938 c 0
0 744.444335938 m 0
 0 775.126953125 24.873046875 800 55.5556640625 800 c 0
 86.23828125 800 111.111328125 775.126953125 111.111328125 744.444335938 c 0
 111.111328125 713.76171875 86.23828125 688.888671875 55.5556640625 688.888671875 c 0
 24.873046875 688.888671875 0 713.76171875 0 744.444335938 c 0
0 633.333007812 m 0
 0 664.015625 24.873046875 688.888671875 55.5556640625 688.888671875 c 0
 86.23828125 688.888671875 111.111328125 664.015625 111.111328125 633.333007812 c 0
 111.111328125 602.650390625 86.23828125 577.77734375 55.5556640625 577.77734375 c 0
 24.873046875 577.77734375 0 602.650390625 0 633.333007812 c 0
0 522.22265625 m 0
 0 552.904296875 24.873046875 577.77734375 55.5556640625 577.77734375 c 0
 86.23828125 577.77734375 111.111328125 552.904296875 111.111328125 522.22265625 c 0
 111.111328125 491.540039062 86.23828125 466.666992188 55.5556640625 466.666992188 c 0
 24.873046875 466.666992188 0 491.540039062 0 522.22265625 c 0
0 411.111328125 m 0
 0 441.793945312 24.873046875 466.666992188 55.5556640625 466.666992188 c 0
 86.23828125 466.666992188 111.111328125 441.793945312 111.111328125 411.111328125 c 0
 111.111328125 380.428710938 86.23828125 355.555664062 55.5556640625 355.555664062 c 0
 24.873046875 355.555664062 0 380.428710938 0 411.111328125 c 0
111.111328125 411.111328125 m 0
 111.111328125 441.793945312 135.984375 466.666992188 166.666992188 466.666992188 c 0
 197.349609375 466.666992188 222.22265625 441.793945312 222.22265625 411.111328125 c 0
 222.22265625 380.428710938 197.349609375 355.555664062 166.666992188 355.555664062 c 0
 135.984375 355.555664062 111.111328125 380.428710938 111.111328125 411.111328125 c 0
555.555664062 300 m 0
 555.555664062 330.682617188 580.428710938 355.555664062 611.111328125 355.555664062 c 0
 641.793945312 355.555664062 666.666992188 330.682617188 666.666992188 300 c 0
 666.666992188 269.317382812 641.793945312 244.444335938 611.111328125 244.444335938 c 0
 580.428710938 244.444335938 555.555664062 269.317382812 555.555664062 300 c 0
555.555664062 188.888671875 m 0
 555.555664062 219.571289062 580.428710938 244.444335938 611.111328125 244.444335938 c 0
 641.793945312 244.444335938 666.666992188 219.571289062 666.666992188 188.888671875 c 0
 666.666992188 158.206054688 641.793945312 133.333007812 611.111328125 133.333007812 c 0
 580.428710938 133.333007812 555.555664062 158.206054688 555.555664062 188.888671875 c 0
555.555664062 77.77734375 m 0
 555.555664062 108.459960938 580.428710938 133.333007812 611.111328125 133.333007812 c 0
 641.793945312 133.333007812 666.666992188 108.459960938 666.666992188 77.77734375 c 0
 666.666992188 47.095703125 641.793945312 22.22265625 611.111328125 22.22265625 c 0
 580.428710938 22.22265625 555.555664062 47.095703125 555.555664062 77.77734375 c 0
555.555664062 -33.3330078125 m 0
 555.555664062 -2.650390625 580.428710938 22.22265625 611.111328125 22.22265625 c 0
 641.793945312 22.22265625 666.666992188 -2.650390625 666.666992188 -33.3330078125 c 0
 666.666992188 -64.015625 641.793945312 -88.888671875 611.111328125 -88.888671875 c 0
 580.428710938 -88.888671875 555.555664062 -64.015625 555.555664062 -33.3330078125 c 0
444.444335938 -144.444335938 m 0
 444.444335938 -113.76171875 469.317382812 -88.888671875 500 -88.888671875 c 0
 530.682617188 -88.888671875 555.555664062 -113.76171875 555.555664062 -144.444335938 c 0
 555.555664062 -175.126953125 530.682617188 -200 500 -200 c 0
 469.317382812 -200 444.444335938 -175.126953125 444.444335938 -144.444335938 c 0
333.333007812 -144.444335938 m 0
 333.333007812 -113.76171875 358.206054688 -88.888671875 388.888671875 -88.888671875 c 0
 419.571289062 -88.888671875 444.444335938 -113.76171875 444.444335938 -144.444335938 c 0
 444.444335938 -175.126953125 419.571289062 -200 388.888671875 -200 c 0
 358.206054688 -200 333.333007812 -175.126953125 333.333007812 -144.444335938 c 0
222.22265625 -144.444335938 m 0
 222.22265625 -113.76171875 247.095703125 -88.888671875 277.77734375 -88.888671875 c 0
 308.459960938 -88.888671875 333.333007812 -113.76171875 333.333007812 -144.444335938 c 0
 333.333007812 -175.126953125 308.459960938 -200 277.77734375 -200 c 0
 247.095703125 -200 222.22265625 -175.126953125 222.22265625 -144.444335938 c 0
111.111328125 -144.444335938 m 0
 111.111328125 -113.76171875 135.984375 -88.888671875 166.666992188 -88.888671875 c 0
 197.349609375 -88.888671875 222.22265625 -113.76171875 222.22265625 -144.444335938 c 0
 222.22265625 -175.126953125 197.349609375 -200 166.666992188 -200 c 0
 135.984375 -200 111.111328125 -175.126953125 111.111328125 -144.444335938 c 0
0 -33.3330078125 m 0
 0 -2.650390625 24.873046875 22.22265625 55.5556640625 22.22265625 c 0
 86.23828125 22.22265625 111.111328125 -2.650390625 111.111328125 -33.3330078125 c 0
 111.111328125 -64.015625 86.23828125 -88.888671875 55.5556640625 -88.888671875 c 0
 24.873046875 -88.888671875 0 -64.015625 0 -33.3330078125 c 0
222.22265625 411.111328125 m 0
 222.22265625 441.793945312 247.095703125 466.666992188 277.77734375 466.666992188 c 0
 308.459960938 466.666992188 333.333007812 441.793945312 333.333007812 411.111328125 c 0
 333.333007812 380.428710938 308.459960938 355.555664062 277.77734375 355.555664062 c 0
 247.095703125 355.555664062 222.22265625 380.428710938 222.22265625 411.111328125 c 0
333.333007812 411.111328125 m 0
 333.333007812 441.793945312 358.206054688 466.666992188 388.888671875 466.666992188 c 0
 419.571289062 466.666992188 444.444335938 441.793945312 444.444335938 411.111328125 c 0
 444.444335938 380.428710938 419.571289062 355.555664062 388.888671875 355.555664062 c 0
 358.206054688 355.555664062 333.333007812 380.428710938 333.333007812 411.111328125 c 0
444.444335938 411.111328125 m 0
 444.444335938 441.793945312 469.317382812 466.666992188 500 466.666992188 c 0
 530.682617188 466.666992188 555.555664062 441.793945312 555.555664062 411.111328125 c 0
 555.555664062 380.428710938 530.682617188 355.555664062 500 355.555664062 c 0
 469.317382812 355.555664062 444.444335938 380.428710938 444.444335938 411.111328125 c 0
EndSplineSet
Validated: 524293
EndChar

StartChar: seven
Encoding: 55 55 18
Width: 777
VWidth: 0
Flags: HW
LayerCount: 2
Fore
SplineSet
0 744.444335938 m 0
 0 775.126953125 24.873046875 800 55.5556640625 800 c 0
 86.23828125 800 111.111328125 775.126953125 111.111328125 744.444335938 c 0
 111.111328125 713.76171875 86.23828125 688.888671875 55.5556640625 688.888671875 c 0
 24.873046875 688.888671875 0 713.76171875 0 744.444335938 c 0
111.111328125 744.444335938 m 0
 111.111328125 775.126953125 135.984375 800 166.666992188 800 c 0
 197.349609375 800 222.22265625 775.126953125 222.22265625 744.444335938 c 0
 222.22265625 713.76171875 197.349609375 688.888671875 166.666992188 688.888671875 c 0
 135.984375 688.888671875 111.111328125 713.76171875 111.111328125 744.444335938 c 0
222.22265625 744.444335938 m 0
 222.22265625 775.126953125 247.095703125 800 277.77734375 800 c 0
 308.459960938 800 333.333007812 775.126953125 333.333007812 744.444335938 c 0
 333.333007812 713.76171875 308.459960938 688.888671875 277.77734375 688.888671875 c 0
 247.095703125 688.888671875 222.22265625 713.76171875 222.22265625 744.444335938 c 0
333.333007812 744.444335938 m 0
 333.333007812 775.126953125 358.206054688 800 388.888671875 800 c 0
 419.571289062 800 444.444335938 775.126953125 444.444335938 744.444335938 c 0
 444.444335938 713.76171875 419.571289062 688.888671875 388.888671875 688.888671875 c 0
 358.206054688 688.888671875 333.333007812 713.76171875 333.333007812 744.444335938 c 0
444.444335938 744.444335938 m 0
 444.444335938 775.126953125 469.317382812 800 500 800 c 0
 530.682617188 800 555.555664062 775.126953125 555.555664062 744.444335938 c 0
 555.555664062 713.76171875 530.682617188 688.888671875 500 688.888671875 c 0
 469.317382812 688.888671875 444.444335938 713.76171875 444.444335938 744.444335938 c 0
555.555664062 744.444335938 m 0
 555.555664062 775.126953125 580.428710938 800 611.111328125 800 c 0
 641.793945312 800 666.666992188 775.126953125 666.666992188 744.444335938 c 0
 666.666992188 713.76171875 641.793945312 688.888671875 611.111328125 688.888671875 c 0
 580.428710938 688.888671875 555.555664062 713.76171875 555.555664062 744.444335938 c 0
555.555664062 633.333007812 m 0
 555.555664062 664.015625 580.428710938 688.888671875 611.111328125 688.888671875 c 0
 641.793945312 688.888671875 666.666992188 664.015625 666.666992188 633.333007812 c 0
 666.666992188 602.650390625 641.793945312 577.77734375 611.111328125 577.77734375 c 0
 580.428710938 577.77734375 555.555664062 602.650390625 555.555664062 633.333007812 c 0
0 -144.444335938 m 0
 0 -113.76171875 24.873046875 -88.888671875 55.5556640625 -88.888671875 c 0
 86.23828125 -88.888671875 111.111328125 -113.76171875 111.111328125 -144.444335938 c 0
 111.111328125 -175.126953125 86.23828125 -200 55.5556640625 -200 c 0
 24.873046875 -200 0 -175.126953125 0 -144.444335938 c 0
0 -33.3330078125 m 0
 0 -2.650390625 24.873046875 22.22265625 55.5556640625 22.22265625 c 0
 86.23828125 22.22265625 111.111328125 -2.650390625 111.111328125 -33.3330078125 c 0
 111.111328125 -64.015625 86.23828125 -88.888671875 55.5556640625 -88.888671875 c 0
 24.873046875 -88.888671875 0 -64.015625 0 -33.3330078125 c 0
111.111328125 77.77734375 m 0
 111.111328125 108.459960938 135.984375 133.333007812 166.666992188 133.333007812 c 0
 197.349609375 133.333007812 222.22265625 108.459960938 222.22265625 77.77734375 c 0
 222.22265625 47.095703125 197.349609375 22.22265625 166.666992188 22.22265625 c 0
 135.984375 22.22265625 111.111328125 47.095703125 111.111328125 77.77734375 c 0
222.22265625 188.888671875 m 0
 222.22265625 219.571289062 247.095703125 244.444335938 277.77734375 244.444335938 c 0
 308.459960938 244.444335938 333.333007812 219.571289062 333.333007812 188.888671875 c 0
 333.333007812 158.206054688 308.459960938 133.333007812 277.77734375 133.333007812 c 0
 247.095703125 133.333007812 222.22265625 158.206054688 222.22265625 188.888671875 c 0
333.333007812 300 m 0
 333.333007812 330.682617188 358.206054688 355.555664062 388.888671875 355.555664062 c 0
 419.571289062 355.555664062 444.444335938 330.682617188 444.444335938 300 c 0
 444.444335938 269.317382812 419.571289062 244.444335938 388.888671875 244.444335938 c 0
 358.206054688 244.444335938 333.333007812 269.317382812 333.333007812 300 c 0
444.444335938 411.111328125 m 0
 444.444335938 441.793945312 469.317382812 466.666992188 500 466.666992188 c 0
 530.682617188 466.666992188 555.555664062 441.793945312 555.555664062 411.111328125 c 0
 555.555664062 380.428710938 530.682617188 355.555664062 500 355.555664062 c 0
 469.317382812 355.555664062 444.444335938 380.428710938 444.444335938 411.111328125 c 0
555.555664062 522.22265625 m 0
 555.555664062 552.904296875 580.428710938 577.77734375 611.111328125 577.77734375 c 0
 641.793945312 577.77734375 666.666992188 552.904296875 666.666992188 522.22265625 c 0
 666.666992188 491.540039062 641.793945312 466.666992188 611.111328125 466.666992188 c 0
 580.428710938 466.666992188 555.555664062 491.540039062 555.555664062 522.22265625 c 0
EndSplineSet
Validated: 524293
EndChar

StartChar: g
Encoding: 103 103 19
Width: 666
VWidth: 0
Flags: HW
LayerCount: 2
Fore
SplineSet
100 50 m 0
 100 77.6142578125 122.385742188 100 150 100 c 0
 177.614257812 100 200 77.6142578125 200 50 c 0
 200 22.3857421875 177.614257812 0 150 0 c 0
 122.385742188 0 100 22.3857421875 100 50 c 0
200 50 m 0
 200 77.6142578125 222.385742188 100 250 100 c 0
 277.614257812 100 300 77.6142578125 300 50 c 0
 300 22.3857421875 277.614257812 0 250 0 c 0
 222.385742188 0 200 22.3857421875 200 50 c 0
300 50 m 0
 300 77.6142578125 322.385742188 100 350 100 c 0
 377.614257812 100 400 77.6142578125 400 50 c 0
 400 22.3857421875 377.614257812 0 350 0 c 0
 322.385742188 0 300 22.3857421875 300 50 c 0
0 150 m 0
 0 177.614257812 22.3857421875 200 50 200 c 0
 77.6142578125 200 100 177.614257812 100 150 c 0
 100 122.385742188 77.6142578125 100 50 100 c 0
 22.3857421875 100 0 122.385742188 0 150 c 0
0 250 m 0
 0 277.614257812 22.3857421875 300 50 300 c 0
 77.6142578125 300 100 277.614257812 100 250 c 0
 100 222.385742188 77.6142578125 200 50 200 c 0
 22.3857421875 200 0 222.385742188 0 250 c 0
0 350 m 0
 0 377.614257812 22.3857421875 400 50 400 c 0
 77.6142578125 400 100 377.614257812 100 350 c 0
 100 322.385742188 77.6142578125 300 50 300 c 0
 22.3857421875 300 0 322.385742188 0 350 c 0
0 450 m 0
 0 477.614257812 22.3857421875 500 50 500 c 0
 77.6142578125 500 100 477.614257812 100 450 c 0
 100 422.385742188 77.6142578125 400 50 400 c 0
 22.3857421875 400 0 422.385742188 0 450 c 0
100 550 m 0
 100 577.614257812 122.385742188 600 150 600 c 0
 177.614257812 600 200 577.614257812 200 550 c 0
 200 522.385742188 177.614257812 500 150 500 c 0
 122.385742188 500 100 522.385742188 100 550 c 0
200 550 m 0
 200 577.614257812 222.385742188 600 250 600 c 0
 277.614257812 600 300 577.614257812 300 550 c 0
 300 522.385742188 277.614257812 500 250 500 c 0
 222.385742188 500 200 522.385742188 200 550 c 0
300 550 m 0
 300 577.614257812 322.385742188 600 350 600 c 0
 377.614257812 600 400 577.614257812 400 550 c 0
 400 522.385742188 377.614257812 500 350 500 c 0
 322.385742188 500 300 522.385742188 300 550 c 0
400 450 m 0
 400 477.614257812 422.385742188 500 450 500 c 0
 477.614257812 500 500 477.614257812 500 450 c 0
 500 422.385742188 477.614257812 400 450 400 c 0
 422.385742188 400 400 422.385742188 400 450 c 0
400 350 m 0
 400 377.614257812 422.385742188 400 450 400 c 0
 477.614257812 400 500 377.614257812 500 350 c 0
 500 322.385742188 477.614257812 300 450 300 c 0
 422.385742188 300 400 322.385742188 400 350 c 0
400 250 m 0
 400 277.614257812 422.385742188 300 450 300 c 0
 477.614257812 300 500 277.614257812 500 250 c 0
 500 222.385742188 477.614257812 200 450 200 c 0
 422.385742188 200 400 222.385742188 400 250 c 0
400 150 m 0
 400 177.614257812 422.385742188 200 450 200 c 0
 477.614257812 200 500 177.614257812 500 150 c 0
 500 122.385742188 477.614257812 100 450 100 c 0
 422.385742188 100 400 122.385742188 400 150 c 0
400 50 m 0
 400 77.6142578125 422.385742188 100 450 100 c 0
 477.614257812 100 500 77.6142578125 500 50 c 0
 500 22.3857421875 477.614257812 0 450 0 c 0
 422.385742188 0 400 22.3857421875 400 50 c 0
400 -50 m 0
 400 -22.3857421875 422.385742188 0 450 0 c 0
 477.614257812 0 500 -22.3857421875 500 -50 c 0
 500 -77.6142578125 477.614257812 -100 450 -100 c 0
 422.385742188 -100 400 -77.6142578125 400 -50 c 0
300 -150 m 0
 300 -122.385742188 322.385742188 -100 350 -100 c 0
 377.614257812 -100 400 -122.385742188 400 -150 c 0
 400 -177.614257812 377.614257812 -200 350 -200 c 0
 322.385742188 -200 300 -177.614257812 300 -150 c 0
200 -150 m 0
 200 -122.385742188 222.385742188 -100 250 -100 c 0
 277.614257812 -100 300 -122.385742188 300 -150 c 0
 300 -177.614257812 277.614257812 -200 250 -200 c 0
 222.385742188 -200 200 -177.614257812 200 -150 c 0
100 -150 m 0
 100 -122.385742188 122.385742188 -100 150 -100 c 0
 177.614257812 -100 200 -122.385742188 200 -150 c 0
 200 -177.614257812 177.614257812 -200 150 -200 c 0
 122.385742188 -200 100 -177.614257812 100 -150 c 0
EndSplineSet
Validated: 524293
EndChar

StartChar: l
Encoding: 108 108 20
Width: 444
VWidth: 0
Flags: HW
LayerCount: 2
Fore
SplineSet
0 744.444335938 m 0
 0 775.126953125 24.873046875 800 55.5556640625 800 c 0
 86.23828125 800 111.111328125 775.126953125 111.111328125 744.444335938 c 0
 111.111328125 713.76171875 86.23828125 688.888671875 55.5556640625 688.888671875 c 0
 24.873046875 688.888671875 0 713.76171875 0 744.444335938 c 0
0 633.333007812 m 0
 0 664.015625 24.873046875 688.888671875 55.5556640625 688.888671875 c 0
 86.23828125 688.888671875 111.111328125 664.015625 111.111328125 633.333007812 c 0
 111.111328125 602.650390625 86.23828125 577.77734375 55.5556640625 577.77734375 c 0
 24.873046875 577.77734375 0 602.650390625 0 633.333007812 c 0
0 522.22265625 m 0
 0 552.904296875 24.873046875 577.77734375 55.5556640625 577.77734375 c 0
 86.23828125 577.77734375 111.111328125 552.904296875 111.111328125 522.22265625 c 0
 111.111328125 491.540039062 86.23828125 466.666992188 55.5556640625 466.666992188 c 0
 24.873046875 466.666992188 0 491.540039062 0 522.22265625 c 0
0 411.111328125 m 0
 0 441.793945312 24.873046875 466.666992188 55.5556640625 466.666992188 c 0
 86.23828125 466.666992188 111.111328125 441.793945312 111.111328125 411.111328125 c 0
 111.111328125 380.428710938 86.23828125 355.555664062 55.5556640625 355.555664062 c 0
 24.873046875 355.555664062 0 380.428710938 0 411.111328125 c 0
0 300 m 0
 0 330.682617188 24.873046875 355.555664062 55.5556640625 355.555664062 c 0
 86.23828125 355.555664062 111.111328125 330.682617188 111.111328125 300 c 0
 111.111328125 269.317382812 86.23828125 244.444335938 55.5556640625 244.444335938 c 0
 24.873046875 244.444335938 0 269.317382812 0 300 c 0
0 188.888671875 m 0
 0 219.571289062 24.873046875 244.444335938 55.5556640625 244.444335938 c 0
 86.23828125 244.444335938 111.111328125 219.571289062 111.111328125 188.888671875 c 0
 111.111328125 158.206054688 86.23828125 133.333007812 55.5556640625 133.333007812 c 0
 24.873046875 133.333007812 0 158.206054688 0 188.888671875 c 0
0 77.77734375 m 0
 0 108.459960938 24.873046875 133.333007812 55.5556640625 133.333007812 c 0
 86.23828125 133.333007812 111.111328125 108.459960938 111.111328125 77.77734375 c 0
 111.111328125 47.095703125 86.23828125 22.22265625 55.5556640625 22.22265625 c 0
 24.873046875 22.22265625 0 47.095703125 0 77.77734375 c 0
111.111328125 -33.3330078125 m 0
 111.111328125 -2.650390625 135.984375 22.22265625 166.666992188 22.22265625 c 0
 197.349609375 22.22265625 222.22265625 -2.650390625 222.22265625 -33.3330078125 c 0
 222.22265625 -64.015625 197.349609375 -88.888671875 166.666992188 -88.888671875 c 0
 135.984375 -88.888671875 111.111328125 -64.015625 111.111328125 -33.3330078125 c 0
222.22265625 -33.3330078125 m 0
 222.22265625 -2.650390625 247.095703125 22.22265625 277.77734375 22.22265625 c 0
 308.459960938 22.22265625 333.333007812 -2.650390625 333.333007812 -33.3330078125 c 0
 333.333007812 -64.015625 308.459960938 -88.888671875 277.77734375 -88.888671875 c 0
 247.095703125 -88.888671875 222.22265625 -64.015625 222.22265625 -33.3330078125 c 0
EndSplineSet
Validated: 524293
EndChar

StartChar: ampersand
Encoding: 38 38 22
Width: 777
VWidth: 0
Flags: HW
LayerCount: 2
Fore
SplineSet
0 77.77734375 m 0
 0 108.459960938 24.873046875 133.333007812 55.5556640625 133.333007812 c 0
 86.23828125 133.333007812 111.111328125 108.459960938 111.111328125 77.77734375 c 0
 111.111328125 47.095703125 86.23828125 22.22265625 55.5556640625 22.22265625 c 0
 24.873046875 22.22265625 0 47.095703125 0 77.77734375 c 0
0 -33.3330078125 m 0
 0 -2.650390625 24.873046875 22.22265625 55.5556640625 22.22265625 c 0
 86.23828125 22.22265625 111.111328125 -2.650390625 111.111328125 -33.3330078125 c 0
 111.111328125 -64.015625 86.23828125 -88.888671875 55.5556640625 -88.888671875 c 0
 24.873046875 -88.888671875 0 -64.015625 0 -33.3330078125 c 0
111.111328125 -144.444335938 m 0
 111.111328125 -113.76171875 135.984375 -88.888671875 166.666992188 -88.888671875 c 0
 197.349609375 -88.888671875 222.22265625 -113.76171875 222.22265625 -144.444335938 c 0
 222.22265625 -175.126953125 197.349609375 -200 166.666992188 -200 c 0
 135.984375 -200 111.111328125 -175.126953125 111.111328125 -144.444335938 c 0
222.22265625 -144.444335938 m 0
 222.22265625 -113.76171875 247.095703125 -88.888671875 277.77734375 -88.888671875 c 0
 308.459960938 -88.888671875 333.333007812 -113.76171875 333.333007812 -144.444335938 c 0
 333.333007812 -175.126953125 308.459960938 -200 277.77734375 -200 c 0
 247.095703125 -200 222.22265625 -175.126953125 222.22265625 -144.444335938 c 0
333.333007812 -144.444335938 m 0
 333.333007812 -113.76171875 358.206054688 -88.888671875 388.888671875 -88.888671875 c 0
 419.571289062 -88.888671875 444.444335938 -113.76171875 444.444335938 -144.444335938 c 0
 444.444335938 -175.126953125 419.571289062 -200 388.888671875 -200 c 0
 358.206054688 -200 333.333007812 -175.126953125 333.333007812 -144.444335938 c 0
444.444335938 -33.3330078125 m 0
 444.444335938 -2.650390625 469.317382812 22.22265625 500 22.22265625 c 0
 530.682617188 22.22265625 555.555664062 -2.650390625 555.555664062 -33.3330078125 c 0
 555.555664062 -64.015625 530.682617188 -88.888671875 500 -88.888671875 c 0
 469.317382812 -88.888671875 444.444335938 -64.015625 444.444335938 -33.3330078125 c 0
555.555664062 77.77734375 m 0
 555.555664062 108.459960938 580.428710938 133.333007812 611.111328125 133.333007812 c 0
 641.793945312 133.333007812 666.666992188 108.459960938 666.666992188 77.77734375 c 4
 666.666992188 47.095703125 641.793945312 22.22265625 611.111328125 22.22265625 c 0
 580.428710938 22.22265625 555.555664062 47.095703125 555.555664062 77.77734375 c 0
555.555664062 -144.444335938 m 0
 555.555664062 -113.76171875 580.428710938 -88.888671875 611.111328125 -88.888671875 c 0
 641.793945312 -88.888671875 666.666992188 -113.76171875 666.666992188 -144.444335938 c 0
 666.666992188 -175.126953125 641.793945312 -200 611.111328125 -200 c 0
 580.428710938 -200 555.555664062 -175.126953125 555.555664062 -144.444335938 c 0
333.333007812 77.77734375 m 0
 333.333007812 108.459960938 358.206054688 133.333007812 388.888671875 133.333007812 c 0
 419.571289062 133.333007812 444.444335938 108.459960938 444.444335938 77.77734375 c 0
 444.444335938 47.095703125 419.571289062 22.22265625 388.888671875 22.22265625 c 0
 358.206054688 22.22265625 333.333007812 47.095703125 333.333007812 77.77734375 c 0
222.22265625 188.888671875 m 0
 222.22265625 219.571289062 247.095703125 244.444335938 277.77734375 244.444335938 c 0
 308.459960938 244.444335938 333.333007812 219.571289062 333.333007812 188.888671875 c 0
 333.333007812 158.206054688 308.459960938 133.333007812 277.77734375 133.333007812 c 0
 247.095703125 133.333007812 222.22265625 158.206054688 222.22265625 188.888671875 c 0
111.111328125 188.888671875 m 0
 111.111328125 219.571289062 135.984375 244.444335938 166.666992188 244.444335938 c 0
 197.349609375 244.444335938 222.22265625 219.571289062 222.22265625 188.888671875 c 0
 222.22265625 158.206054688 197.349609375 133.333007812 166.666992188 133.333007812 c 0
 135.984375 133.333007812 111.111328125 158.206054688 111.111328125 188.888671875 c 0
111.111328125 300 m 0
 111.111328125 330.682617188 135.984375 355.555664062 166.666992188 355.555664062 c 0
 197.349609375 355.555664062 222.22265625 330.682617188 222.22265625 300 c 0
 222.22265625 269.317382812 197.349609375 244.444335938 166.666992188 244.444335938 c 0
 135.984375 244.444335938 111.111328125 269.317382812 111.111328125 300 c 0
222.22265625 300 m 0
 222.22265625 330.682617188 247.095703125 355.555664062 277.77734375 355.555664062 c 0
 308.459960938 355.555664062 333.333007812 330.682617188 333.333007812 300 c 0
 333.333007812 269.317382812 308.459960938 244.444335938 277.77734375 244.444335938 c 0
 247.095703125 244.444335938 222.22265625 269.317382812 222.22265625 300 c 0
333.333007812 411.111328125 m 0
 333.333007812 441.793945312 358.206054688 466.666992188 388.888671875 466.666992188 c 0
 419.571289062 466.666992188 444.444335938 441.793945312 444.444335938 411.111328125 c 0
 444.444335938 380.428710938 419.571289062 355.555664062 388.888671875 355.555664062 c 0
 358.206054688 355.555664062 333.333007812 380.428710938 333.333007812 411.111328125 c 0
0 411.111328125 m 0
 0 441.793945312 24.873046875 466.666992188 55.5556640625 466.666992188 c 0
 86.23828125 466.666992188 111.111328125 441.793945312 111.111328125 411.111328125 c 0
 111.111328125 380.428710938 86.23828125 355.555664062 55.5556640625 355.555664062 c 0
 24.873046875 355.555664062 0 380.428710938 0 411.111328125 c 0
0 522.22265625 m 0
 0 552.904296875 24.873046875 577.77734375 55.5556640625 577.77734375 c 0
 86.23828125 577.77734375 111.111328125 552.904296875 111.111328125 522.22265625 c 0
 111.111328125 491.540039062 86.23828125 466.666992188 55.5556640625 466.666992188 c 0
 24.873046875 466.666992188 0 491.540039062 0 522.22265625 c 0
333.333007812 522.22265625 m 0
 333.333007812 552.904296875 358.206054688 577.77734375 388.888671875 577.77734375 c 0
 419.571289062 577.77734375 444.444335938 552.904296875 444.444335938 522.22265625 c 0
 444.444335938 491.540039062 419.571289062 466.666992188 388.888671875 466.666992188 c 0
 358.206054688 466.666992188 333.333007812 491.540039062 333.333007812 522.22265625 c 0
222.22265625 633.333007812 m 0
 222.22265625 664.015625 247.095703125 688.888671875 277.77734375 688.888671875 c 0
 308.459960938 688.888671875 333.333007812 664.015625 333.333007812 633.333007812 c 0
 333.333007812 602.650390625 308.459960938 577.77734375 277.77734375 577.77734375 c 0
 247.095703125 577.77734375 222.22265625 602.650390625 222.22265625 633.333007812 c 0
111.111328125 633.333007812 m 0
 111.111328125 664.015625 135.984375 688.888671875 166.666992188 688.888671875 c 0
 197.349609375 688.888671875 222.22265625 664.015625 222.22265625 633.333007812 c 0
 222.22265625 602.650390625 197.349609375 577.77734375 166.666992188 577.77734375 c 0
 135.984375 577.77734375 111.111328125 602.650390625 111.111328125 633.333007812 c 0
EndSplineSet
Validated: 524293
EndChar

StartChar: C
Encoding: 67 67 23
Width: 777
VWidth: 0
Flags: HW
LayerCount: 2
Fore
SplineSet
0 633.333007812 m 0
 0 664.015625 24.873046875 688.888671875 55.5556640625 688.888671875 c 0
 86.23828125 688.888671875 111.111328125 664.015625 111.111328125 633.333007812 c 0
 111.111328125 602.650390625 86.23828125 577.77734375 55.5556640625 577.77734375 c 0
 24.873046875 577.77734375 0 602.650390625 0 633.333007812 c 0
111.111328125 744.444335938 m 0
 111.111328125 775.126953125 135.984375 800 166.666992188 800 c 0
 197.349609375 800 222.22265625 775.126953125 222.22265625 744.444335938 c 0
 222.22265625 713.76171875 197.349609375 688.888671875 166.666992188 688.888671875 c 0
 135.984375 688.888671875 111.111328125 713.76171875 111.111328125 744.444335938 c 0
222.22265625 744.444335938 m 0
 222.22265625 775.126953125 247.095703125 800 277.77734375 800 c 0
 308.459960938 800 333.333007812 775.126953125 333.333007812 744.444335938 c 0
 333.333007812 713.76171875 308.459960938 688.888671875 277.77734375 688.888671875 c 0
 247.095703125 688.888671875 222.22265625 713.76171875 222.22265625 744.444335938 c 0
333.333007812 744.444335938 m 0
 333.333007812 775.126953125 358.206054688 800 388.888671875 800 c 0
 419.571289062 800 444.444335938 775.126953125 444.444335938 744.444335938 c 0
 444.444335938 713.76171875 419.571289062 688.888671875 388.888671875 688.888671875 c 0
 358.206054688 688.888671875 333.333007812 713.76171875 333.333007812 744.444335938 c 0
444.444335938 744.444335938 m 0
 444.444335938 775.126953125 469.317382812 800 500 800 c 0
 530.682617188 800 555.555664062 775.126953125 555.555664062 744.444335938 c 0
 555.555664062 713.76171875 530.682617188 688.888671875 500 688.888671875 c 0
 469.317382812 688.888671875 444.444335938 713.76171875 444.444335938 744.444335938 c 0
555.555664062 633.333007812 m 0
 555.555664062 664.015625 580.428710938 688.888671875 611.111328125 688.888671875 c 0
 641.793945312 688.888671875 666.666992188 664.015625 666.666992188 633.333007812 c 4
 666.666992188 602.650390625 641.793945312 577.77734375 611.111328125 577.77734375 c 0
 580.428710938 577.77734375 555.555664062 602.650390625 555.555664062 633.333007812 c 0
555.555664062 -33.3330078125 m 0
 555.555664062 -2.650390625 580.428710938 22.22265625 611.111328125 22.22265625 c 0
 641.793945312 22.22265625 666.666992188 -2.650390625 666.666992188 -33.3330078125 c 0
 666.666992188 -64.015625 641.793945312 -88.888671875 611.111328125 -88.888671875 c 0
 580.428710938 -88.888671875 555.555664062 -64.015625 555.555664062 -33.3330078125 c 0
444.444335938 -144.444335938 m 0
 444.444335938 -113.76171875 469.317382812 -88.888671875 500 -88.888671875 c 0
 530.682617188 -88.888671875 555.555664062 -113.76171875 555.555664062 -144.444335938 c 0
 555.555664062 -175.126953125 530.682617188 -200 500 -200 c 0
 469.317382812 -200 444.444335938 -175.126953125 444.444335938 -144.444335938 c 0
333.333007812 -144.444335938 m 0
 333.333007812 -113.76171875 358.206054688 -88.888671875 388.888671875 -88.888671875 c 0
 419.571289062 -88.888671875 444.444335938 -113.76171875 444.444335938 -144.444335938 c 0
 444.444335938 -175.126953125 419.571289062 -200 388.888671875 -200 c 0
 358.206054688 -200 333.333007812 -175.126953125 333.333007812 -144.444335938 c 0
222.22265625 -144.444335938 m 0
 222.22265625 -113.76171875 247.095703125 -88.888671875 277.77734375 -88.888671875 c 0
 308.459960938 -88.888671875 333.333007812 -113.76171875 333.333007812 -144.444335938 c 0
 333.333007812 -175.126953125 308.459960938 -200 277.77734375 -200 c 0
 247.095703125 -200 222.22265625 -175.126953125 222.22265625 -144.444335938 c 0
111.111328125 -144.444335938 m 0
 111.111328125 -113.76171875 135.984375 -88.888671875 166.666992188 -88.888671875 c 0
 197.349609375 -88.888671875 222.22265625 -113.76171875 222.22265625 -144.444335938 c 0
 222.22265625 -175.126953125 197.349609375 -200 166.666992188 -200 c 0
 135.984375 -200 111.111328125 -175.126953125 111.111328125 -144.444335938 c 0
0 -33.3330078125 m 0
 0 -2.650390625 24.873046875 22.22265625 55.5556640625 22.22265625 c 0
 86.23828125 22.22265625 111.111328125 -2.650390625 111.111328125 -33.3330078125 c 0
 111.111328125 -64.015625 86.23828125 -88.888671875 55.5556640625 -88.888671875 c 0
 24.873046875 -88.888671875 0 -64.015625 0 -33.3330078125 c 0
0 77.77734375 m 0
 0 108.459960938 24.873046875 133.333007812 55.5556640625 133.333007812 c 0
 86.23828125 133.333007812 111.111328125 108.459960938 111.111328125 77.77734375 c 0
 111.111328125 47.095703125 86.23828125 22.22265625 55.5556640625 22.22265625 c 0
 24.873046875 22.22265625 0 47.095703125 0 77.77734375 c 0
0 188.888671875 m 0
 0 219.571289062 24.873046875 244.444335938 55.5556640625 244.444335938 c 0
 86.23828125 244.444335938 111.111328125 219.571289062 111.111328125 188.888671875 c 0
 111.111328125 158.206054688 86.23828125 133.333007812 55.5556640625 133.333007812 c 0
 24.873046875 133.333007812 0 158.206054688 0 188.888671875 c 0
0 300 m 0
 0 330.682617188 24.873046875 355.555664062 55.5556640625 355.555664062 c 0
 86.23828125 355.555664062 111.111328125 330.682617188 111.111328125 300 c 0
 111.111328125 269.317382812 86.23828125 244.444335938 55.5556640625 244.444335938 c 0
 24.873046875 244.444335938 0 269.317382812 0 300 c 0
0 411.111328125 m 0
 0 441.793945312 24.873046875 466.666992188 55.5556640625 466.666992188 c 0
 86.23828125 466.666992188 111.111328125 441.793945312 111.111328125 411.111328125 c 0
 111.111328125 380.428710938 86.23828125 355.555664062 55.5556640625 355.555664062 c 0
 24.873046875 355.555664062 0 380.428710938 0 411.111328125 c 0
0 522.22265625 m 0
 0 552.904296875 24.873046875 577.77734375 55.5556640625 577.77734375 c 0
 86.23828125 577.77734375 111.111328125 552.904296875 111.111328125 522.22265625 c 0
 111.111328125 491.540039062 86.23828125 466.666992188 55.5556640625 466.666992188 c 0
 24.873046875 466.666992188 0 491.540039062 0 522.22265625 c 0
EndSplineSet
Validated: 524293
EndChar

StartChar: b
Encoding: 98 98 24
Width: 666
VWidth: 0
Flags: HW
LayerCount: 2
Fore
SplineSet
111.111328125 -33.3330078125 m 0
 111.111328125 -2.650390625 135.984375 22.22265625 166.666992188 22.22265625 c 0
 197.349609375 22.22265625 222.22265625 -2.650390625 222.22265625 -33.3330078125 c 0
 222.22265625 -64.015625 197.349609375 -88.888671875 166.666992188 -88.888671875 c 0
 135.984375 -88.888671875 111.111328125 -64.015625 111.111328125 -33.3330078125 c 0
222.22265625 -33.3330078125 m 0
 222.22265625 -2.650390625 247.095703125 22.22265625 277.77734375 22.22265625 c 0
 308.459960938 22.22265625 333.333007812 -2.650390625 333.333007812 -33.3330078125 c 0
 333.333007812 -64.015625 308.459960938 -88.888671875 277.77734375 -88.888671875 c 0
 247.095703125 -88.888671875 222.22265625 -64.015625 222.22265625 -33.3330078125 c 0
333.333007812 -33.3330078125 m 0
 333.333007812 -2.650390625 358.206054688 22.22265625 388.888671875 22.22265625 c 0
 419.571289062 22.22265625 444.444335938 -2.650390625 444.444335938 -33.3330078125 c 0
 444.444335938 -64.015625 419.571289062 -88.888671875 388.888671875 -88.888671875 c 0
 358.206054688 -88.888671875 333.333007812 -64.015625 333.333007812 -33.3330078125 c 0
0 -33.3330078125 m 0
 0 -2.650390625 24.873046875 22.22265625 55.5556640625 22.22265625 c 0
 86.23828125 22.22265625 111.111328125 -2.650390625 111.111328125 -33.3330078125 c 0
 111.111328125 -64.015625 86.23828125 -88.888671875 55.5556640625 -88.888671875 c 0
 24.873046875 -88.888671875 0 -64.015625 0 -33.3330078125 c 0
444.444335938 77.77734375 m 0
 444.444335938 108.459960938 469.317382812 133.333007812 500 133.333007812 c 0
 530.682617188 133.333007812 555.555664062 108.459960938 555.555664062 77.77734375 c 0
 555.555664062 47.095703125 530.682617188 22.22265625 500 22.22265625 c 0
 469.317382812 22.22265625 444.444335938 47.095703125 444.444335938 77.77734375 c 0
444.444335938 188.888671875 m 0
 444.444335938 219.571289062 469.317382812 244.444335938 500 244.444335938 c 0
 530.682617188 244.444335938 555.555664062 219.571289062 555.555664062 188.888671875 c 0
 555.555664062 158.206054688 530.682617188 133.333007812 500 133.333007812 c 0
 469.317382812 133.333007812 444.444335938 158.206054688 444.444335938 188.888671875 c 0
444.444335938 300 m 0
 444.444335938 330.682617188 469.317382812 355.555664062 500 355.555664062 c 0
 530.682617188 355.555664062 555.555664062 330.682617188 555.555664062 300 c 4
 555.555664062 269.317382812 530.682617188 244.444335938 500 244.444335938 c 0
 469.317382812 244.444335938 444.444335938 269.317382812 444.444335938 300 c 0
444.444335938 411.111328125 m 0
 444.444335938 441.793945312 469.317382812 466.666992188 500 466.666992188 c 0
 530.682617188 466.666992188 555.555664062 441.793945312 555.555664062 411.111328125 c 0
 555.555664062 380.428710938 530.682617188 355.555664062 500 355.555664062 c 0
 469.317382812 355.555664062 444.444335938 380.428710938 444.444335938 411.111328125 c 0
0 522.22265625 m 0
 0 552.904296875 24.873046875 577.77734375 55.5556640625 577.77734375 c 0
 86.23828125 577.77734375 111.111328125 552.904296875 111.111328125 522.22265625 c 0
 111.111328125 491.540039062 86.23828125 466.666992188 55.5556640625 466.666992188 c 0
 24.873046875 466.666992188 0 491.540039062 0 522.22265625 c 0
0 633.333007812 m 0
 0 664.015625 24.873046875 688.888671875 55.5556640625 688.888671875 c 0
 86.23828125 688.888671875 111.111328125 664.015625 111.111328125 633.333007812 c 0
 111.111328125 602.650390625 86.23828125 577.77734375 55.5556640625 577.77734375 c 0
 24.873046875 577.77734375 0 602.650390625 0 633.333007812 c 0
0 744.444335938 m 0
 0 775.126953125 24.873046875 800 55.5556640625 800 c 0
 86.23828125 800 111.111328125 775.126953125 111.111328125 744.444335938 c 0
 111.111328125 713.76171875 86.23828125 688.888671875 55.5556640625 688.888671875 c 0
 24.873046875 688.888671875 0 713.76171875 0 744.444335938 c 0
333.333007812 522.22265625 m 0
 333.333007812 552.904296875 358.206054688 577.77734375 388.888671875 577.77734375 c 0
 419.571289062 577.77734375 444.444335938 552.904296875 444.444335938 522.22265625 c 0
 444.444335938 491.540039062 419.571289062 466.666992188 388.888671875 466.666992188 c 0
 358.206054688 466.666992188 333.333007812 491.540039062 333.333007812 522.22265625 c 0
222.22265625 522.22265625 m 0
 222.22265625 552.904296875 247.095703125 577.77734375 277.77734375 577.77734375 c 0
 308.459960938 577.77734375 333.333007812 552.904296875 333.333007812 522.22265625 c 0
 333.333007812 491.540039062 308.459960938 466.666992188 277.77734375 466.666992188 c 0
 247.095703125 466.666992188 222.22265625 491.540039062 222.22265625 522.22265625 c 0
111.111328125 522.22265625 m 0
 111.111328125 552.904296875 135.984375 577.77734375 166.666992188 577.77734375 c 0
 197.349609375 577.77734375 222.22265625 552.904296875 222.22265625 522.22265625 c 0
 222.22265625 491.540039062 197.349609375 466.666992188 166.666992188 466.666992188 c 0
 135.984375 466.666992188 111.111328125 491.540039062 111.111328125 522.22265625 c 0
0 411.111328125 m 0
 0 441.793945312 24.873046875 466.666992188 55.5556640625 466.666992188 c 0
 86.23828125 466.666992188 111.111328125 441.793945312 111.111328125 411.111328125 c 0
 111.111328125 380.428710938 86.23828125 355.555664062 55.5556640625 355.555664062 c 0
 24.873046875 355.555664062 0 380.428710938 0 411.111328125 c 0
0 300 m 0
 0 330.682617188 24.873046875 355.555664062 55.5556640625 355.555664062 c 0
 86.23828125 355.555664062 111.111328125 330.682617188 111.111328125 300 c 0
 111.111328125 269.317382812 86.23828125 244.444335938 55.5556640625 244.444335938 c 0
 24.873046875 244.444335938 0 269.317382812 0 300 c 0
0 188.888671875 m 0
 0 219.571289062 24.873046875 244.444335938 55.5556640625 244.444335938 c 0
 86.23828125 244.444335938 111.111328125 219.571289062 111.111328125 188.888671875 c 0
 111.111328125 158.206054688 86.23828125 133.333007812 55.5556640625 133.333007812 c 0
 24.873046875 133.333007812 0 158.206054688 0 188.888671875 c 0
0 77.77734375 m 0
 0 108.459960938 24.873046875 133.333007812 55.5556640625 133.333007812 c 0
 86.23828125 133.333007812 111.111328125 108.459960938 111.111328125 77.77734375 c 0
 111.111328125 47.095703125 86.23828125 22.22265625 55.5556640625 22.22265625 c 0
 24.873046875 22.22265625 0 47.095703125 0 77.77734375 c 0
EndSplineSet
Validated: 524293
EndChar

StartChar: e
Encoding: 101 101 25
Width: 666
VWidth: 0
Flags: HW
LayerCount: 2
Fore
SplineSet
333.333007812 -33.3330078125 m 0
 333.333007812 -2.650390625 358.206054688 22.22265625 388.888671875 22.22265625 c 0
 419.571289062 22.22265625 444.444335938 -2.650390625 444.444335938 -33.3330078125 c 0
 444.444335938 -64.015625 419.571289062 -88.888671875 388.888671875 -88.888671875 c 0
 358.206054688 -88.888671875 333.333007812 -64.015625 333.333007812 -33.3330078125 c 0
444.444335938 77.77734375 m 0
 444.444335938 108.459960938 469.317382812 133.333007812 500 133.333007812 c 0
 530.682617188 133.333007812 555.555664062 108.459960938 555.555664062 77.77734375 c 0
 555.555664062 47.095703125 530.682617188 22.22265625 500 22.22265625 c 0
 469.317382812 22.22265625 444.444335938 47.095703125 444.444335938 77.77734375 c 0
0 77.77734375 m 0
 0 108.459960938 24.873046875 133.333007812 55.5556640625 133.333007812 c 0
 86.23828125 133.333007812 111.111328125 108.459960938 111.111328125 77.77734375 c 0
 111.111328125 47.095703125 86.23828125 22.22265625 55.5556640625 22.22265625 c 0
 24.873046875 22.22265625 0 47.095703125 0 77.77734375 c 0
0 188.888671875 m 0
 0 219.571289062 24.873046875 244.444335938 55.5556640625 244.444335938 c 0
 86.23828125 244.444335938 111.111328125 219.571289062 111.111328125 188.888671875 c 0
 111.111328125 158.206054688 86.23828125 133.333007812 55.5556640625 133.333007812 c 0
 24.873046875 133.333007812 0 158.206054688 0 188.888671875 c 0
0 300 m 0
 0 330.682617188 24.873046875 355.555664062 55.5556640625 355.555664062 c 0
 86.23828125 355.555664062 111.111328125 330.682617188 111.111328125 300 c 0
 111.111328125 269.317382812 86.23828125 244.444335938 55.5556640625 244.444335938 c 0
 24.873046875 244.444335938 0 269.317382812 0 300 c 0
0 411.111328125 m 0
 0 441.793945312 24.873046875 466.666992188 55.5556640625 466.666992188 c 0
 86.23828125 466.666992188 111.111328125 441.793945312 111.111328125 411.111328125 c 0
 111.111328125 380.428710938 86.23828125 355.555664062 55.5556640625 355.555664062 c 0
 24.873046875 355.555664062 0 380.428710938 0 411.111328125 c 0
111.111328125 522.22265625 m 0
 111.111328125 552.904296875 135.984375 577.77734375 166.666992188 577.77734375 c 0
 197.349609375 577.77734375 222.22265625 552.904296875 222.22265625 522.22265625 c 0
 222.22265625 491.540039062 197.349609375 466.666992188 166.666992188 466.666992188 c 0
 135.984375 466.666992188 111.111328125 491.540039062 111.111328125 522.22265625 c 0
222.22265625 522.22265625 m 0
 222.22265625 552.904296875 247.095703125 577.77734375 277.77734375 577.77734375 c 0
 308.459960938 577.77734375 333.333007812 552.904296875 333.333007812 522.22265625 c 0
 333.333007812 491.540039062 308.459960938 466.666992188 277.77734375 466.666992188 c 0
 247.095703125 466.666992188 222.22265625 491.540039062 222.22265625 522.22265625 c 0
333.333007812 522.22265625 m 0
 333.333007812 552.904296875 358.206054688 577.77734375 388.888671875 577.77734375 c 0
 419.571289062 577.77734375 444.444335938 552.904296875 444.444335938 522.22265625 c 0
 444.444335938 491.540039062 419.571289062 466.666992188 388.888671875 466.666992188 c 0
 358.206054688 466.666992188 333.333007812 491.540039062 333.333007812 522.22265625 c 0
444.444335938 411.111328125 m 0
 444.444335938 441.793945312 469.317382812 466.666992188 500 466.666992188 c 0
 530.682617188 466.666992188 555.555664062 441.793945312 555.555664062 411.111328125 c 4
 555.555664062 380.428710938 530.682617188 355.555664062 500 355.555664062 c 0
 469.317382812 355.555664062 444.444335938 380.428710938 444.444335938 411.111328125 c 0
444.444335938 300 m 0
 444.444335938 330.682617188 469.317382812 355.555664062 500 355.555664062 c 0
 530.682617188 355.555664062 555.555664062 330.682617188 555.555664062 300 c 0
 555.555664062 269.317382812 530.682617188 244.444335938 500 244.444335938 c 0
 469.317382812 244.444335938 444.444335938 269.317382812 444.444335938 300 c 0
333.333007812 300 m 0
 333.333007812 330.682617188 358.206054688 355.555664062 388.888671875 355.555664062 c 0
 419.571289062 355.555664062 444.444335938 330.682617188 444.444335938 300 c 0
 444.444335938 269.317382812 419.571289062 244.444335938 388.888671875 244.444335938 c 0
 358.206054688 244.444335938 333.333007812 269.317382812 333.333007812 300 c 0
222.22265625 300 m 0
 222.22265625 330.682617188 247.095703125 355.555664062 277.77734375 355.555664062 c 0
 308.459960938 355.555664062 333.333007812 330.682617188 333.333007812 300 c 0
 333.333007812 269.317382812 308.459960938 244.444335938 277.77734375 244.444335938 c 0
 247.095703125 244.444335938 222.22265625 269.317382812 222.22265625 300 c 0
111.111328125 300 m 0
 111.111328125 330.682617188 135.984375 355.555664062 166.666992188 355.555664062 c 0
 197.349609375 355.555664062 222.22265625 330.682617188 222.22265625 300 c 0
 222.22265625 269.317382812 197.349609375 244.444335938 166.666992188 244.444335938 c 0
 135.984375 244.444335938 111.111328125 269.317382812 111.111328125 300 c 0
111.111328125 -33.3330078125 m 0
 111.111328125 -2.650390625 135.984375 22.22265625 166.666992188 22.22265625 c 0
 197.349609375 22.22265625 222.22265625 -2.650390625 222.22265625 -33.3330078125 c 0
 222.22265625 -64.015625 197.349609375 -88.888671875 166.666992188 -88.888671875 c 0
 135.984375 -88.888671875 111.111328125 -64.015625 111.111328125 -33.3330078125 c 0
222.22265625 -33.3330078125 m 0
 222.22265625 -2.650390625 247.095703125 22.22265625 277.77734375 22.22265625 c 0
 308.459960938 22.22265625 333.333007812 -2.650390625 333.333007812 -33.3330078125 c 0
 333.333007812 -64.015625 308.459960938 -88.888671875 277.77734375 -88.888671875 c 0
 247.095703125 -88.888671875 222.22265625 -64.015625 222.22265625 -33.3330078125 c 0
EndSplineSet
Validated: 524293
EndChar

StartChar: p
Encoding: 112 112 26
Width: 666
VWidth: 0
Flags: HW
LayerCount: 2
Fore
SplineSet
0 550 m 0
 0 577.614257812 22.3857421875 600 50 600 c 0
 77.6142578125 600 100 577.614257812 100 550 c 0
 100 522.385742188 77.6142578125 500 50 500 c 0
 22.3857421875 500 0 522.385742188 0 550 c 0
100 550 m 0
 100 577.614257812 122.385742188 600 150 600 c 0
 177.614257812 600 200 577.614257812 200 550 c 0
 200 522.385742188 177.614257812 500 150 500 c 0
 122.385742188 500 100 522.385742188 100 550 c 0
200 550 m 0
 200 577.614257812 222.385742188 600 250 600 c 0
 277.614257812 600 300 577.614257812 300 550 c 0
 300 522.385742188 277.614257812 500 250 500 c 0
 222.385742188 500 200 522.385742188 200 550 c 0
300 550 m 0
 300 577.614257812 322.385742188 600 350 600 c 0
 377.614257812 600 400 577.614257812 400 550 c 0
 400 522.385742188 377.614257812 500 350 500 c 0
 322.385742188 500 300 522.385742188 300 550 c 0
400 450 m 0
 400 477.614257812 422.385742188 500 450 500 c 0
 477.614257812 500 500 477.614257812 500 450 c 0
 500 422.385742188 477.614257812 400 450 400 c 0
 422.385742188 400 400 422.385742188 400 450 c 0
400 350 m 0
 400 377.614257812 422.385742188 400 450 400 c 0
 477.614257812 400 500 377.614257812 500 350 c 4
 500 322.385742188 477.614257812 300 450 300 c 0
 422.385742188 300 400 322.385742188 400 350 c 0
400 250 m 0
 400 277.614257812 422.385742188 300 450 300 c 0
 477.614257812 300 500 277.614257812 500 250 c 0
 500 222.385742188 477.614257812 200 450 200 c 0
 422.385742188 200 400 222.385742188 400 250 c 0
400 150 m 0
 400 177.614257812 422.385742188 200 450 200 c 0
 477.614257812 200 500 177.614257812 500 150 c 0
 500 122.385742188 477.614257812 100 450 100 c 0
 422.385742188 100 400 122.385742188 400 150 c 0
300 50 m 0
 300 77.6142578125 322.385742188 100 350 100 c 0
 377.614257812 100 400 77.6142578125 400 50 c 0
 400 22.3857421875 377.614257812 0 350 0 c 0
 322.385742188 0 300 22.3857421875 300 50 c 0
200 50 m 0
 200 77.6142578125 222.385742188 100 250 100 c 0
 277.614257812 100 300 77.6142578125 300 50 c 0
 300 22.3857421875 277.614257812 0 250 0 c 0
 222.385742188 0 200 22.3857421875 200 50 c 0
100 50 m 0
 100 77.6142578125 122.385742188 100 150 100 c 0
 177.614257812 100 200 77.6142578125 200 50 c 0
 200 22.3857421875 177.614257812 0 150 0 c 0
 122.385742188 0 100 22.3857421875 100 50 c 0
0 50 m 0
 0 77.6142578125 22.3857421875 100 50 100 c 0
 77.6142578125 100 100 77.6142578125 100 50 c 0
 100 22.3857421875 77.6142578125 0 50 0 c 0
 22.3857421875 0 0 22.3857421875 0 50 c 0
0 -50 m 0
 0 -22.3857421875 22.3857421875 0 50 0 c 0
 77.6142578125 0 100 -22.3857421875 100 -50 c 0
 100 -77.6142578125 77.6142578125 -100 50 -100 c 0
 22.3857421875 -100 0 -77.6142578125 0 -50 c 0
0 -150 m 0
 0 -122.385742188 22.3857421875 -100 50 -100 c 0
 77.6142578125 -100 100 -122.385742188 100 -150 c 0
 100 -177.614257812 77.6142578125 -200 50 -200 c 0
 22.3857421875 -200 0 -177.614257812 0 -150 c 0
0 150 m 0
 0 177.614257812 22.3857421875 200 50 200 c 0
 77.6142578125 200 100 177.614257812 100 150 c 0
 100 122.385742188 77.6142578125 100 50 100 c 0
 22.3857421875 100 0 122.385742188 0 150 c 0
0 250 m 0
 0 277.614257812 22.3857421875 300 50 300 c 0
 77.6142578125 300 100 277.614257812 100 250 c 0
 100 222.385742188 77.6142578125 200 50 200 c 0
 22.3857421875 200 0 222.385742188 0 250 c 0
0 350 m 0
 0 377.614257812 22.3857421875 400 50 400 c 0
 77.6142578125 400 100 377.614257812 100 350 c 0
 100 322.385742188 77.6142578125 300 50 300 c 0
 22.3857421875 300 0 322.385742188 0 350 c 0
0 450 m 0
 0 477.614257812 22.3857421875 500 50 500 c 0
 77.6142578125 500 100 477.614257812 100 450 c 0
 100 422.385742188 77.6142578125 400 50 400 c 0
 22.3857421875 400 0 422.385742188 0 450 c 0
EndSplineSet
Validated: 524293
EndChar

StartChar: s
Encoding: 115 115 27
Width: 666
VWidth: 0
Flags: HW
LayerCount: 2
Fore
SplineSet
111.111328125 522.22265625 m 0
 111.111328125 552.904296875 135.984375 577.77734375 166.666992188 577.77734375 c 0
 197.349609375 577.77734375 222.22265625 552.904296875 222.22265625 522.22265625 c 0
 222.22265625 491.540039062 197.349609375 466.666992188 166.666992188 466.666992188 c 0
 135.984375 466.666992188 111.111328125 491.540039062 111.111328125 522.22265625 c 0
222.22265625 522.22265625 m 0
 222.22265625 552.904296875 247.095703125 577.77734375 277.77734375 577.77734375 c 0
 308.459960938 577.77734375 333.333007812 552.904296875 333.333007812 522.22265625 c 0
 333.333007812 491.540039062 308.459960938 466.666992188 277.77734375 466.666992188 c 0
 247.095703125 466.666992188 222.22265625 491.540039062 222.22265625 522.22265625 c 0
333.333007812 522.22265625 m 0
 333.333007812 552.904296875 358.206054688 577.77734375 388.888671875 577.77734375 c 0
 419.571289062 577.77734375 444.444335938 552.904296875 444.444335938 522.22265625 c 0
 444.444335938 491.540039062 419.571289062 466.666992188 388.888671875 466.666992188 c 0
 358.206054688 466.666992188 333.333007812 491.540039062 333.333007812 522.22265625 c 0
0 411.111328125 m 0
 0 441.793945312 24.873046875 466.666992188 55.5556640625 466.666992188 c 0
 86.23828125 466.666992188 111.111328125 441.793945312 111.111328125 411.111328125 c 0
 111.111328125 380.428710938 86.23828125 355.555664062 55.5556640625 355.555664062 c 0
 24.873046875 355.555664062 0 380.428710938 0 411.111328125 c 0
111.111328125 300 m 0
 111.111328125 330.682617188 135.984375 355.555664062 166.666992188 355.555664062 c 0
 197.349609375 355.555664062 222.22265625 330.682617188 222.22265625 300 c 0
 222.22265625 269.317382812 197.349609375 244.444335938 166.666992188 244.444335938 c 0
 135.984375 244.444335938 111.111328125 269.317382812 111.111328125 300 c 0
222.22265625 300 m 0
 222.22265625 330.682617188 247.095703125 355.555664062 277.77734375 355.555664062 c 0
 308.459960938 355.555664062 333.333007812 330.682617188 333.333007812 300 c 0
 333.333007812 269.317382812 308.459960938 244.444335938 277.77734375 244.444335938 c 0
 247.095703125 244.444335938 222.22265625 269.317382812 222.22265625 300 c 0
333.333007812 300 m 0
 333.333007812 330.682617188 358.206054688 355.555664062 388.888671875 355.555664062 c 0
 419.571289062 355.555664062 444.444335938 330.682617188 444.444335938 300 c 0
 444.444335938 269.317382812 419.571289062 244.444335938 388.888671875 244.444335938 c 0
 358.206054688 244.444335938 333.333007812 269.317382812 333.333007812 300 c 0
444.444335938 188.888671875 m 0
 444.444335938 219.571289062 469.317382812 244.444335938 500 244.444335938 c 0
 530.682617188 244.444335938 555.555664062 219.571289062 555.555664062 188.888671875 c 0
 555.555664062 158.206054688 530.682617188 133.333007812 500 133.333007812 c 0
 469.317382812 133.333007812 444.444335938 158.206054688 444.444335938 188.888671875 c 0
444.444335938 77.77734375 m 0
 444.444335938 108.459960938 469.317382812 133.333007812 500 133.333007812 c 0
 530.682617188 133.333007812 555.555664062 108.459960938 555.555664062 77.77734375 c 0
 555.555664062 47.095703125 530.682617188 22.22265625 500 22.22265625 c 0
 469.317382812 22.22265625 444.444335938 47.095703125 444.444335938 77.77734375 c 0
333.333007812 -33.3330078125 m 0
 333.333007812 -2.650390625 358.206054688 22.22265625 388.888671875 22.22265625 c 0
 419.571289062 22.22265625 444.444335938 -2.650390625 444.444335938 -33.3330078125 c 0
 444.444335938 -64.015625 419.571289062 -88.888671875 388.888671875 -88.888671875 c 0
 358.206054688 -88.888671875 333.333007812 -64.015625 333.333007812 -33.3330078125 c 0
222.22265625 -33.3330078125 m 0
 222.22265625 -2.650390625 247.095703125 22.22265625 277.77734375 22.22265625 c 0
 308.459960938 22.22265625 333.333007812 -2.650390625 333.333007812 -33.3330078125 c 0
 333.333007812 -64.015625 308.459960938 -88.888671875 277.77734375 -88.888671875 c 0
 247.095703125 -88.888671875 222.22265625 -64.015625 222.22265625 -33.3330078125 c 0
111.111328125 -33.3330078125 m 0
 111.111328125 -2.650390625 135.984375 22.22265625 166.666992188 22.22265625 c 0
 197.349609375 22.22265625 222.22265625 -2.650390625 222.22265625 -33.3330078125 c 0
 222.22265625 -64.015625 197.349609375 -88.888671875 166.666992188 -88.888671875 c 0
 135.984375 -88.888671875 111.111328125 -64.015625 111.111328125 -33.3330078125 c 0
0 77.77734375 m 0
 0 108.459960938 24.873046875 133.333007812 55.5556640625 133.333007812 c 0
 86.23828125 133.333007812 111.111328125 108.459960938 111.111328125 77.77734375 c 0
 111.111328125 47.095703125 86.23828125 22.22265625 55.5556640625 22.22265625 c 0
 24.873046875 22.22265625 0 47.095703125 0 77.77734375 c 0
EndSplineSet
Validated: 524293
EndChar

StartChar: t
Encoding: 116 116 28
Width: 555
VWidth: 0
Flags: HW
LayerCount: 2
Fore
SplineSet
0 522.22265625 m 0
 0 552.904296875 24.873046875 577.77734375 55.5556640625 577.77734375 c 0
 86.23828125 577.77734375 111.111328125 552.904296875 111.111328125 522.22265625 c 0
 111.111328125 491.540039062 86.23828125 466.666992188 55.5556640625 466.666992188 c 0
 24.873046875 466.666992188 0 491.540039062 0 522.22265625 c 0
111.111328125 522.22265625 m 0
 111.111328125 552.904296875 135.984375 577.77734375 166.666992188 577.77734375 c 0
 197.349609375 577.77734375 222.22265625 552.904296875 222.22265625 522.22265625 c 0
 222.22265625 491.540039062 197.349609375 466.666992188 166.666992188 466.666992188 c 0
 135.984375 466.666992188 111.111328125 491.540039062 111.111328125 522.22265625 c 0
111.111328125 633.333007812 m 0
 111.111328125 664.015625 135.984375 688.888671875 166.666992188 688.888671875 c 0
 197.349609375 688.888671875 222.22265625 664.015625 222.22265625 633.333007812 c 0
 222.22265625 602.650390625 197.349609375 577.77734375 166.666992188 577.77734375 c 0
 135.984375 577.77734375 111.111328125 602.650390625 111.111328125 633.333007812 c 0
111.111328125 744.444335938 m 0
 111.111328125 775.126953125 135.984375 800 166.666992188 800 c 0
 197.349609375 800 222.22265625 775.126953125 222.22265625 744.444335938 c 0
 222.22265625 713.76171875 197.349609375 688.888671875 166.666992188 688.888671875 c 0
 135.984375 688.888671875 111.111328125 713.76171875 111.111328125 744.444335938 c 0
222.22265625 522.22265625 m 0
 222.22265625 552.904296875 247.095703125 577.77734375 277.77734375 577.77734375 c 0
 308.459960938 577.77734375 333.333007812 552.904296875 333.333007812 522.22265625 c 0
 333.333007812 491.540039062 308.459960938 466.666992188 277.77734375 466.666992188 c 0
 247.095703125 466.666992188 222.22265625 491.540039062 222.22265625 522.22265625 c 0
333.333007812 522.22265625 m 0
 333.333007812 552.904296875 358.206054688 577.77734375 388.888671875 577.77734375 c 0
 419.571289062 577.77734375 444.444335938 552.904296875 444.444335938 522.22265625 c 4
 444.444335938 491.540039062 419.571289062 466.666992188 388.888671875 466.666992188 c 0
 358.206054688 466.666992188 333.333007812 491.540039062 333.333007812 522.22265625 c 0
111.111328125 411.111328125 m 0
 111.111328125 441.793945312 135.984375 466.666992188 166.666992188 466.666992188 c 0
 197.349609375 466.666992188 222.22265625 441.793945312 222.22265625 411.111328125 c 0
 222.22265625 380.428710938 197.349609375 355.555664062 166.666992188 355.555664062 c 0
 135.984375 355.555664062 111.111328125 380.428710938 111.111328125 411.111328125 c 0
111.111328125 300 m 0
 111.111328125 330.682617188 135.984375 355.555664062 166.666992188 355.555664062 c 0
 197.349609375 355.555664062 222.22265625 330.682617188 222.22265625 300 c 0
 222.22265625 269.317382812 197.349609375 244.444335938 166.666992188 244.444335938 c 0
 135.984375 244.444335938 111.111328125 269.317382812 111.111328125 300 c 0
111.111328125 188.888671875 m 0
 111.111328125 219.571289062 135.984375 244.444335938 166.666992188 244.444335938 c 0
 197.349609375 244.444335938 222.22265625 219.571289062 222.22265625 188.888671875 c 0
 222.22265625 158.206054688 197.349609375 133.333007812 166.666992188 133.333007812 c 0
 135.984375 133.333007812 111.111328125 158.206054688 111.111328125 188.888671875 c 0
111.111328125 77.77734375 m 0
 111.111328125 108.459960938 135.984375 133.333007812 166.666992188 133.333007812 c 0
 197.349609375 133.333007812 222.22265625 108.459960938 222.22265625 77.77734375 c 0
 222.22265625 47.095703125 197.349609375 22.22265625 166.666992188 22.22265625 c 0
 135.984375 22.22265625 111.111328125 47.095703125 111.111328125 77.77734375 c 0
222.22265625 -33.3330078125 m 0
 222.22265625 -2.650390625 247.095703125 22.22265625 277.77734375 22.22265625 c 0
 308.459960938 22.22265625 333.333007812 -2.650390625 333.333007812 -33.3330078125 c 0
 333.333007812 -64.015625 308.459960938 -88.888671875 277.77734375 -88.888671875 c 0
 247.095703125 -88.888671875 222.22265625 -64.015625 222.22265625 -33.3330078125 c 0
333.333007812 -33.3330078125 m 0
 333.333007812 -2.650390625 358.206054688 22.22265625 388.888671875 22.22265625 c 0
 419.571289062 22.22265625 444.444335938 -2.650390625 444.444335938 -33.3330078125 c 0
 444.444335938 -64.015625 419.571289062 -88.888671875 388.888671875 -88.888671875 c 0
 358.206054688 -88.888671875 333.333007812 -64.015625 333.333007812 -33.3330078125 c 0
EndSplineSet
Validated: 524293
EndChar

StartChar: zero
Encoding: 48 48 29
Width: 777
VWidth: 0
Flags: HW
LayerCount: 2
Fore
SplineSet
555.555664062 633.333007812 m 0
 555.555664062 664.015625 580.428710938 688.888671875 611.111328125 688.888671875 c 0
 641.793945312 688.888671875 666.666992188 664.015625 666.666992188 633.333007812 c 0
 666.666992188 602.650390625 641.793945312 577.77734375 611.111328125 577.77734375 c 0
 580.428710938 577.77734375 555.555664062 602.650390625 555.555664062 633.333007812 c 0
444.444335938 744.444335938 m 0
 444.444335938 775.126953125 469.317382812 800 500 800 c 0
 530.682617188 800 555.555664062 775.126953125 555.555664062 744.444335938 c 0
 555.555664062 713.76171875 530.682617188 688.888671875 500 688.888671875 c 0
 469.317382812 688.888671875 444.444335938 713.76171875 444.444335938 744.444335938 c 0
333.333007812 744.444335938 m 0
 333.333007812 775.126953125 358.206054688 800 388.888671875 800 c 0
 419.571289062 800 444.444335938 775.126953125 444.444335938 744.444335938 c 0
 444.444335938 713.76171875 419.571289062 688.888671875 388.888671875 688.888671875 c 0
 358.206054688 688.888671875 333.333007812 713.76171875 333.333007812 744.444335938 c 0
222.22265625 744.444335938 m 0
 222.22265625 775.126953125 247.095703125 800 277.77734375 800 c 0
 308.459960938 800 333.333007812 775.126953125 333.333007812 744.444335938 c 0
 333.333007812 713.76171875 308.459960938 688.888671875 277.77734375 688.888671875 c 0
 247.095703125 688.888671875 222.22265625 713.76171875 222.22265625 744.444335938 c 0
111.111328125 744.444335938 m 0
 111.111328125 775.126953125 135.984375 800 166.666992188 800 c 0
 197.349609375 800 222.22265625 775.126953125 222.22265625 744.444335938 c 0
 222.22265625 713.76171875 197.349609375 688.888671875 166.666992188 688.888671875 c 0
 135.984375 688.888671875 111.111328125 713.76171875 111.111328125 744.444335938 c 0
0 300 m 0
 0 330.682617188 24.873046875 355.555664062 55.5556640625 355.555664062 c 0
 86.23828125 355.555664062 111.111328125 330.682617188 111.111328125 300 c 0
 111.111328125 269.317382812 86.23828125 244.444335938 55.5556640625 244.444335938 c 0
 24.873046875 244.444335938 0 269.317382812 0 300 c 0
0 188.888671875 m 0
 0 219.571289062 24.873046875 244.444335938 55.5556640625 244.444335938 c 0
 86.23828125 244.444335938 111.111328125 219.571289062 111.111328125 188.888671875 c 0
 111.111328125 158.206054688 86.23828125 133.333007812 55.5556640625 133.333007812 c 0
 24.873046875 133.333007812 0 158.206054688 0 188.888671875 c 0
0 77.77734375 m 0
 0 108.459960938 24.873046875 133.333007812 55.5556640625 133.333007812 c 0
 86.23828125 133.333007812 111.111328125 108.459960938 111.111328125 77.77734375 c 0
 111.111328125 47.095703125 86.23828125 22.22265625 55.5556640625 22.22265625 c 0
 24.873046875 22.22265625 0 47.095703125 0 77.77734375 c 0
0 633.333007812 m 0
 0 664.015625 24.873046875 688.888671875 55.5556640625 688.888671875 c 0
 86.23828125 688.888671875 111.111328125 664.015625 111.111328125 633.333007812 c 0
 111.111328125 602.650390625 86.23828125 577.77734375 55.5556640625 577.77734375 c 0
 24.873046875 577.77734375 0 602.650390625 0 633.333007812 c 0
0 522.22265625 m 0
 0 552.904296875 24.873046875 577.77734375 55.5556640625 577.77734375 c 0
 86.23828125 577.77734375 111.111328125 552.904296875 111.111328125 522.22265625 c 0
 111.111328125 491.540039062 86.23828125 466.666992188 55.5556640625 466.666992188 c 0
 24.873046875 466.666992188 0 491.540039062 0 522.22265625 c 0
0 411.111328125 m 0
 0 441.793945312 24.873046875 466.666992188 55.5556640625 466.666992188 c 0
 86.23828125 466.666992188 111.111328125 441.793945312 111.111328125 411.111328125 c 0
 111.111328125 380.428710938 86.23828125 355.555664062 55.5556640625 355.555664062 c 0
 24.873046875 355.555664062 0 380.428710938 0 411.111328125 c 0
555.555664062 300 m 0
 555.555664062 330.682617188 580.428710938 355.555664062 611.111328125 355.555664062 c 0
 641.793945312 355.555664062 666.666992188 330.682617188 666.666992188 300 c 0
 666.666992188 269.317382812 641.793945312 244.444335938 611.111328125 244.444335938 c 0
 580.428710938 244.444335938 555.555664062 269.317382812 555.555664062 300 c 0
555.555664062 188.888671875 m 0
 555.555664062 219.571289062 580.428710938 244.444335938 611.111328125 244.444335938 c 0
 641.793945312 244.444335938 666.666992188 219.571289062 666.666992188 188.888671875 c 0
 666.666992188 158.206054688 641.793945312 133.333007812 611.111328125 133.333007812 c 0
 580.428710938 133.333007812 555.555664062 158.206054688 555.555664062 188.888671875 c 0
555.555664062 77.77734375 m 0
 555.555664062 108.459960938 580.428710938 133.333007812 611.111328125 133.333007812 c 0
 641.793945312 133.333007812 666.666992188 108.459960938 666.666992188 77.77734375 c 0
 666.666992188 47.095703125 641.793945312 22.22265625 611.111328125 22.22265625 c 0
 580.428710938 22.22265625 555.555664062 47.095703125 555.555664062 77.77734375 c 0
555.555664062 -33.3330078125 m 0
 555.555664062 -2.650390625 580.428710938 22.22265625 611.111328125 22.22265625 c 0
 641.793945312 22.22265625 666.666992188 -2.650390625 666.666992188 -33.3330078125 c 0
 666.666992188 -64.015625 641.793945312 -88.888671875 611.111328125 -88.888671875 c 0
 580.428710938 -88.888671875 555.555664062 -64.015625 555.555664062 -33.3330078125 c 0
444.444335938 -144.444335938 m 0
 444.444335938 -113.76171875 469.317382812 -88.888671875 500 -88.888671875 c 0
 530.682617188 -88.888671875 555.555664062 -113.76171875 555.555664062 -144.444335938 c 0
 555.555664062 -175.126953125 530.682617188 -200 500 -200 c 0
 469.317382812 -200 444.444335938 -175.126953125 444.444335938 -144.444335938 c 0
333.333007812 -144.444335938 m 0
 333.333007812 -113.76171875 358.206054688 -88.888671875 388.888671875 -88.888671875 c 0
 419.571289062 -88.888671875 444.444335938 -113.76171875 444.444335938 -144.444335938 c 0
 444.444335938 -175.126953125 419.571289062 -200 388.888671875 -200 c 0
 358.206054688 -200 333.333007812 -175.126953125 333.333007812 -144.444335938 c 0
222.22265625 -144.444335938 m 0
 222.22265625 -113.76171875 247.095703125 -88.888671875 277.77734375 -88.888671875 c 0
 308.459960938 -88.888671875 333.333007812 -113.76171875 333.333007812 -144.444335938 c 0
 333.333007812 -175.126953125 308.459960938 -200 277.77734375 -200 c 0
 247.095703125 -200 222.22265625 -175.126953125 222.22265625 -144.444335938 c 0
111.111328125 -144.444335938 m 0
 111.111328125 -113.76171875 135.984375 -88.888671875 166.666992188 -88.888671875 c 0
 197.349609375 -88.888671875 222.22265625 -113.76171875 222.22265625 -144.444335938 c 0
 222.22265625 -175.126953125 197.349609375 -200 166.666992188 -200 c 0
 135.984375 -200 111.111328125 -175.126953125 111.111328125 -144.444335938 c 0
0 -33.3330078125 m 0
 0 -2.650390625 24.873046875 22.22265625 55.5556640625 22.22265625 c 0
 86.23828125 22.22265625 111.111328125 -2.650390625 111.111328125 -33.3330078125 c 0
 111.111328125 -64.015625 86.23828125 -88.888671875 55.5556640625 -88.888671875 c 0
 24.873046875 -88.888671875 0 -64.015625 0 -33.3330078125 c 0
555.555664062 411.111328125 m 0
 555.555664062 441.793945312 580.428710938 466.666992188 611.111328125 466.666992188 c 0
 641.793945312 466.666992188 666.666992188 441.793945312 666.666992188 411.111328125 c 0
 666.666992188 380.428710938 641.793945312 355.555664062 611.111328125 355.555664062 c 0
 580.428710938 355.555664062 555.555664062 380.428710938 555.555664062 411.111328125 c 0
555.555664062 522.22265625 m 0
 555.555664062 552.904296875 580.428710938 577.77734375 611.111328125 577.77734375 c 0
 641.793945312 577.77734375 666.666992188 552.904296875 666.666992188 522.22265625 c 0
 666.666992188 491.540039062 641.793945312 466.666992188 611.111328125 466.666992188 c 0
 580.428710938 466.666992188 555.555664062 491.540039062 555.555664062 522.22265625 c 0
EndSplineSet
Validated: 524293
EndChar

StartChar: six
Encoding: 54 54 30
Width: 777
VWidth: 0
Flags: HW
LayerCount: 2
Fore
SplineSet
555.555664062 633.333007812 m 0
 555.555664062 664.015625 580.428710938 688.888671875 611.111328125 688.888671875 c 0
 641.793945312 688.888671875 666.666992188 664.015625 666.666992188 633.333007812 c 0
 666.666992188 602.650390625 641.793945312 577.77734375 611.111328125 577.77734375 c 0
 580.428710938 577.77734375 555.555664062 602.650390625 555.555664062 633.333007812 c 0
444.444335938 744.444335938 m 0
 444.444335938 775.126953125 469.317382812 800 500 800 c 0
 530.682617188 800 555.555664062 775.126953125 555.555664062 744.444335938 c 0
 555.555664062 713.76171875 530.682617188 688.888671875 500 688.888671875 c 0
 469.317382812 688.888671875 444.444335938 713.76171875 444.444335938 744.444335938 c 0
333.333007812 744.444335938 m 0
 333.333007812 775.126953125 358.206054688 800 388.888671875 800 c 0
 419.571289062 800 444.444335938 775.126953125 444.444335938 744.444335938 c 0
 444.444335938 713.76171875 419.571289062 688.888671875 388.888671875 688.888671875 c 0
 358.206054688 688.888671875 333.333007812 713.76171875 333.333007812 744.444335938 c 0
222.22265625 744.444335938 m 0
 222.22265625 775.126953125 247.095703125 800 277.77734375 800 c 0
 308.459960938 800 333.333007812 775.126953125 333.333007812 744.444335938 c 0
 333.333007812 713.76171875 308.459960938 688.888671875 277.77734375 688.888671875 c 0
 247.095703125 688.888671875 222.22265625 713.76171875 222.22265625 744.444335938 c 0
111.111328125 744.444335938 m 0
 111.111328125 775.126953125 135.984375 800 166.666992188 800 c 0
 197.349609375 800 222.22265625 775.126953125 222.22265625 744.444335938 c 0
 222.22265625 713.76171875 197.349609375 688.888671875 166.666992188 688.888671875 c 0
 135.984375 688.888671875 111.111328125 713.76171875 111.111328125 744.444335938 c 0
0 300 m 0
 0 330.682617188 24.873046875 355.555664062 55.5556640625 355.555664062 c 0
 86.23828125 355.555664062 111.111328125 330.682617188 111.111328125 300 c 0
 111.111328125 269.317382812 86.23828125 244.444335938 55.5556640625 244.444335938 c 0
 24.873046875 244.444335938 0 269.317382812 0 300 c 0
0 188.888671875 m 0
 0 219.571289062 24.873046875 244.444335938 55.5556640625 244.444335938 c 0
 86.23828125 244.444335938 111.111328125 219.571289062 111.111328125 188.888671875 c 0
 111.111328125 158.206054688 86.23828125 133.333007812 55.5556640625 133.333007812 c 0
 24.873046875 133.333007812 0 158.206054688 0 188.888671875 c 0
0 77.77734375 m 0
 0 108.459960938 24.873046875 133.333007812 55.5556640625 133.333007812 c 0
 86.23828125 133.333007812 111.111328125 108.459960938 111.111328125 77.77734375 c 0
 111.111328125 47.095703125 86.23828125 22.22265625 55.5556640625 22.22265625 c 0
 24.873046875 22.22265625 0 47.095703125 0 77.77734375 c 0
0 633.333007812 m 0
 0 664.015625 24.873046875 688.888671875 55.5556640625 688.888671875 c 0
 86.23828125 688.888671875 111.111328125 664.015625 111.111328125 633.333007812 c 0
 111.111328125 602.650390625 86.23828125 577.77734375 55.5556640625 577.77734375 c 0
 24.873046875 577.77734375 0 602.650390625 0 633.333007812 c 0
0 522.22265625 m 0
 0 552.904296875 24.873046875 577.77734375 55.5556640625 577.77734375 c 0
 86.23828125 577.77734375 111.111328125 552.904296875 111.111328125 522.22265625 c 0
 111.111328125 491.540039062 86.23828125 466.666992188 55.5556640625 466.666992188 c 0
 24.873046875 466.666992188 0 491.540039062 0 522.22265625 c 0
0 411.111328125 m 0
 0 441.793945312 24.873046875 466.666992188 55.5556640625 466.666992188 c 0
 86.23828125 466.666992188 111.111328125 441.793945312 111.111328125 411.111328125 c 0
 111.111328125 380.428710938 86.23828125 355.555664062 55.5556640625 355.555664062 c 0
 24.873046875 355.555664062 0 380.428710938 0 411.111328125 c 0
111.111328125 411.111328125 m 0
 111.111328125 441.793945312 135.984375 466.666992188 166.666992188 466.666992188 c 0
 197.349609375 466.666992188 222.22265625 441.793945312 222.22265625 411.111328125 c 0
 222.22265625 380.428710938 197.349609375 355.555664062 166.666992188 355.555664062 c 0
 135.984375 355.555664062 111.111328125 380.428710938 111.111328125 411.111328125 c 0
555.555664062 300 m 0
 555.555664062 330.682617188 580.428710938 355.555664062 611.111328125 355.555664062 c 0
 641.793945312 355.555664062 666.666992188 330.682617188 666.666992188 300 c 0
 666.666992188 269.317382812 641.793945312 244.444335938 611.111328125 244.444335938 c 0
 580.428710938 244.444335938 555.555664062 269.317382812 555.555664062 300 c 0
555.555664062 188.888671875 m 0
 555.555664062 219.571289062 580.428710938 244.444335938 611.111328125 244.444335938 c 0
 641.793945312 244.444335938 666.666992188 219.571289062 666.666992188 188.888671875 c 0
 666.666992188 158.206054688 641.793945312 133.333007812 611.111328125 133.333007812 c 0
 580.428710938 133.333007812 555.555664062 158.206054688 555.555664062 188.888671875 c 0
555.555664062 77.77734375 m 0
 555.555664062 108.459960938 580.428710938 133.333007812 611.111328125 133.333007812 c 0
 641.793945312 133.333007812 666.666992188 108.459960938 666.666992188 77.77734375 c 0
 666.666992188 47.095703125 641.793945312 22.22265625 611.111328125 22.22265625 c 0
 580.428710938 22.22265625 555.555664062 47.095703125 555.555664062 77.77734375 c 0
555.555664062 -33.3330078125 m 0
 555.555664062 -2.650390625 580.428710938 22.22265625 611.111328125 22.22265625 c 0
 641.793945312 22.22265625 666.666992188 -2.650390625 666.666992188 -33.3330078125 c 0
 666.666992188 -64.015625 641.793945312 -88.888671875 611.111328125 -88.888671875 c 0
 580.428710938 -88.888671875 555.555664062 -64.015625 555.555664062 -33.3330078125 c 0
444.444335938 -144.444335938 m 0
 444.444335938 -113.76171875 469.317382812 -88.888671875 500 -88.888671875 c 0
 530.682617188 -88.888671875 555.555664062 -113.76171875 555.555664062 -144.444335938 c 0
 555.555664062 -175.126953125 530.682617188 -200 500 -200 c 0
 469.317382812 -200 444.444335938 -175.126953125 444.444335938 -144.444335938 c 0
333.333007812 -144.444335938 m 0
 333.333007812 -113.76171875 358.206054688 -88.888671875 388.888671875 -88.888671875 c 0
 419.571289062 -88.888671875 444.444335938 -113.76171875 444.444335938 -144.444335938 c 0
 444.444335938 -175.126953125 419.571289062 -200 388.888671875 -200 c 0
 358.206054688 -200 333.333007812 -175.126953125 333.333007812 -144.444335938 c 0
222.22265625 -144.444335938 m 0
 222.22265625 -113.76171875 247.095703125 -88.888671875 277.77734375 -88.888671875 c 0
 308.459960938 -88.888671875 333.333007812 -113.76171875 333.333007812 -144.444335938 c 0
 333.333007812 -175.126953125 308.459960938 -200 277.77734375 -200 c 0
 247.095703125 -200 222.22265625 -175.126953125 222.22265625 -144.444335938 c 0
111.111328125 -144.444335938 m 0
 111.111328125 -113.76171875 135.984375 -88.888671875 166.666992188 -88.888671875 c 0
 197.349609375 -88.888671875 222.22265625 -113.76171875 222.22265625 -144.444335938 c 0
 222.22265625 -175.126953125 197.349609375 -200 166.666992188 -200 c 0
 135.984375 -200 111.111328125 -175.126953125 111.111328125 -144.444335938 c 0
0 -33.3330078125 m 0
 0 -2.650390625 24.873046875 22.22265625 55.5556640625 22.22265625 c 0
 86.23828125 22.22265625 111.111328125 -2.650390625 111.111328125 -33.3330078125 c 0
 111.111328125 -64.015625 86.23828125 -88.888671875 55.5556640625 -88.888671875 c 0
 24.873046875 -88.888671875 0 -64.015625 0 -33.3330078125 c 0
222.22265625 411.111328125 m 0
 222.22265625 441.793945312 247.095703125 466.666992188 277.77734375 466.666992188 c 0
 308.459960938 466.666992188 333.333007812 441.793945312 333.333007812 411.111328125 c 0
 333.333007812 380.428710938 308.459960938 355.555664062 277.77734375 355.555664062 c 0
 247.095703125 355.555664062 222.22265625 380.428710938 222.22265625 411.111328125 c 0
333.333007812 411.111328125 m 0
 333.333007812 441.793945312 358.206054688 466.666992188 388.888671875 466.666992188 c 0
 419.571289062 466.666992188 444.444335938 441.793945312 444.444335938 411.111328125 c 0
 444.444335938 380.428710938 419.571289062 355.555664062 388.888671875 355.555664062 c 0
 358.206054688 355.555664062 333.333007812 380.428710938 333.333007812 411.111328125 c 0
444.444335938 411.111328125 m 0
 444.444335938 441.793945312 469.317382812 466.666992188 500 466.666992188 c 0
 530.682617188 466.666992188 555.555664062 441.793945312 555.555664062 411.111328125 c 0
 555.555664062 380.428710938 530.682617188 355.555664062 500 355.555664062 c 0
 469.317382812 355.555664062 444.444335938 380.428710938 444.444335938 411.111328125 c 0
EndSplineSet
Validated: 524293
EndChar

StartChar: D
Encoding: 68 68 31
Width: 777
VWidth: 0
Flags: HW
LayerCount: 2
Fore
SplineSet
0 744.444335938 m 0
 0 775.126953125 24.873046875 800 55.5556640625 800 c 0
 86.23828125 800 111.111328125 775.126953125 111.111328125 744.444335938 c 0
 111.111328125 713.76171875 86.23828125 688.888671875 55.5556640625 688.888671875 c 0
 24.873046875 688.888671875 0 713.76171875 0 744.444335938 c 0
0 633.333007812 m 0
 0 664.015625 24.873046875 688.888671875 55.5556640625 688.888671875 c 0
 86.23828125 688.888671875 111.111328125 664.015625 111.111328125 633.333007812 c 0
 111.111328125 602.650390625 86.23828125 577.77734375 55.5556640625 577.77734375 c 0
 24.873046875 577.77734375 0 602.650390625 0 633.333007812 c 0
0 411.111328125 m 0
 0 441.793945312 24.873046875 466.666992188 55.5556640625 466.666992188 c 0
 86.23828125 466.666992188 111.111328125 441.793945312 111.111328125 411.111328125 c 0
 111.111328125 380.428710938 86.23828125 355.555664062 55.5556640625 355.555664062 c 0
 24.873046875 355.555664062 0 380.428710938 0 411.111328125 c 0
0 300 m 0
 0 330.682617188 24.873046875 355.555664062 55.5556640625 355.555664062 c 0
 86.23828125 355.555664062 111.111328125 330.682617188 111.111328125 300 c 0
 111.111328125 269.317382812 86.23828125 244.444335938 55.5556640625 244.444335938 c 0
 24.873046875 244.444335938 0 269.317382812 0 300 c 0
0 188.888671875 m 0
 0 219.571289062 24.873046875 244.444335938 55.5556640625 244.444335938 c 0
 86.23828125 244.444335938 111.111328125 219.571289062 111.111328125 188.888671875 c 0
 111.111328125 158.206054688 86.23828125 133.333007812 55.5556640625 133.333007812 c 0
 24.873046875 133.333007812 0 158.206054688 0 188.888671875 c 0
0 77.77734375 m 0
 0 108.459960938 24.873046875 133.333007812 55.5556640625 133.333007812 c 0
 86.23828125 133.333007812 111.111328125 108.459960938 111.111328125 77.77734375 c 0
 111.111328125 47.095703125 86.23828125 22.22265625 55.5556640625 22.22265625 c 0
 24.873046875 22.22265625 0 47.095703125 0 77.77734375 c 0
0 -33.3330078125 m 0
 0 -2.650390625 24.873046875 22.22265625 55.5556640625 22.22265625 c 0
 86.23828125 22.22265625 111.111328125 -2.650390625 111.111328125 -33.3330078125 c 0
 111.111328125 -64.015625 86.23828125 -88.888671875 55.5556640625 -88.888671875 c 0
 24.873046875 -88.888671875 0 -64.015625 0 -33.3330078125 c 0
0 -144.444335938 m 0
 0 -113.76171875 24.873046875 -88.888671875 55.5556640625 -88.888671875 c 0
 86.23828125 -88.888671875 111.111328125 -113.76171875 111.111328125 -144.444335938 c 0
 111.111328125 -175.126953125 86.23828125 -200 55.5556640625 -200 c 0
 24.873046875 -200 0 -175.126953125 0 -144.444335938 c 0
111.111328125 -144.444335938 m 0
 111.111328125 -113.76171875 135.984375 -88.888671875 166.666992188 -88.888671875 c 0
 197.349609375 -88.888671875 222.22265625 -113.76171875 222.22265625 -144.444335938 c 0
 222.22265625 -175.126953125 197.349609375 -200 166.666992188 -200 c 0
 135.984375 -200 111.111328125 -175.126953125 111.111328125 -144.444335938 c 0
222.22265625 -144.444335938 m 0
 222.22265625 -113.76171875 247.095703125 -88.888671875 277.77734375 -88.888671875 c 0
 308.459960938 -88.888671875 333.333007812 -113.76171875 333.333007812 -144.444335938 c 0
 333.333007812 -175.126953125 308.459960938 -200 277.77734375 -200 c 0
 247.095703125 -200 222.22265625 -175.126953125 222.22265625 -144.444335938 c 0
333.333007812 -144.444335938 m 0
 333.333007812 -113.76171875 358.206054688 -88.888671875 388.888671875 -88.888671875 c 0
 419.571289062 -88.888671875 444.444335938 -113.76171875 444.444335938 -144.444335938 c 0
 444.444335938 -175.126953125 419.571289062 -200 388.888671875 -200 c 0
 358.206054688 -200 333.333007812 -175.126953125 333.333007812 -144.444335938 c 0
444.444335938 -144.444335938 m 0
 444.444335938 -113.76171875 469.317382812 -88.888671875 500 -88.888671875 c 0
 530.682617188 -88.888671875 555.555664062 -113.76171875 555.555664062 -144.444335938 c 0
 555.555664062 -175.126953125 530.682617188 -200 500 -200 c 0
 469.317382812 -200 444.444335938 -175.126953125 444.444335938 -144.444335938 c 0
555.555664062 -33.3330078125 m 0
 555.555664062 -2.650390625 580.428710938 22.22265625 611.111328125 22.22265625 c 0
 641.793945312 22.22265625 666.666992188 -2.650390625 666.666992188 -33.3330078125 c 0
 666.666992188 -64.015625 641.793945312 -88.888671875 611.111328125 -88.888671875 c 0
 580.428710938 -88.888671875 555.555664062 -64.015625 555.555664062 -33.3330078125 c 0
555.555664062 77.77734375 m 0
 555.555664062 108.459960938 580.428710938 133.333007812 611.111328125 133.333007812 c 0
 641.793945312 133.333007812 666.666992188 108.459960938 666.666992188 77.77734375 c 0
 666.666992188 47.095703125 641.793945312 22.22265625 611.111328125 22.22265625 c 0
 580.428710938 22.22265625 555.555664062 47.095703125 555.555664062 77.77734375 c 0
555.555664062 188.888671875 m 0
 555.555664062 219.571289062 580.428710938 244.444335938 611.111328125 244.444335938 c 0
 641.793945312 244.444335938 666.666992188 219.571289062 666.666992188 188.888671875 c 0
 666.666992188 158.206054688 641.793945312 133.333007812 611.111328125 133.333007812 c 0
 580.428710938 133.333007812 555.555664062 158.206054688 555.555664062 188.888671875 c 0
555.555664062 411.111328125 m 0
 555.555664062 441.793945312 580.428710938 466.666992188 611.111328125 466.666992188 c 0
 641.793945312 466.666992188 666.666992188 441.793945312 666.666992188 411.111328125 c 0
 666.666992188 380.428710938 641.793945312 355.555664062 611.111328125 355.555664062 c 0
 580.428710938 355.555664062 555.555664062 380.428710938 555.555664062 411.111328125 c 0
555.555664062 522.22265625 m 0
 555.555664062 552.904296875 580.428710938 577.77734375 611.111328125 577.77734375 c 0
 641.793945312 577.77734375 666.666992188 552.904296875 666.666992188 522.22265625 c 0
 666.666992188 491.540039062 641.793945312 466.666992188 611.111328125 466.666992188 c 0
 580.428710938 466.666992188 555.555664062 491.540039062 555.555664062 522.22265625 c 0
555.555664062 633.333007812 m 0
 555.555664062 664.015625 580.428710938 688.888671875 611.111328125 688.888671875 c 0
 641.793945312 688.888671875 666.666992188 664.015625 666.666992188 633.333007812 c 0
 666.666992188 602.650390625 641.793945312 577.77734375 611.111328125 577.77734375 c 0
 580.428710938 577.77734375 555.555664062 602.650390625 555.555664062 633.333007812 c 0
444.444335938 744.444335938 m 0
 444.444335938 775.126953125 469.317382812 800 500 800 c 0
 530.682617188 800 555.555664062 775.126953125 555.555664062 744.444335938 c 0
 555.555664062 713.76171875 530.682617188 688.888671875 500 688.888671875 c 0
 469.317382812 688.888671875 444.444335938 713.76171875 444.444335938 744.444335938 c 0
333.333007812 744.444335938 m 0
 333.333007812 775.126953125 358.206054688 800 388.888671875 800 c 0
 419.571289062 800 444.444335938 775.126953125 444.444335938 744.444335938 c 0
 444.444335938 713.76171875 419.571289062 688.888671875 388.888671875 688.888671875 c 0
 358.206054688 688.888671875 333.333007812 713.76171875 333.333007812 744.444335938 c 0
222.22265625 744.444335938 m 0
 222.22265625 775.126953125 247.095703125 800 277.77734375 800 c 0
 308.459960938 800 333.333007812 775.126953125 333.333007812 744.444335938 c 0
 333.333007812 713.76171875 308.459960938 688.888671875 277.77734375 688.888671875 c 0
 247.095703125 688.888671875 222.22265625 713.76171875 222.22265625 744.444335938 c 0
111.111328125 744.444335938 m 0
 111.111328125 775.126953125 135.984375 800 166.666992188 800 c 0
 197.349609375 800 222.22265625 775.126953125 222.22265625 744.444335938 c 0
 222.22265625 713.76171875 197.349609375 688.888671875 166.666992188 688.888671875 c 0
 135.984375 688.888671875 111.111328125 713.76171875 111.111328125 744.444335938 c 0
555.555664062 300 m 0
 555.555664062 330.682617188 580.428710938 355.555664062 611.111328125 355.555664062 c 0
 641.793945312 355.555664062 666.666992188 330.682617188 666.666992188 300 c 0
 666.666992188 269.317382812 641.793945312 244.444335938 611.111328125 244.444335938 c 0
 580.428710938 244.444335938 555.555664062 269.317382812 555.555664062 300 c 0
0 522.22265625 m 0
 0 552.904296875 24.873046875 577.77734375 55.5556640625 577.77734375 c 0
 86.23828125 577.77734375 111.111328125 552.904296875 111.111328125 522.22265625 c 0
 111.111328125 491.540039062 86.23828125 466.666992188 55.5556640625 466.666992188 c 0
 24.873046875 466.666992188 0 491.540039062 0 522.22265625 c 0
EndSplineSet
Validated: 524293
EndChar

StartChar: F
Encoding: 70 70 32
Width: 777
VWidth: 0
Flags: HW
LayerCount: 2
Fore
SplineSet
111.111328125 744.444335938 m 0
 111.111328125 775.126953125 135.984375 800 166.666992188 800 c 0
 197.349609375 800 222.22265625 775.126953125 222.22265625 744.444335938 c 0
 222.22265625 713.76171875 197.349609375 688.888671875 166.666992188 688.888671875 c 0
 135.984375 688.888671875 111.111328125 713.76171875 111.111328125 744.444335938 c 0
0 744.444335938 m 0
 0 775.126953125 24.873046875 800 55.5556640625 800 c 0
 86.23828125 800 111.111328125 775.126953125 111.111328125 744.444335938 c 0
 111.111328125 713.76171875 86.23828125 688.888671875 55.5556640625 688.888671875 c 0
 24.873046875 688.888671875 0 713.76171875 0 744.444335938 c 0
0 633.333007812 m 0
 0 664.015625 24.873046875 688.888671875 55.5556640625 688.888671875 c 0
 86.23828125 688.888671875 111.111328125 664.015625 111.111328125 633.333007812 c 0
 111.111328125 602.650390625 86.23828125 577.77734375 55.5556640625 577.77734375 c 0
 24.873046875 577.77734375 0 602.650390625 0 633.333007812 c 0
0 522.22265625 m 0
 0 552.904296875 24.873046875 577.77734375 55.5556640625 577.77734375 c 0
 86.23828125 577.77734375 111.111328125 552.904296875 111.111328125 522.22265625 c 0
 111.111328125 491.540039062 86.23828125 466.666992188 55.5556640625 466.666992188 c 0
 24.873046875 466.666992188 0 491.540039062 0 522.22265625 c 0
0 411.111328125 m 0
 0 441.793945312 24.873046875 466.666992188 55.5556640625 466.666992188 c 0
 86.23828125 466.666992188 111.111328125 441.793945312 111.111328125 411.111328125 c 0
 111.111328125 380.428710938 86.23828125 355.555664062 55.5556640625 355.555664062 c 0
 24.873046875 355.555664062 0 380.428710938 0 411.111328125 c 0
0 188.888671875 m 0
 0 219.571289062 24.873046875 244.444335938 55.5556640625 244.444335938 c 0
 86.23828125 244.444335938 111.111328125 219.571289062 111.111328125 188.888671875 c 0
 111.111328125 158.206054688 86.23828125 133.333007812 55.5556640625 133.333007812 c 0
 24.873046875 133.333007812 0 158.206054688 0 188.888671875 c 0
0 77.77734375 m 0
 0 108.459960938 24.873046875 133.333007812 55.5556640625 133.333007812 c 0
 86.23828125 133.333007812 111.111328125 108.459960938 111.111328125 77.77734375 c 0
 111.111328125 47.095703125 86.23828125 22.22265625 55.5556640625 22.22265625 c 0
 24.873046875 22.22265625 0 47.095703125 0 77.77734375 c 0
0 -33.3330078125 m 0
 0 -2.650390625 24.873046875 22.22265625 55.5556640625 22.22265625 c 0
 86.23828125 22.22265625 111.111328125 -2.650390625 111.111328125 -33.3330078125 c 0
 111.111328125 -64.015625 86.23828125 -88.888671875 55.5556640625 -88.888671875 c 0
 24.873046875 -88.888671875 0 -64.015625 0 -33.3330078125 c 0
222.22265625 744.444335938 m 0
 222.22265625 775.126953125 247.095703125 800 277.77734375 800 c 0
 308.459960938 800 333.333007812 775.126953125 333.333007812 744.444335938 c 0
 333.333007812 713.76171875 308.459960938 688.888671875 277.77734375 688.888671875 c 0
 247.095703125 688.888671875 222.22265625 713.76171875 222.22265625 744.444335938 c 0
333.333007812 744.444335938 m 0
 333.333007812 775.126953125 358.206054688 800 388.888671875 800 c 0
 419.571289062 800 444.444335938 775.126953125 444.444335938 744.444335938 c 0
 444.444335938 713.76171875 419.571289062 688.888671875 388.888671875 688.888671875 c 0
 358.206054688 688.888671875 333.333007812 713.76171875 333.333007812 744.444335938 c 0
444.444335938 744.444335938 m 0
 444.444335938 775.126953125 469.317382812 800 500 800 c 0
 530.682617188 800 555.555664062 775.126953125 555.555664062 744.444335938 c 0
 555.555664062 713.76171875 530.682617188 688.888671875 500 688.888671875 c 0
 469.317382812 688.888671875 444.444335938 713.76171875 444.444335938 744.444335938 c 0
555.555664062 744.444335938 m 0
 555.555664062 775.126953125 580.428710938 800 611.111328125 800 c 0
 641.793945312 800 666.666992188 775.126953125 666.666992188 744.444335938 c 0
 666.666992188 713.76171875 641.793945312 688.888671875 611.111328125 688.888671875 c 0
 580.428710938 688.888671875 555.555664062 713.76171875 555.555664062 744.444335938 c 0
111.111328125 300 m 0
 111.111328125 330.682617188 135.984375 355.555664062 166.666992188 355.555664062 c 0
 197.349609375 355.555664062 222.22265625 330.682617188 222.22265625 300 c 0
 222.22265625 269.317382812 197.349609375 244.444335938 166.666992188 244.444335938 c 0
 135.984375 244.444335938 111.111328125 269.317382812 111.111328125 300 c 0
0 300 m 0
 0 330.682617188 24.873046875 355.555664062 55.5556640625 355.555664062 c 0
 86.23828125 355.555664062 111.111328125 330.682617188 111.111328125 300 c 0
 111.111328125 269.317382812 86.23828125 244.444335938 55.5556640625 244.444335938 c 0
 24.873046875 244.444335938 0 269.317382812 0 300 c 0
222.22265625 300 m 0
 222.22265625 330.682617188 247.095703125 355.555664062 277.77734375 355.555664062 c 0
 308.459960938 355.555664062 333.333007812 330.682617188 333.333007812 300 c 0
 333.333007812 269.317382812 308.459960938 244.444335938 277.77734375 244.444335938 c 0
 247.095703125 244.444335938 222.22265625 269.317382812 222.22265625 300 c 0
333.333007812 300 m 0
 333.333007812 330.682617188 358.206054688 355.555664062 388.888671875 355.555664062 c 0
 419.571289062 355.555664062 444.444335938 330.682617188 444.444335938 300 c 0
 444.444335938 269.317382812 419.571289062 244.444335938 388.888671875 244.444335938 c 0
 358.206054688 244.444335938 333.333007812 269.317382812 333.333007812 300 c 0
444.444335938 300 m 0
 444.444335938 330.682617188 469.317382812 355.555664062 500 355.555664062 c 0
 530.682617188 355.555664062 555.555664062 330.682617188 555.555664062 300 c 0
 555.555664062 269.317382812 530.682617188 244.444335938 500 244.444335938 c 0
 469.317382812 244.444335938 444.444335938 269.317382812 444.444335938 300 c 0
555.555664062 300 m 0
 555.555664062 330.682617188 580.428710938 355.555664062 611.111328125 355.555664062 c 0
 641.793945312 355.555664062 666.666992188 330.682617188 666.666992188 300 c 0
 666.666992188 269.317382812 641.793945312 244.444335938 611.111328125 244.444335938 c 0
 580.428710938 244.444335938 555.555664062 269.317382812 555.555664062 300 c 0
0 -144.444335938 m 0
 0 -113.76171875 24.873046875 -88.888671875 55.5556640625 -88.888671875 c 0
 86.23828125 -88.888671875 111.111328125 -113.76171875 111.111328125 -144.444335938 c 0
 111.111328125 -175.126953125 86.23828125 -200 55.5556640625 -200 c 0
 24.873046875 -200 0 -175.126953125 0 -144.444335938 c 0
EndSplineSet
Validated: 524293
EndChar

StartChar: H
Encoding: 72 72 33
Width: 777
VWidth: 0
Flags: HW
LayerCount: 2
Fore
SplineSet
0 744.444335938 m 0
 0 775.126953125 24.873046875 800 55.5556640625 800 c 0
 86.23828125 800 111.111328125 775.126953125 111.111328125 744.444335938 c 0
 111.111328125 713.76171875 86.23828125 688.888671875 55.5556640625 688.888671875 c 0
 24.873046875 688.888671875 0 713.76171875 0 744.444335938 c 0
0 633.333007812 m 0
 0 664.015625 24.873046875 688.888671875 55.5556640625 688.888671875 c 0
 86.23828125 688.888671875 111.111328125 664.015625 111.111328125 633.333007812 c 0
 111.111328125 602.650390625 86.23828125 577.77734375 55.5556640625 577.77734375 c 0
 24.873046875 577.77734375 0 602.650390625 0 633.333007812 c 0
0 522.22265625 m 0
 0 552.904296875 24.873046875 577.77734375 55.5556640625 577.77734375 c 0
 86.23828125 577.77734375 111.111328125 552.904296875 111.111328125 522.22265625 c 0
 111.111328125 491.540039062 86.23828125 466.666992188 55.5556640625 466.666992188 c 0
 24.873046875 466.666992188 0 491.540039062 0 522.22265625 c 0
0 411.111328125 m 0
 0 441.793945312 24.873046875 466.666992188 55.5556640625 466.666992188 c 0
 86.23828125 466.666992188 111.111328125 441.793945312 111.111328125 411.111328125 c 0
 111.111328125 380.428710938 86.23828125 355.555664062 55.5556640625 355.555664062 c 0
 24.873046875 355.555664062 0 380.428710938 0 411.111328125 c 0
0 300 m 0
 0 330.682617188 24.873046875 355.555664062 55.5556640625 355.555664062 c 0
 86.23828125 355.555664062 111.111328125 330.682617188 111.111328125 300 c 0
 111.111328125 269.317382812 86.23828125 244.444335938 55.5556640625 244.444335938 c 0
 24.873046875 244.444335938 0 269.317382812 0 300 c 0
0 188.888671875 m 0
 0 219.571289062 24.873046875 244.444335938 55.5556640625 244.444335938 c 0
 86.23828125 244.444335938 111.111328125 219.571289062 111.111328125 188.888671875 c 0
 111.111328125 158.206054688 86.23828125 133.333007812 55.5556640625 133.333007812 c 0
 24.873046875 133.333007812 0 158.206054688 0 188.888671875 c 0
0 77.77734375 m 0
 0 108.459960938 24.873046875 133.333007812 55.5556640625 133.333007812 c 0
 86.23828125 133.333007812 111.111328125 108.459960938 111.111328125 77.77734375 c 0
 111.111328125 47.095703125 86.23828125 22.22265625 55.5556640625 22.22265625 c 0
 24.873046875 22.22265625 0 47.095703125 0 77.77734375 c 0
0 -33.3330078125 m 0
 0 -2.650390625 24.873046875 22.22265625 55.5556640625 22.22265625 c 0
 86.23828125 22.22265625 111.111328125 -2.650390625 111.111328125 -33.3330078125 c 0
 111.111328125 -64.015625 86.23828125 -88.888671875 55.5556640625 -88.888671875 c 0
 24.873046875 -88.888671875 0 -64.015625 0 -33.3330078125 c 0
0 -144.444335938 m 0
 0 -113.76171875 24.873046875 -88.888671875 55.5556640625 -88.888671875 c 0
 86.23828125 -88.888671875 111.111328125 -113.76171875 111.111328125 -144.444335938 c 0
 111.111328125 -175.126953125 86.23828125 -200 55.5556640625 -200 c 0
 24.873046875 -200 0 -175.126953125 0 -144.444335938 c 0
111.111328125 300 m 0
 111.111328125 330.682617188 135.984375 355.555664062 166.666992188 355.555664062 c 0
 197.349609375 355.555664062 222.22265625 330.682617188 222.22265625 300 c 0
 222.22265625 269.317382812 197.349609375 244.444335938 166.666992188 244.444335938 c 0
 135.984375 244.444335938 111.111328125 269.317382812 111.111328125 300 c 0
222.22265625 300 m 0
 222.22265625 330.682617188 247.095703125 355.555664062 277.77734375 355.555664062 c 0
 308.459960938 355.555664062 333.333007812 330.682617188 333.333007812 300 c 0
 333.333007812 269.317382812 308.459960938 244.444335938 277.77734375 244.444335938 c 0
 247.095703125 244.444335938 222.22265625 269.317382812 222.22265625 300 c 0
333.333007812 300 m 0
 333.333007812 330.682617188 358.206054688 355.555664062 388.888671875 355.555664062 c 0
 419.571289062 355.555664062 444.444335938 330.682617188 444.444335938 300 c 0
 444.444335938 269.317382812 419.571289062 244.444335938 388.888671875 244.444335938 c 0
 358.206054688 244.444335938 333.333007812 269.317382812 333.333007812 300 c 0
555.555664062 522.22265625 m 0
 555.555664062 552.904296875 580.428710938 577.77734375 611.111328125 577.77734375 c 0
 641.793945312 577.77734375 666.666992188 552.904296875 666.666992188 522.22265625 c 0
 666.666992188 491.540039062 641.793945312 466.666992188 611.111328125 466.666992188 c 0
 580.428710938 466.666992188 555.555664062 491.540039062 555.555664062 522.22265625 c 0
555.555664062 633.333007812 m 0
 555.555664062 664.015625 580.428710938 688.888671875 611.111328125 688.888671875 c 0
 641.793945312 688.888671875 666.666992188 664.015625 666.666992188 633.333007812 c 0
 666.666992188 602.650390625 641.793945312 577.77734375 611.111328125 577.77734375 c 0
 580.428710938 577.77734375 555.555664062 602.650390625 555.555664062 633.333007812 c 0
555.555664062 744.444335938 m 0
 555.555664062 775.126953125 580.428710938 800 611.111328125 800 c 0
 641.793945312 800 666.666992188 775.126953125 666.666992188 744.444335938 c 0
 666.666992188 713.76171875 641.793945312 688.888671875 611.111328125 688.888671875 c 0
 580.428710938 688.888671875 555.555664062 713.76171875 555.555664062 744.444335938 c 0
555.555664062 188.888671875 m 0
 555.555664062 219.571289062 580.428710938 244.444335938 611.111328125 244.444335938 c 0
 641.793945312 244.444335938 666.666992188 219.571289062 666.666992188 188.888671875 c 0
 666.666992188 158.206054688 641.793945312 133.333007812 611.111328125 133.333007812 c 0
 580.428710938 133.333007812 555.555664062 158.206054688 555.555664062 188.888671875 c 0
555.555664062 -33.3330078125 m 0
 555.555664062 -2.650390625 580.428710938 22.22265625 611.111328125 22.22265625 c 0
 641.793945312 22.22265625 666.666992188 -2.650390625 666.666992188 -33.3330078125 c 0
 666.666992188 -64.015625 641.793945312 -88.888671875 611.111328125 -88.888671875 c 0
 580.428710938 -88.888671875 555.555664062 -64.015625 555.555664062 -33.3330078125 c 0
555.555664062 -144.444335938 m 0
 555.555664062 -113.76171875 580.428710938 -88.888671875 611.111328125 -88.888671875 c 0
 641.793945312 -88.888671875 666.666992188 -113.76171875 666.666992188 -144.444335938 c 0
 666.666992188 -175.126953125 641.793945312 -200 611.111328125 -200 c 0
 580.428710938 -200 555.555664062 -175.126953125 555.555664062 -144.444335938 c 0
555.555664062 77.77734375 m 0
 555.555664062 108.459960938 580.428710938 133.333007812 611.111328125 133.333007812 c 0
 641.793945312 133.333007812 666.666992188 108.459960938 666.666992188 77.77734375 c 0
 666.666992188 47.095703125 641.793945312 22.22265625 611.111328125 22.22265625 c 0
 580.428710938 22.22265625 555.555664062 47.095703125 555.555664062 77.77734375 c 0
444.444335938 300 m 0
 444.444335938 330.682617188 469.317382812 355.555664062 500 355.555664062 c 0
 530.682617188 355.555664062 555.555664062 330.682617188 555.555664062 300 c 0
 555.555664062 269.317382812 530.682617188 244.444335938 500 244.444335938 c 0
 469.317382812 244.444335938 444.444335938 269.317382812 444.444335938 300 c 0
555.555664062 300 m 0
 555.555664062 330.682617188 580.428710938 355.555664062 611.111328125 355.555664062 c 0
 641.793945312 355.555664062 666.666992188 330.682617188 666.666992188 300 c 0
 666.666992188 269.317382812 641.793945312 244.444335938 611.111328125 244.444335938 c 0
 580.428710938 244.444335938 555.555664062 269.317382812 555.555664062 300 c 0
555.555664062 411.111328125 m 0
 555.555664062 441.793945312 580.428710938 466.666992188 611.111328125 466.666992188 c 0
 641.793945312 466.666992188 666.666992188 441.793945312 666.666992188 411.111328125 c 0
 666.666992188 380.428710938 641.793945312 355.555664062 611.111328125 355.555664062 c 0
 580.428710938 355.555664062 555.555664062 380.428710938 555.555664062 411.111328125 c 0
EndSplineSet
Validated: 524293
EndChar

